M48
;Layer_Color=9474304
;FILE_FORMAT=2:5
INCH,LZ
;TYPE=PLATED
T1F00S00C0.02800
T2F00S00C0.03150
T3F00S00C0.03504
T4F00S00C0.03543
T5F00S00C0.04134
T6F00S00C0.04331
T7F00S00C0.07913
T8F00S00C0.13780
%
T01
X00775Y004
X022Y0055
X023Y00675
X025Y0115
X02625Y01525
X02675Y0165
Y019
X025
X02225
X02175Y01825
X02325Y01775
X02275Y01675
X02225Y021
X02675
X031Y01325
X01825Y01825
X0175Y019
X01875Y01925
X014Y0185
Y02175
X006Y02225
X00425Y0205
T02
X0239803Y01775
Y01875
Y01975
Y02075
Y02175
X0210197
Y02075
Y01975
Y01875
Y01775
X0197303
Y01875
Y01975
Y02075
Y02175
X0167697
Y02075
Y01975
Y01875
Y01775
X0154803
Y01875
Y01975
Y02075
Y02175
X0125197
Y02075
Y01975
Y01875
Y01775
X0112303
Y01875
Y01975
Y02075
Y02175
X0082697
Y02075
Y01975
Y01875
Y01775
T03
X011Y0045925
X012
T04
X0085Y00675
X0115
X0135
X0165
X01875
X0205Y00475
X0215
Y00175
X0205
X0225
X0235
X0245
X0255
X0265
Y00475
X0255
X0245
X0235
X0225
X02175Y00675
X024
X027
Y00775
Y00875
Y00975
Y01075
Y01175
Y01275
Y01375
Y01475
Y01575
X024
Y01475
Y01375
Y01275
Y01175
Y01075
Y00975
Y00875
Y00775
X02175
Y00875
Y00975
Y01075
Y01175
Y01275
Y01375
Y01475
Y01575
X01875
Y01475
Y01375
Y01275
Y01175
Y01075
Y00975
Y00875
Y00775
X0165
Y00875
Y00975
Y01075
Y01175
Y01275
Y01375
Y01475
Y01575
X0135
Y01475
Y01375
Y01275
Y01175
Y01075
Y00975
Y00875
Y00775
X0115
Y00875
Y00975
Y01075
Y01175
Y01275
Y01375
Y01475
Y01575
X0085
Y01475
Y01375
Y01275
Y01175
Y01075
Y00975
Y00875
Y00775
T05
X015122Y00225
X018878
T06
X00225Y00475
Y00575
Y00675
X00525Y007
Y006
Y005
Y004
Y003
Y002
X00625
Y003
Y004
Y005
Y006
Y007
X02925
X03025
Y006
X02925
Y005
X03025
Y004
X02925
Y003
Y002
X03025
Y003
X0335Y00675
Y00775
Y00875
Y00975
Y01075
Y01175
X03025Y012
Y013
Y014
Y015
Y016
Y017
Y018
Y019
Y02
Y021
X02925
Y02
Y019
Y018
Y017
Y016
Y015
Y014
Y013
Y012
Y011
X03025
Y01
X02925
Y009
X03025
Y008
X02925
X00625
Y009
Y01
Y011
Y012
Y013
Y014
Y015
Y016
Y017
Y018
Y019
Y02
Y021
X00525
Y02
Y019
Y018
Y017
Y016
Y015
Y014
Y013
Y012
Y011
Y01
Y009
Y008
X00225Y00775
Y00875
Y00975
Y012
Y013
Y014
Y015
Y016
Y017
T07
X009Y0025925
X013
T08
X002Y002
X0335
Y021
X002
M30
