G04*
G04 #@! TF.GenerationSoftware,Altium Limited,Altium Designer,20.0.13 (296)*
G04*
G04 Layer_Physical_Order=2*
G04 Layer_Color=16711680*
%FSLAX25Y25*%
%MOIN*%
G70*
G01*
G75*
%ADD13C,0.01000*%
%ADD35R,0.03740X0.03150*%
%ADD38R,0.03937X0.05118*%
%ADD39R,0.03150X0.03740*%
%ADD40C,0.02500*%
%ADD42C,0.05906*%
%ADD43R,0.05906X0.05906*%
%ADD44C,0.06102*%
%ADD45R,0.05906X0.05906*%
%ADD46C,0.05118*%
%ADD47C,0.05512*%
%ADD48R,0.05512X0.05512*%
%ADD49C,0.10039*%
%ADD50C,0.06693*%
%ADD51R,0.06693X0.06693*%
%ADD52C,0.23622*%
%ADD53C,0.05000*%
G36*
X226836Y223572D02*
X223312Y220049D01*
X213987D01*
X213448Y220752D01*
X212496Y221482D01*
X211387Y221942D01*
X210197Y222098D01*
X209007Y221942D01*
X207898Y221482D01*
X206945Y220752D01*
X206214Y219799D01*
X205755Y218690D01*
X205598Y217500D01*
X205755Y216310D01*
X206214Y215201D01*
X206945Y214248D01*
X207898Y213518D01*
X209007Y213058D01*
X210197Y212902D01*
X211387Y213058D01*
X211483Y213098D01*
X211766Y212674D01*
X211075Y211983D01*
X210197Y212098D01*
X209007Y211942D01*
X207898Y211482D01*
X206945Y210752D01*
X206214Y209799D01*
X205755Y208690D01*
X205598Y207500D01*
X205755Y206310D01*
X206214Y205201D01*
X206945Y204248D01*
X207898Y203518D01*
X209007Y203058D01*
X210197Y202902D01*
X211387Y203058D01*
X212496Y203518D01*
X213448Y204248D01*
X214179Y205201D01*
X214638Y206310D01*
X214795Y207500D01*
X214680Y208378D01*
X219253Y212951D01*
X219849D01*
X219895Y212818D01*
X219969Y212451D01*
X219443Y211765D01*
X219090Y210914D01*
X219036Y210500D01*
X225964D01*
X225910Y210914D01*
X225557Y211765D01*
X225031Y212451D01*
X225105Y212818D01*
X225151Y212951D01*
X227368D01*
X228344Y213145D01*
X229171Y213698D01*
X234483Y219010D01*
X235013D01*
X235338Y218510D01*
X235205Y217500D01*
X235362Y216310D01*
X235677Y215549D01*
X235343Y215049D01*
X235197D01*
X234221Y214855D01*
X233394Y214302D01*
X215023Y195931D01*
X214599Y196214D01*
X214638Y196310D01*
X214795Y197500D01*
X214638Y198690D01*
X214179Y199799D01*
X213448Y200751D01*
X212496Y201482D01*
X211387Y201942D01*
X210197Y202098D01*
X209007Y201942D01*
X207898Y201482D01*
X206945Y200751D01*
X206214Y199799D01*
X205755Y198690D01*
X205598Y197500D01*
X205755Y196310D01*
X206214Y195201D01*
X206945Y194248D01*
X207898Y193518D01*
X209007Y193058D01*
X210197Y192902D01*
X211387Y193058D01*
X211483Y193098D01*
X211766Y192674D01*
X211075Y191983D01*
X210197Y192098D01*
X209007Y191942D01*
X207898Y191482D01*
X206945Y190752D01*
X206214Y189799D01*
X205755Y188690D01*
X205598Y187500D01*
X205755Y186310D01*
X206214Y185201D01*
X206945Y184248D01*
X207898Y183518D01*
X209007Y183058D01*
X210197Y182902D01*
X211387Y183058D01*
X212496Y183518D01*
X212601Y183599D01*
X213070Y183328D01*
X212961Y182500D01*
X213070Y181672D01*
X212601Y181401D01*
X212496Y181482D01*
X211387Y181942D01*
X210197Y182098D01*
X209007Y181942D01*
X207898Y181482D01*
X206945Y180752D01*
X206352Y179979D01*
X205852Y180149D01*
Y181500D01*
X205658Y182475D01*
X205106Y183302D01*
X201786Y186622D01*
X201902Y187500D01*
X201745Y188690D01*
X201286Y189799D01*
X200555Y190752D01*
X199602Y191482D01*
X198493Y191942D01*
X197303Y192098D01*
X196113Y191942D01*
X195465Y191673D01*
X195049Y191951D01*
Y193049D01*
X195465Y193327D01*
X196113Y193058D01*
X197303Y192902D01*
X198493Y193058D01*
X199602Y193518D01*
X200555Y194248D01*
X201286Y195201D01*
X201745Y196310D01*
X201902Y197500D01*
X201745Y198690D01*
X201286Y199799D01*
X200555Y200751D01*
X199602Y201482D01*
X198493Y201942D01*
X197303Y202098D01*
X196113Y201942D01*
X195465Y201673D01*
X195049Y201951D01*
Y203049D01*
X195465Y203327D01*
X196113Y203058D01*
X197303Y202902D01*
X198493Y203058D01*
X199602Y203518D01*
X200555Y204248D01*
X201286Y205201D01*
X201745Y206310D01*
X201902Y207500D01*
X201745Y208690D01*
X201286Y209799D01*
X200555Y210752D01*
X200485Y210805D01*
X200452Y211304D01*
X203165Y214016D01*
X203717Y214843D01*
X203911Y215819D01*
Y219181D01*
X203717Y220157D01*
X203165Y220984D01*
X200614Y223534D01*
X200821Y224034D01*
X226644D01*
X226836Y223572D01*
D02*
G37*
G36*
X55571Y223605D02*
X55576Y223534D01*
X45851Y213810D01*
X45299Y212983D01*
X45105Y212007D01*
Y208043D01*
X44605Y207797D01*
X44265Y208057D01*
X43414Y208410D01*
X43000Y208464D01*
Y205000D01*
Y201536D01*
X43414Y201590D01*
X44265Y201943D01*
X44605Y202203D01*
X45105Y201957D01*
Y77992D01*
X45299Y77017D01*
X45851Y76190D01*
X48488Y73554D01*
X47830Y72696D01*
X47291Y71396D01*
X47107Y70000D01*
X47291Y68604D01*
X47830Y67304D01*
X48687Y66187D01*
X49804Y65330D01*
X49997Y65250D01*
Y64750D01*
X49804Y64670D01*
X48687Y63813D01*
X47830Y62696D01*
X47291Y61396D01*
X47107Y60000D01*
X47291Y58604D01*
X47830Y57304D01*
X48687Y56187D01*
X49804Y55330D01*
X49997Y55250D01*
Y54750D01*
X49804Y54670D01*
X48687Y53813D01*
X47830Y52696D01*
X47291Y51396D01*
X47107Y50000D01*
X47291Y48604D01*
X47830Y47304D01*
X48687Y46187D01*
X49804Y45330D01*
X49997Y45250D01*
Y44750D01*
X49804Y44670D01*
X48687Y43813D01*
X47830Y42696D01*
X47291Y41396D01*
X47107Y40000D01*
X47291Y38604D01*
X47830Y37304D01*
X48687Y36187D01*
X49804Y35330D01*
X49997Y35250D01*
Y34750D01*
X49804Y34670D01*
X48687Y33813D01*
X47830Y32696D01*
X47291Y31396D01*
X47107Y30000D01*
X47291Y28604D01*
X47830Y27304D01*
X48687Y26187D01*
X49804Y25330D01*
X49997Y25250D01*
Y24750D01*
X49804Y24670D01*
X48687Y23813D01*
X47830Y22696D01*
X47291Y21396D01*
X47107Y20000D01*
X47291Y18604D01*
X47830Y17304D01*
X48687Y16187D01*
X49804Y15330D01*
X51104Y14791D01*
X52500Y14607D01*
X53896Y14791D01*
X55196Y15330D01*
X56313Y16187D01*
X57170Y17304D01*
X57250Y17497D01*
X57750D01*
X57830Y17304D01*
X58687Y16187D01*
X59804Y15330D01*
X61104Y14791D01*
X62500Y14607D01*
X63896Y14791D01*
X65196Y15330D01*
X66313Y16187D01*
X67170Y17304D01*
X67709Y18604D01*
X67893Y20000D01*
X67709Y21396D01*
X67170Y22696D01*
X66313Y23813D01*
X65196Y24670D01*
X65003Y24750D01*
Y25250D01*
X65196Y25330D01*
X66313Y26187D01*
X67170Y27304D01*
X67709Y28604D01*
X67893Y30000D01*
X67709Y31396D01*
X67170Y32696D01*
X66313Y33813D01*
X65196Y34670D01*
X65003Y34750D01*
Y35250D01*
X65196Y35330D01*
X66313Y36187D01*
X67170Y37304D01*
X67709Y38604D01*
X67893Y40000D01*
X67709Y41396D01*
X67170Y42696D01*
X66313Y43813D01*
X65196Y44670D01*
X65003Y44750D01*
Y45250D01*
X65196Y45330D01*
X66313Y46187D01*
X67170Y47304D01*
X67709Y48604D01*
X67893Y50000D01*
X67709Y51396D01*
X67170Y52696D01*
X66313Y53813D01*
X65196Y54670D01*
X65003Y54750D01*
Y55250D01*
X65196Y55330D01*
X66313Y56187D01*
X67170Y57304D01*
X67709Y58604D01*
X67893Y60000D01*
X67709Y61396D01*
X67170Y62696D01*
X66313Y63813D01*
X65196Y64670D01*
X65003Y64750D01*
Y65250D01*
X65196Y65330D01*
X66313Y66187D01*
X67170Y67304D01*
X67526Y68162D01*
X68116Y68280D01*
X85698Y50698D01*
X86525Y50145D01*
X87500Y49951D01*
X106656D01*
X106817Y49478D01*
X106608Y49317D01*
X105846Y48324D01*
X105367Y47167D01*
X105203Y45925D01*
X105367Y44684D01*
X105846Y43527D01*
X106608Y42533D01*
X107601Y41771D01*
X108758Y41292D01*
X110000Y41128D01*
X111241Y41292D01*
X112399Y41771D01*
X113392Y42533D01*
X114154Y43527D01*
X114634Y44684D01*
X114797Y45925D01*
X114634Y47167D01*
X114154Y48324D01*
X113392Y49317D01*
X113183Y49478D01*
X113344Y49951D01*
X115856D01*
X116244Y49681D01*
X116244Y49451D01*
Y46425D01*
X120000D01*
X123756D01*
Y49451D01*
X123756Y49681D01*
X124144Y49951D01*
X142500D01*
X143475Y50145D01*
X144302Y50698D01*
X159713Y66108D01*
X160276Y65964D01*
X160674Y65002D01*
X161468Y63968D01*
X162502Y63174D01*
X163707Y62675D01*
X165000Y62505D01*
X166293Y62675D01*
X167498Y63174D01*
X168532Y63968D01*
X169287Y64951D01*
X180147D01*
X186900Y58198D01*
X187727Y57645D01*
X188703Y57451D01*
X215603D01*
X215937Y56951D01*
X215616Y56175D01*
X215461Y55000D01*
X215477Y54878D01*
X215148Y54502D01*
X213156D01*
X212180Y54308D01*
X211353Y53755D01*
X208624Y51026D01*
X208532Y51032D01*
X207498Y51826D01*
X206293Y52325D01*
X205000Y52495D01*
X203707Y52325D01*
X202502Y51826D01*
X201468Y51032D01*
X200674Y49998D01*
X200175Y48793D01*
X200005Y47500D01*
X200175Y46207D01*
X200674Y45002D01*
X201468Y43968D01*
X202502Y43174D01*
X203707Y42675D01*
X205000Y42505D01*
X206293Y42675D01*
X206488Y42755D01*
X206904Y42478D01*
Y36737D01*
X207098Y35761D01*
X207451Y35233D01*
Y30000D01*
X207645Y29024D01*
X208198Y28198D01*
X213608Y22787D01*
X213464Y22224D01*
X212502Y21826D01*
X211468Y21032D01*
X210674Y19998D01*
X210271Y19024D01*
X209729D01*
X209326Y19998D01*
X208532Y21032D01*
X207498Y21826D01*
X206293Y22325D01*
X205000Y22496D01*
X203707Y22325D01*
X202502Y21826D01*
X201468Y21032D01*
X200674Y19998D01*
X200175Y18793D01*
X200005Y17500D01*
X200175Y16207D01*
X200674Y15002D01*
X201468Y13968D01*
X202502Y13174D01*
X203707Y12675D01*
X205000Y12505D01*
X206293Y12675D01*
X207498Y13174D01*
X208532Y13968D01*
X209326Y15002D01*
X209729Y15976D01*
X210271D01*
X210674Y15002D01*
X211468Y13968D01*
X212502Y13174D01*
X213707Y12675D01*
X215000Y12505D01*
X216293Y12675D01*
X217498Y13174D01*
X218532Y13968D01*
X218624Y13974D01*
X221353Y11245D01*
X222180Y10692D01*
X223156Y10498D01*
X223151Y10000D01*
X40000D01*
X37905Y223679D01*
X38257Y224034D01*
X55290D01*
X55571Y223605D01*
D02*
G37*
G36*
X193992Y223534D02*
X185698Y215240D01*
X185145Y214413D01*
X184951Y213437D01*
Y204428D01*
X184451Y204277D01*
X184302Y204499D01*
X172180Y216622D01*
X172295Y217500D01*
X172139Y218690D01*
X171679Y219799D01*
X170948Y220752D01*
X169996Y221482D01*
X168887Y221942D01*
X167697Y222098D01*
X166507Y221942D01*
X165398Y221482D01*
X164445Y220752D01*
X163715Y219799D01*
X163255Y218690D01*
X163098Y217500D01*
X163255Y216310D01*
X163715Y215201D01*
X164445Y214248D01*
X165398Y213518D01*
X166507Y213058D01*
X167697Y212902D01*
X168575Y213017D01*
X169266Y212326D01*
X168983Y211902D01*
X168887Y211942D01*
X167697Y212098D01*
X166507Y211942D01*
X165398Y211482D01*
X165018Y211191D01*
X164525Y211273D01*
X164302Y211606D01*
X159286Y216622D01*
X159402Y217500D01*
X159245Y218690D01*
X158785Y219799D01*
X158055Y220752D01*
X157102Y221482D01*
X155993Y221942D01*
X154803Y222098D01*
X153613Y221942D01*
X152504Y221482D01*
X151552Y220752D01*
X150821Y219799D01*
X150362Y218690D01*
X150205Y217500D01*
X150362Y216310D01*
X150821Y215201D01*
X151552Y214248D01*
X152504Y213518D01*
X153613Y213058D01*
X154803Y212902D01*
X155681Y213017D01*
X156373Y212326D01*
X156089Y211902D01*
X155993Y211942D01*
X154803Y212098D01*
X153613Y211942D01*
X152504Y211482D01*
X151552Y210752D01*
X150821Y209799D01*
X150362Y208690D01*
X150205Y207500D01*
X150362Y206310D01*
X150821Y205201D01*
X151552Y204248D01*
X152504Y203518D01*
X153613Y203058D01*
X154803Y202902D01*
X155855Y203040D01*
X156709Y202187D01*
X156425Y201763D01*
X155993Y201942D01*
X154803Y202098D01*
X153613Y201942D01*
X152504Y201482D01*
X151552Y200751D01*
X150931Y199943D01*
X150348Y199820D01*
X142549Y207619D01*
Y213784D01*
X143209Y214291D01*
X143931Y215231D01*
X144384Y216325D01*
X144539Y217500D01*
X144384Y218675D01*
X143931Y219769D01*
X143209Y220709D01*
X142269Y221431D01*
X141175Y221884D01*
X140000Y222039D01*
X138825Y221884D01*
X137731Y221431D01*
X136791Y220709D01*
X136069Y219769D01*
X135616Y218675D01*
X135461Y217500D01*
X135616Y216325D01*
X136069Y215231D01*
X136791Y214291D01*
X137451Y213784D01*
Y206563D01*
X137645Y205587D01*
X138198Y204760D01*
X151654Y191304D01*
X151621Y190805D01*
X151552Y190752D01*
X150821Y189799D01*
X150362Y188690D01*
X150205Y187500D01*
X150362Y186310D01*
X150821Y185201D01*
X151552Y184248D01*
X152504Y183518D01*
X153613Y183058D01*
X154803Y182902D01*
X155993Y183058D01*
X156951Y183455D01*
X157451Y183213D01*
Y181787D01*
X156951Y181545D01*
X155993Y181942D01*
X154803Y182098D01*
X153613Y181942D01*
X152504Y181482D01*
X151552Y180752D01*
X150821Y179799D01*
X150362Y178690D01*
X150205Y177500D01*
X150362Y176310D01*
X150821Y175201D01*
X151552Y174249D01*
X152254Y173709D01*
Y157966D01*
X149828Y155539D01*
X149275Y154712D01*
X149081Y153736D01*
Y137677D01*
X148619Y137486D01*
X147549Y138556D01*
Y163437D01*
X147355Y164413D01*
X146802Y165240D01*
X128346Y183696D01*
X128379Y184195D01*
X128448Y184248D01*
X129179Y185201D01*
X129639Y186310D01*
X129795Y187500D01*
X129639Y188690D01*
X129179Y189799D01*
X128448Y190752D01*
X127496Y191482D01*
X126387Y191942D01*
X125197Y192098D01*
X124187Y191965D01*
X123747Y192251D01*
Y192749D01*
X124187Y193035D01*
X125197Y192902D01*
X126387Y193058D01*
X127496Y193518D01*
X128448Y194248D01*
X129179Y195201D01*
X129639Y196310D01*
X129795Y197500D01*
X129639Y198690D01*
X129179Y199799D01*
X128448Y200751D01*
X128379Y200805D01*
X128346Y201304D01*
X131058Y204016D01*
X131611Y204843D01*
X131805Y205819D01*
Y213441D01*
X131611Y214416D01*
X131058Y215243D01*
X129680Y216622D01*
X129795Y217500D01*
X129639Y218690D01*
X129179Y219799D01*
X128448Y220752D01*
X127496Y221482D01*
X126387Y221942D01*
X125197Y222098D01*
X124007Y221942D01*
X122898Y221482D01*
X121945Y220752D01*
X121835Y220608D01*
X121403Y220622D01*
X121276Y220701D01*
X118404Y223572D01*
X118596Y224034D01*
X193785D01*
X193992Y223534D01*
D02*
G37*
G36*
X179951Y201641D02*
Y190000D01*
X180145Y189025D01*
X180698Y188198D01*
X181532Y187364D01*
X181371Y186890D01*
X181325Y186884D01*
X180231Y186431D01*
X179291Y185709D01*
X178569Y184769D01*
X178116Y183675D01*
X177961Y182500D01*
X178106Y181403D01*
X177727Y181074D01*
X172187Y186614D01*
X172265Y187087D01*
X172773Y187297D01*
X173235Y186943D01*
X174086Y186590D01*
X174500Y186536D01*
Y190000D01*
Y193464D01*
X174086Y193410D01*
X173235Y193057D01*
X172504Y192496D01*
X171943Y191765D01*
X171590Y190914D01*
X171563Y190709D01*
X171080Y190580D01*
X170948Y190752D01*
X169996Y191482D01*
X168887Y191942D01*
X167697Y192098D01*
X166507Y191942D01*
X165549Y191545D01*
X165049Y191787D01*
Y193213D01*
X165549Y193455D01*
X166507Y193058D01*
X167697Y192902D01*
X168887Y193058D01*
X169996Y193518D01*
X170948Y194248D01*
X171679Y195201D01*
X172139Y196310D01*
X172295Y197500D01*
X172139Y198690D01*
X171679Y199799D01*
X170948Y200751D01*
X169996Y201482D01*
X168887Y201942D01*
X167697Y202098D01*
X166507Y201942D01*
X165549Y201545D01*
X165049Y201787D01*
Y203213D01*
X165549Y203455D01*
X166507Y203058D01*
X167697Y202902D01*
X168887Y203058D01*
X169996Y203518D01*
X170948Y204248D01*
X171679Y205201D01*
X172139Y206310D01*
X172295Y207500D01*
X172139Y208690D01*
X172099Y208786D01*
X172523Y209069D01*
X179951Y201641D01*
D02*
G37*
G36*
X235310Y208302D02*
X235205Y207500D01*
X235362Y206310D01*
X235821Y205201D01*
X236552Y204248D01*
X237504Y203518D01*
X238613Y203058D01*
X239803Y202902D01*
X240681Y203017D01*
X241373Y202326D01*
X241089Y201902D01*
X240993Y201942D01*
X239803Y202098D01*
X238613Y201942D01*
X237504Y201482D01*
X236552Y200751D01*
X235821Y199799D01*
X235362Y198690D01*
X235205Y197500D01*
X235362Y196310D01*
X235821Y195201D01*
X236552Y194248D01*
X237504Y193518D01*
X238613Y193058D01*
X239803Y192902D01*
X240993Y193058D01*
X242102Y193518D01*
X243055Y194248D01*
X243786Y195201D01*
X244245Y196310D01*
X244402Y197500D01*
X244245Y198690D01*
X244205Y198786D01*
X244629Y199069D01*
X249703Y193995D01*
X249524Y193467D01*
X249086Y193410D01*
X248235Y193057D01*
X247504Y192496D01*
X246943Y191765D01*
X246590Y190914D01*
X246536Y190500D01*
X250000D01*
Y189500D01*
X246536D01*
X246590Y189086D01*
X246943Y188235D01*
X247125Y187997D01*
X246904Y187549D01*
X244395D01*
X244245Y188690D01*
X243786Y189799D01*
X243055Y190752D01*
X242102Y191482D01*
X240993Y191942D01*
X239803Y192098D01*
X238613Y191942D01*
X237504Y191482D01*
X236552Y190752D01*
X235821Y189799D01*
X235362Y188690D01*
X235205Y187500D01*
X235362Y186310D01*
X235821Y185201D01*
X236552Y184248D01*
X237504Y183518D01*
X238613Y183058D01*
X239803Y182902D01*
X240993Y183058D01*
X241275Y183175D01*
X242068Y182645D01*
X243044Y182451D01*
X253701D01*
Y168057D01*
X253239Y167866D01*
X244309Y176796D01*
X244402Y177500D01*
X244245Y178690D01*
X243786Y179799D01*
X243055Y180752D01*
X242102Y181482D01*
X240993Y181942D01*
X239803Y182098D01*
X238613Y181942D01*
X237504Y181482D01*
X236552Y180752D01*
X236364Y180508D01*
X235864D01*
X235709Y180709D01*
X234769Y181431D01*
X233675Y181884D01*
X232500Y182039D01*
X231675Y181930D01*
X229302Y184302D01*
X228475Y184855D01*
X227500Y185049D01*
X221216D01*
X220709Y185709D01*
X219769Y186431D01*
X218675Y186884D01*
X217500Y187039D01*
X216325Y186884D01*
X215231Y186431D01*
X215151Y186369D01*
X214682Y186640D01*
X214795Y187500D01*
X214680Y188378D01*
X234837Y208535D01*
X235310Y208302D01*
D02*
G37*
G36*
X267377Y214018D02*
X267198Y213490D01*
X266586Y213410D01*
X265735Y213057D01*
X265004Y212496D01*
X264443Y211765D01*
X264090Y210914D01*
X264036Y210500D01*
X267500D01*
Y210000D01*
X268000D01*
Y206536D01*
X268414Y206590D01*
X269265Y206943D01*
X269996Y207504D01*
X270557Y208235D01*
X270910Y209086D01*
X270990Y209698D01*
X271518Y209877D01*
X277451Y203944D01*
Y166732D01*
X276951Y166580D01*
X276802Y166802D01*
X264549Y179056D01*
Y187349D01*
X264682Y187395D01*
X265049Y187469D01*
X265735Y186943D01*
X266586Y186590D01*
X267000Y186536D01*
Y190000D01*
Y193464D01*
X266586Y193410D01*
X265735Y193057D01*
X265004Y192496D01*
X264787Y192214D01*
X264193Y192261D01*
X263802Y192846D01*
X242952Y213696D01*
X242985Y214195D01*
X243055Y214248D01*
X243594Y214951D01*
X266444D01*
X267377Y214018D01*
D02*
G37*
G36*
Y169018D02*
X267198Y168490D01*
X266586Y168410D01*
X265735Y168057D01*
X265004Y167496D01*
X264443Y166765D01*
X264090Y165914D01*
X264036Y165500D01*
X267500D01*
Y164500D01*
X264036D01*
X264090Y164086D01*
X264443Y163235D01*
X265004Y162504D01*
X265735Y161943D01*
X266448Y161647D01*
X266593Y161128D01*
X266468Y161032D01*
X265674Y159998D01*
X265175Y158793D01*
X265004Y157500D01*
X265175Y156207D01*
X265674Y155002D01*
X266468Y153968D01*
X267502Y153174D01*
X268476Y152771D01*
Y152229D01*
X267502Y151826D01*
X266468Y151032D01*
X265674Y149998D01*
X265175Y148793D01*
X265004Y147500D01*
X265175Y146207D01*
X265674Y145002D01*
X266468Y143968D01*
X267502Y143174D01*
X268476Y142771D01*
Y142229D01*
X267502Y141826D01*
X266468Y141032D01*
X265713Y140049D01*
X264396D01*
X264034Y140382D01*
Y147531D01*
X262713D01*
Y148086D01*
X262608Y148616D01*
X262899Y149022D01*
X263414Y149090D01*
X264265Y149443D01*
X264996Y150004D01*
X265557Y150735D01*
X265910Y151586D01*
X265964Y152000D01*
X262500D01*
Y152500D01*
X262000D01*
Y155964D01*
X261586Y155910D01*
X261215Y155756D01*
X260799Y156034D01*
Y174943D01*
X261261Y175134D01*
X267377Y169018D01*
D02*
G37*
G36*
X130513Y135048D02*
X130716Y134947D01*
X131468Y133968D01*
X132502Y133174D01*
X133476Y132771D01*
Y132229D01*
X132502Y131826D01*
X131468Y131032D01*
X130674Y129998D01*
X130175Y128793D01*
X130005Y127500D01*
X130175Y126207D01*
X130674Y125002D01*
X131468Y123968D01*
X132502Y123174D01*
X133476Y122771D01*
Y122229D01*
X132502Y121826D01*
X131468Y121032D01*
X130674Y119998D01*
X130175Y118793D01*
X130005Y117500D01*
X130175Y116207D01*
X130674Y115002D01*
X131468Y113968D01*
X132502Y113174D01*
X133476Y112771D01*
Y112229D01*
X132502Y111826D01*
X131468Y111032D01*
X130674Y109998D01*
X130175Y108793D01*
X130005Y107500D01*
X130175Y106207D01*
X130674Y105002D01*
X131468Y103968D01*
X132502Y103174D01*
X133476Y102771D01*
Y102229D01*
X132502Y101826D01*
X131468Y101032D01*
X130674Y99998D01*
X130175Y98793D01*
X130005Y97500D01*
X130175Y96207D01*
X130674Y95002D01*
X131468Y93968D01*
X132502Y93174D01*
X133476Y92771D01*
Y92229D01*
X132502Y91826D01*
X131468Y91032D01*
X130674Y89998D01*
X130175Y88793D01*
X130005Y87500D01*
X130175Y86207D01*
X130674Y85002D01*
X131468Y83968D01*
X132502Y83174D01*
X133476Y82771D01*
Y82229D01*
X132502Y81826D01*
X131468Y81032D01*
X130674Y79998D01*
X130175Y78793D01*
X130005Y77500D01*
X130175Y76207D01*
X130674Y75002D01*
X131468Y73968D01*
X132502Y73174D01*
X133707Y72675D01*
X135000Y72505D01*
X136293Y72675D01*
X137498Y73174D01*
X138532Y73968D01*
X139326Y75002D01*
X139825Y76207D01*
X139996Y77500D01*
X139825Y78793D01*
X139326Y79998D01*
X138532Y81032D01*
X137498Y81826D01*
X136524Y82229D01*
Y82771D01*
X137498Y83174D01*
X138532Y83968D01*
X139326Y85002D01*
X139825Y86207D01*
X139996Y87500D01*
X139825Y88793D01*
X139326Y89998D01*
X138532Y91032D01*
X137498Y91826D01*
X136524Y92229D01*
Y92771D01*
X137498Y93174D01*
X138532Y93968D01*
X139326Y95002D01*
X139825Y96207D01*
X139996Y97500D01*
X139825Y98793D01*
X139326Y99998D01*
X138532Y101032D01*
X137498Y101826D01*
X136524Y102229D01*
Y102771D01*
X137498Y103174D01*
X138532Y103968D01*
X139326Y105002D01*
X139825Y106207D01*
X139996Y107500D01*
X139825Y108793D01*
X139326Y109998D01*
X138532Y111032D01*
X137498Y111826D01*
X136524Y112229D01*
Y112771D01*
X137498Y113174D01*
X138532Y113968D01*
X139326Y115002D01*
X139825Y116207D01*
X139996Y117500D01*
X139891Y118298D01*
X140364Y118531D01*
X151320Y107575D01*
X151130Y107118D01*
X151130D01*
Y103573D01*
X148198Y100640D01*
X147645Y99813D01*
X147451Y98838D01*
Y68556D01*
X138944Y60049D01*
X98556D01*
X94721Y63884D01*
Y66625D01*
X94527Y67600D01*
X93975Y68427D01*
X88526Y73876D01*
X88532Y73968D01*
X89326Y75002D01*
X89825Y76207D01*
X89995Y77500D01*
X89825Y78793D01*
X89326Y79998D01*
X88532Y81032D01*
X87498Y81826D01*
X86524Y82229D01*
Y82771D01*
X87498Y83174D01*
X88532Y83968D01*
X89326Y85002D01*
X89825Y86207D01*
X89995Y87500D01*
X89825Y88793D01*
X89326Y89998D01*
X88532Y91032D01*
X87498Y91826D01*
X86524Y92229D01*
Y92771D01*
X87498Y93174D01*
X88532Y93968D01*
X89326Y95002D01*
X89552Y95547D01*
X90042Y95645D01*
X101130Y84557D01*
Y81075D01*
X101130D01*
Y73925D01*
X108870D01*
Y74951D01*
X110713D01*
X111468Y73968D01*
X112502Y73174D01*
X113476Y72771D01*
Y72229D01*
X112502Y71826D01*
X111468Y71032D01*
X110674Y69998D01*
X110175Y68793D01*
X110004Y67500D01*
X110175Y66207D01*
X110674Y65002D01*
X111468Y63968D01*
X112502Y63174D01*
X113707Y62675D01*
X115000Y62505D01*
X116293Y62675D01*
X117498Y63174D01*
X118532Y63968D01*
X119326Y65002D01*
X119825Y66207D01*
X119995Y67500D01*
X119825Y68793D01*
X119326Y69998D01*
X118532Y71032D01*
X117498Y71826D01*
X116524Y72229D01*
Y72771D01*
X117498Y73174D01*
X118532Y73968D01*
X119326Y75002D01*
X119825Y76207D01*
X119995Y77500D01*
X119825Y78793D01*
X119326Y79998D01*
X118532Y81032D01*
X117498Y81826D01*
X116524Y82229D01*
Y82771D01*
X117498Y83174D01*
X118532Y83968D01*
X119287Y84951D01*
X121130D01*
Y82882D01*
X128870D01*
Y89969D01*
X128871D01*
Y97118D01*
X124735D01*
X122660Y99193D01*
X122592Y99535D01*
X122040Y100362D01*
X118833Y103568D01*
X118658Y103802D01*
X118768Y104275D01*
X119287Y104951D01*
X121130D01*
Y102882D01*
X128870D01*
Y109969D01*
X128871D01*
Y117118D01*
X125284D01*
X118526Y123876D01*
X118532Y123968D01*
X119287Y124951D01*
X121130D01*
Y122882D01*
X128870D01*
Y129969D01*
X128871D01*
Y133809D01*
X130177Y135115D01*
X130513Y135048D01*
D02*
G37*
G36*
X246839Y121741D02*
X247666Y121188D01*
X248641Y120994D01*
X254714D01*
X254905Y120533D01*
X254827Y120455D01*
X254275Y119628D01*
X254081Y118653D01*
Y117895D01*
X253581Y117725D01*
X253209Y118209D01*
X252269Y118931D01*
X251175Y119384D01*
X250000Y119539D01*
X248825Y119384D01*
X247731Y118931D01*
X246791Y118209D01*
X246069Y117269D01*
X245616Y116175D01*
X245461Y115000D01*
X245616Y113825D01*
X246069Y112731D01*
X246791Y111791D01*
X247451Y111284D01*
Y91603D01*
X245090Y89241D01*
X244599Y89339D01*
X244326Y89998D01*
X243532Y91032D01*
X242498Y91826D01*
X241524Y92229D01*
Y92771D01*
X242498Y93174D01*
X243532Y93968D01*
X244326Y95002D01*
X244825Y96207D01*
X244995Y97500D01*
X244825Y98793D01*
X244326Y99998D01*
X243532Y101032D01*
X242498Y101826D01*
X241524Y102229D01*
Y102771D01*
X242498Y103174D01*
X243532Y103968D01*
X244326Y105002D01*
X244825Y106207D01*
X244995Y107500D01*
X244825Y108793D01*
X244326Y109998D01*
X243532Y111032D01*
X242498Y111826D01*
X241524Y112229D01*
Y112771D01*
X242498Y113174D01*
X243532Y113968D01*
X244326Y115002D01*
X244825Y116207D01*
X244995Y117500D01*
X244825Y118793D01*
X244326Y119998D01*
X243532Y121032D01*
X242498Y121826D01*
X241524Y122229D01*
Y122771D01*
X242498Y123174D01*
X243532Y123968D01*
X243770Y124278D01*
X244269Y124311D01*
X246839Y121741D01*
D02*
G37*
G36*
X194188Y133504D02*
Y132393D01*
X194382Y131417D01*
X194935Y130590D01*
X202327Y123198D01*
X203154Y122645D01*
X203630Y122550D01*
Y121488D01*
X203629D01*
Y114339D01*
X211369D01*
Y114951D01*
X213213D01*
X213968Y113968D01*
X215002Y113174D01*
X215976Y112771D01*
Y112229D01*
X215002Y111826D01*
X213968Y111032D01*
X213174Y109998D01*
X212675Y108793D01*
X212505Y107500D01*
X212675Y106207D01*
X213174Y105002D01*
X213968Y103968D01*
X215002Y103174D01*
X215976Y102771D01*
Y102229D01*
X215002Y101826D01*
X213968Y101032D01*
X213506Y100431D01*
X211370D01*
Y102469D01*
X211371D01*
Y109618D01*
X203630D01*
Y106073D01*
X200698Y103140D01*
X200145Y102313D01*
X199951Y101338D01*
Y73086D01*
X200145Y72110D01*
X200698Y71283D01*
X201283Y70698D01*
X202110Y70145D01*
X203086Y69951D01*
X212704D01*
X212982Y69535D01*
X212675Y68793D01*
X212505Y67500D01*
X212675Y66207D01*
X213174Y65002D01*
X213968Y63968D01*
X215002Y63174D01*
X215303Y63049D01*
X215204Y62549D01*
X189759D01*
X188940Y63368D01*
X189037Y63858D01*
X189493Y64047D01*
X190319Y64681D01*
X190953Y65507D01*
X191351Y66468D01*
X191421Y67000D01*
X187500D01*
Y67500D01*
X187000D01*
Y71421D01*
X186468Y71351D01*
X185507Y70953D01*
X184681Y70319D01*
X184047Y69493D01*
X183858Y69037D01*
X183368Y68940D01*
X183005Y69302D01*
X182178Y69855D01*
X181610Y69968D01*
X181505Y70499D01*
X181802Y70698D01*
X183802Y72698D01*
X184141Y73204D01*
X184789Y73338D01*
X185002Y73174D01*
X186207Y72675D01*
X187500Y72505D01*
X188793Y72675D01*
X189998Y73174D01*
X191032Y73968D01*
X191826Y75002D01*
X192325Y76207D01*
X192496Y77500D01*
X192325Y78793D01*
X191826Y79998D01*
X191032Y81032D01*
X189998Y81826D01*
X189024Y82229D01*
Y82771D01*
X189998Y83174D01*
X191032Y83968D01*
X191826Y85002D01*
X192325Y86207D01*
X192496Y87500D01*
X192325Y88793D01*
X191826Y89998D01*
X191032Y91032D01*
X189998Y91826D01*
X189024Y92229D01*
Y92771D01*
X189998Y93174D01*
X191032Y93968D01*
X191826Y95002D01*
X192325Y96207D01*
X192496Y97500D01*
X192325Y98793D01*
X191826Y99998D01*
X191032Y101032D01*
X189998Y101826D01*
X189024Y102229D01*
Y102771D01*
X189998Y103174D01*
X191032Y103968D01*
X191826Y105002D01*
X192325Y106207D01*
X192496Y107500D01*
X192325Y108793D01*
X191826Y109998D01*
X191032Y111032D01*
X189998Y111826D01*
X189024Y112229D01*
Y112771D01*
X189998Y113174D01*
X191032Y113968D01*
X191826Y115002D01*
X192325Y116207D01*
X192496Y117500D01*
X192325Y118793D01*
X191826Y119998D01*
X191032Y121032D01*
X189998Y121826D01*
X189024Y122229D01*
Y122771D01*
X189998Y123174D01*
X191032Y123968D01*
X191826Y125002D01*
X192325Y126207D01*
X192496Y127500D01*
X192325Y128793D01*
X191826Y129998D01*
X191032Y131032D01*
X189998Y131826D01*
X189024Y132229D01*
Y132771D01*
X189998Y133174D01*
X191032Y133968D01*
X191826Y135002D01*
X191907Y135197D01*
X192397Y135295D01*
X194188Y133504D01*
D02*
G37*
G36*
X232451Y143041D02*
Y136203D01*
X232645Y135227D01*
X233198Y134400D01*
X236474Y131124D01*
X236468Y131032D01*
X235674Y129998D01*
X235175Y128793D01*
X235004Y127500D01*
X235175Y126207D01*
X235674Y125002D01*
X236468Y123968D01*
X237502Y123174D01*
X238476Y122771D01*
Y122229D01*
X237502Y121826D01*
X236468Y121032D01*
X235674Y119998D01*
X235175Y118793D01*
X235004Y117500D01*
X235175Y116207D01*
X235674Y115002D01*
X236468Y113968D01*
X237502Y113174D01*
X238476Y112771D01*
Y112229D01*
X237502Y111826D01*
X236468Y111032D01*
X235674Y109998D01*
X235175Y108793D01*
X235004Y107500D01*
X235175Y106207D01*
X235674Y105002D01*
X236468Y103968D01*
X237502Y103174D01*
X238476Y102771D01*
Y102229D01*
X237502Y101826D01*
X236468Y101032D01*
X235674Y99998D01*
X235175Y98793D01*
X235004Y97500D01*
X235175Y96207D01*
X235674Y95002D01*
X236468Y93968D01*
X237502Y93174D01*
X238476Y92771D01*
Y92229D01*
X237502Y91826D01*
X236468Y91032D01*
X235674Y89998D01*
X235175Y88793D01*
X235004Y87500D01*
X235175Y86207D01*
X235583Y85221D01*
X235302Y84721D01*
X231369D01*
Y91425D01*
X231370D01*
Y98575D01*
X230049D01*
Y102335D01*
X232673Y104959D01*
X233226Y105786D01*
X233420Y106761D01*
Y130108D01*
X233226Y131084D01*
X232673Y131911D01*
X231370Y133214D01*
Y135829D01*
X231419Y136075D01*
Y142662D01*
X231989Y143232D01*
X232451Y143041D01*
D02*
G37*
G36*
X254081Y112105D02*
Y95304D01*
X254275Y94328D01*
X254827Y93502D01*
X257452Y90877D01*
Y88161D01*
X256131D01*
Y81075D01*
X256130D01*
Y73925D01*
X263870D01*
Y74951D01*
X265713D01*
X266468Y73968D01*
X267502Y73174D01*
X268476Y72771D01*
Y72229D01*
X267502Y71826D01*
X266468Y71032D01*
X265674Y69998D01*
X265175Y68793D01*
X265004Y67500D01*
X265175Y66207D01*
X265482Y65465D01*
X265204Y65049D01*
X243667D01*
X243601Y65184D01*
X243470Y65549D01*
X243851Y66468D01*
X243921Y67000D01*
X236079D01*
X236149Y66468D01*
X236530Y65549D01*
X236400Y65184D01*
X236333Y65049D01*
X234397D01*
X234063Y65549D01*
X234384Y66325D01*
X234539Y67500D01*
X234384Y68675D01*
X233931Y69769D01*
X233209Y70709D01*
X232269Y71431D01*
X231175Y71884D01*
X230000Y72039D01*
X229175Y71930D01*
X226802Y74302D01*
X225975Y74855D01*
X225000Y75049D01*
X222296D01*
X222018Y75465D01*
X222325Y76207D01*
X222496Y77500D01*
X222325Y78793D01*
X222154Y79207D01*
X222431Y79623D01*
X235069D01*
X235346Y79207D01*
X235175Y78793D01*
X235004Y77500D01*
X235175Y76207D01*
X235674Y75002D01*
X236468Y73968D01*
X237502Y73174D01*
X238707Y72675D01*
X240000Y72505D01*
X241293Y72675D01*
X242498Y73174D01*
X243532Y73968D01*
X244326Y75002D01*
X244825Y76207D01*
X244995Y77500D01*
X244825Y78793D01*
X244326Y79998D01*
X243774Y80717D01*
X251802Y88745D01*
X252355Y89572D01*
X252549Y90547D01*
Y111284D01*
X253209Y111791D01*
X253581Y112275D01*
X254081Y112105D01*
D02*
G37*
G36*
X71283Y84467D02*
Y82371D01*
X71477Y81396D01*
X72029Y80569D01*
X81353Y71245D01*
X82001Y70812D01*
X82070Y70624D01*
X82108Y70299D01*
X82090Y70201D01*
X81547Y69493D01*
X81149Y68532D01*
X81079Y68000D01*
X85000D01*
Y67500D01*
X85500D01*
Y63579D01*
X86032Y63649D01*
X86993Y64047D01*
X87819Y64681D01*
X88453Y65507D01*
X88642Y65963D01*
X89132Y66060D01*
X89623Y65569D01*
Y62828D01*
X89817Y61852D01*
X90370Y61025D01*
X95698Y55698D01*
X95920Y55549D01*
X95768Y55049D01*
X88556D01*
X69302Y74302D01*
X68476Y74855D01*
X68011Y74947D01*
X66512Y76446D01*
X67170Y77304D01*
X67709Y78604D01*
X67893Y80000D01*
X67709Y81396D01*
X67170Y82696D01*
X66313Y83813D01*
X65196Y84670D01*
X65003Y84750D01*
Y85250D01*
X65196Y85330D01*
X66313Y86187D01*
X67170Y87304D01*
X67371Y87790D01*
X67862Y87887D01*
X71283Y84467D01*
D02*
G37*
G36*
X270527Y47451D02*
X287769D01*
X287830Y47304D01*
X288687Y46187D01*
X289804Y45330D01*
X289997Y45250D01*
Y44750D01*
X289804Y44670D01*
X288687Y43813D01*
X287830Y42696D01*
X287291Y41396D01*
X287107Y40000D01*
X287291Y38604D01*
X287830Y37304D01*
X288687Y36187D01*
X289804Y35330D01*
X289997Y35250D01*
Y34750D01*
X289804Y34670D01*
X288687Y33813D01*
X287830Y32696D01*
X287291Y31396D01*
X287107Y30000D01*
X287291Y28604D01*
X287830Y27304D01*
X288095Y26958D01*
X288044Y26649D01*
X278944Y17549D01*
X269989D01*
X269825Y18793D01*
X269326Y19998D01*
X268532Y21032D01*
X267498Y21826D01*
X266293Y22325D01*
X265000Y22496D01*
X263707Y22325D01*
X262502Y21826D01*
X261468Y21032D01*
X260674Y19998D01*
X260271Y19024D01*
X259729D01*
X259326Y19998D01*
X258532Y21032D01*
X257498Y21826D01*
X256293Y22325D01*
X255000Y22496D01*
X253707Y22325D01*
X252502Y21826D01*
X251468Y21032D01*
X250674Y19998D01*
X250175Y18793D01*
X250005Y17500D01*
X250175Y16207D01*
X250255Y16012D01*
X249978Y15596D01*
X248940D01*
X248662Y16012D01*
X248851Y16468D01*
X248921Y17000D01*
X245000D01*
Y17500D01*
D01*
Y17000D01*
X241079D01*
X241149Y16468D01*
X241338Y16012D01*
X241060Y15596D01*
X240022D01*
X239744Y16012D01*
X239825Y16207D01*
X239996Y17500D01*
X239825Y18793D01*
X239326Y19998D01*
X238532Y21032D01*
X237498Y21826D01*
X236293Y22325D01*
X235000Y22496D01*
X233707Y22325D01*
X232502Y21826D01*
X231468Y21032D01*
X230674Y19998D01*
X230271Y19024D01*
X229729D01*
X229326Y19998D01*
X228532Y21032D01*
X227498Y21826D01*
X226293Y22325D01*
X225000Y22496D01*
X223707Y22325D01*
X222502Y21826D01*
X222256Y21637D01*
X221631Y21788D01*
X221255Y22350D01*
X212549Y31056D01*
Y36190D01*
X212355Y37165D01*
X212002Y37694D01*
Y42993D01*
X212450Y43214D01*
X212502Y43174D01*
X213707Y42675D01*
X215000Y42505D01*
X216293Y42675D01*
X217498Y43174D01*
X218532Y43968D01*
X219326Y45002D01*
X219729Y45976D01*
X220271D01*
X220674Y45002D01*
X221468Y43968D01*
X222451Y43213D01*
Y40295D01*
X222645Y39320D01*
X223198Y38493D01*
X223925Y37765D01*
Y33630D01*
X224951D01*
Y31370D01*
X223925D01*
Y23630D01*
X231075D01*
Y31370D01*
X230049D01*
Y33630D01*
X231012D01*
Y33629D01*
X238161D01*
Y34222D01*
X242882D01*
Y33630D01*
X242982D01*
Y32059D01*
X242094D01*
Y22941D01*
X250031D01*
Y32059D01*
X249538D01*
Y33463D01*
X249969Y33630D01*
X249969Y33630D01*
Y33630D01*
X249969Y33630D01*
X257118D01*
Y38328D01*
X257167Y38575D01*
Y43037D01*
X257498Y43174D01*
X258532Y43968D01*
X259326Y45002D01*
X259547Y45536D01*
X260047Y45436D01*
Y42547D01*
X269953D01*
Y47171D01*
X270339Y47488D01*
X270527Y47451D01*
D02*
G37*
%LPC*%
G36*
X225964Y209500D02*
X223000D01*
Y206536D01*
X223414Y206590D01*
X224265Y206943D01*
X224996Y207504D01*
X225557Y208235D01*
X225910Y209086D01*
X225964Y209500D01*
D02*
G37*
G36*
X222000D02*
X219036D01*
X219090Y209086D01*
X219443Y208235D01*
X220004Y207504D01*
X220735Y206943D01*
X221586Y206590D01*
X222000Y206536D01*
Y209500D01*
D02*
G37*
G36*
X42000Y208464D02*
X41586Y208410D01*
X40735Y208057D01*
X40004Y207496D01*
X39443Y206765D01*
X39090Y205914D01*
X39036Y205500D01*
X42000D01*
Y208464D01*
D02*
G37*
G36*
Y204500D02*
X39036D01*
X39090Y204086D01*
X39443Y203235D01*
X40004Y202504D01*
X40735Y201943D01*
X41586Y201590D01*
X42000Y201536D01*
Y204500D01*
D02*
G37*
G36*
X123756Y45425D02*
X120500D01*
Y42169D01*
X123756D01*
Y45425D01*
D02*
G37*
G36*
X119500D02*
X116244D01*
Y42169D01*
X119500D01*
Y45425D01*
D02*
G37*
G36*
X78000Y43464D02*
Y40500D01*
X80964D01*
X80910Y40914D01*
X80557Y41765D01*
X79996Y42496D01*
X79265Y43057D01*
X78414Y43410D01*
X78000Y43464D01*
D02*
G37*
G36*
X77000D02*
X76586Y43410D01*
X75735Y43057D01*
X75004Y42496D01*
X74443Y41765D01*
X74090Y40914D01*
X74036Y40500D01*
X77000D01*
Y43464D01*
D02*
G37*
G36*
X80964Y39500D02*
X78000D01*
Y36536D01*
X78414Y36590D01*
X79265Y36943D01*
X79996Y37504D01*
X80557Y38235D01*
X80910Y39086D01*
X80964Y39500D01*
D02*
G37*
G36*
X77000D02*
X74036D01*
X74090Y39086D01*
X74443Y38235D01*
X75004Y37504D01*
X75735Y36943D01*
X76586Y36590D01*
X77000Y36536D01*
Y39500D01*
D02*
G37*
G36*
X151720Y26520D02*
Y23000D01*
X155241D01*
X155167Y23558D01*
X154759Y24543D01*
X154110Y25389D01*
X153263Y26039D01*
X152278Y26447D01*
X151720Y26520D01*
D02*
G37*
G36*
X150720D02*
X150163Y26447D01*
X149177Y26039D01*
X148331Y25389D01*
X147682Y24543D01*
X147274Y23558D01*
X147200Y23000D01*
X150720D01*
Y26520D01*
D02*
G37*
G36*
X130000Y32979D02*
X128624Y32843D01*
X127301Y32442D01*
X126081Y31790D01*
X125012Y30913D01*
X124135Y29844D01*
X123483Y28624D01*
X123082Y27301D01*
X122946Y25925D01*
X123082Y24549D01*
X123483Y23226D01*
X124135Y22006D01*
X125012Y20937D01*
X126081Y20060D01*
X127301Y19409D01*
X128624Y19007D01*
X130000Y18871D01*
X131376Y19007D01*
X132699Y19409D01*
X133919Y20060D01*
X134988Y20937D01*
X135865Y22006D01*
X136517Y23226D01*
X136918Y24549D01*
X137054Y25925D01*
X136918Y27301D01*
X136517Y28624D01*
X135865Y29844D01*
X134988Y30913D01*
X133919Y31790D01*
X132699Y32442D01*
X131376Y32843D01*
X130000Y32979D01*
D02*
G37*
G36*
X90000D02*
X88624Y32843D01*
X87301Y32442D01*
X86081Y31790D01*
X85012Y30913D01*
X84135Y29844D01*
X83483Y28624D01*
X83082Y27301D01*
X82946Y25925D01*
X83082Y24549D01*
X83483Y23226D01*
X84135Y22006D01*
X85012Y20937D01*
X86081Y20060D01*
X87301Y19409D01*
X88624Y19007D01*
X90000Y18871D01*
X91376Y19007D01*
X92699Y19409D01*
X93919Y20060D01*
X94988Y20937D01*
X95865Y22006D01*
X96517Y23226D01*
X96918Y24549D01*
X97054Y25925D01*
X96918Y27301D01*
X96517Y28624D01*
X95865Y29844D01*
X94988Y30913D01*
X93919Y31790D01*
X92699Y32442D01*
X91376Y32843D01*
X90000Y32979D01*
D02*
G37*
G36*
X155241Y22000D02*
X151720D01*
Y18480D01*
X152278Y18553D01*
X153263Y18961D01*
X154110Y19611D01*
X154759Y20457D01*
X155167Y21442D01*
X155241Y22000D01*
D02*
G37*
G36*
X150720D02*
X147200D01*
X147274Y21442D01*
X147682Y20457D01*
X148331Y19611D01*
X149177Y18961D01*
X150163Y18553D01*
X150720Y18480D01*
Y22000D01*
D02*
G37*
G36*
X188780Y27595D02*
X187461Y27421D01*
X186232Y26912D01*
X185177Y26103D01*
X184367Y25047D01*
X183858Y23819D01*
X183685Y22500D01*
X183858Y21181D01*
X184367Y19953D01*
X185177Y18898D01*
X186232Y18088D01*
X187461Y17579D01*
X188780Y17405D01*
X190098Y17579D01*
X191327Y18088D01*
X192382Y18898D01*
X193192Y19953D01*
X193701Y21181D01*
X193874Y22500D01*
X193701Y23819D01*
X193192Y25047D01*
X192382Y26103D01*
X191327Y26912D01*
X190098Y27421D01*
X188780Y27595D01*
D02*
G37*
G36*
X140500Y188464D02*
Y185500D01*
X143464D01*
X143410Y185914D01*
X143057Y186765D01*
X142496Y187496D01*
X141765Y188057D01*
X140914Y188410D01*
X140500Y188464D01*
D02*
G37*
G36*
X139500D02*
X139086Y188410D01*
X138235Y188057D01*
X137504Y187496D01*
X136943Y186765D01*
X136590Y185914D01*
X136536Y185500D01*
X139500D01*
Y188464D01*
D02*
G37*
G36*
X143464Y184500D02*
X140500D01*
Y181536D01*
X140914Y181590D01*
X141765Y181943D01*
X142496Y182504D01*
X143057Y183235D01*
X143410Y184086D01*
X143464Y184500D01*
D02*
G37*
G36*
X139500D02*
X136536D01*
X136590Y184086D01*
X136943Y183235D01*
X137504Y182504D01*
X138235Y181943D01*
X139086Y181590D01*
X139500Y181536D01*
Y184500D01*
D02*
G37*
G36*
X175500Y193464D02*
Y190500D01*
X178464D01*
X178410Y190914D01*
X178057Y191765D01*
X177496Y192496D01*
X176765Y193057D01*
X175914Y193410D01*
X175500Y193464D01*
D02*
G37*
G36*
X178464Y189500D02*
X175500D01*
Y186536D01*
X175914Y186590D01*
X176765Y186943D01*
X177496Y187504D01*
X178057Y188235D01*
X178410Y189086D01*
X178464Y189500D01*
D02*
G37*
G36*
X223000Y193464D02*
Y190500D01*
X225964D01*
X225910Y190914D01*
X225557Y191765D01*
X224996Y192496D01*
X224265Y193057D01*
X223414Y193410D01*
X223000Y193464D01*
D02*
G37*
G36*
X222000D02*
X221586Y193410D01*
X220735Y193057D01*
X220004Y192496D01*
X219443Y191765D01*
X219090Y190914D01*
X219036Y190500D01*
X222000D01*
Y193464D01*
D02*
G37*
G36*
X225964Y189500D02*
X223000D01*
Y186536D01*
X223414Y186590D01*
X224265Y186943D01*
X224996Y187504D01*
X225557Y188235D01*
X225910Y189086D01*
X225964Y189500D01*
D02*
G37*
G36*
X222000D02*
X219036D01*
X219090Y189086D01*
X219443Y188235D01*
X220004Y187504D01*
X220735Y186943D01*
X221586Y186590D01*
X222000Y186536D01*
Y189500D01*
D02*
G37*
G36*
X267000Y209500D02*
X264036D01*
X264090Y209086D01*
X264443Y208235D01*
X265004Y207504D01*
X265735Y206943D01*
X266586Y206590D01*
X267000Y206536D01*
Y209500D01*
D02*
G37*
G36*
X268000Y193464D02*
Y190500D01*
X270964D01*
X270910Y190914D01*
X270557Y191765D01*
X269996Y192496D01*
X269265Y193057D01*
X268414Y193410D01*
X268000Y193464D01*
D02*
G37*
G36*
X270964Y189500D02*
X268000D01*
Y186536D01*
X268414Y186590D01*
X269265Y186943D01*
X269996Y187504D01*
X270557Y188235D01*
X270910Y189086D01*
X270964Y189500D01*
D02*
G37*
G36*
X263000Y155964D02*
Y153000D01*
X265964D01*
X265910Y153414D01*
X265557Y154265D01*
X264996Y154996D01*
X264265Y155557D01*
X263414Y155910D01*
X263000Y155964D01*
D02*
G37*
G36*
X135500Y71421D02*
Y68000D01*
X138921D01*
X138851Y68532D01*
X138453Y69493D01*
X137819Y70319D01*
X136993Y70953D01*
X136032Y71351D01*
X135500Y71421D01*
D02*
G37*
G36*
X134500D02*
X133968Y71351D01*
X133007Y70953D01*
X132181Y70319D01*
X131547Y69493D01*
X131149Y68532D01*
X131079Y68000D01*
X134500D01*
Y71421D01*
D02*
G37*
G36*
X138921Y67000D02*
X135500D01*
Y63579D01*
X136032Y63649D01*
X136993Y64047D01*
X137819Y64681D01*
X138453Y65507D01*
X138851Y66468D01*
X138921Y67000D01*
D02*
G37*
G36*
X134500D02*
X131079D01*
X131149Y66468D01*
X131547Y65507D01*
X132181Y64681D01*
X133007Y64047D01*
X133968Y63649D01*
X134500Y63579D01*
Y67000D01*
D02*
G37*
G36*
X188000Y71421D02*
Y68000D01*
X191421D01*
X191351Y68532D01*
X190953Y69493D01*
X190319Y70319D01*
X189493Y70953D01*
X188532Y71351D01*
X188000Y71421D01*
D02*
G37*
G36*
X240500D02*
Y68000D01*
X243921D01*
X243851Y68532D01*
X243453Y69493D01*
X242819Y70319D01*
X241993Y70953D01*
X241032Y71351D01*
X240500Y71421D01*
D02*
G37*
G36*
X239500D02*
X238968Y71351D01*
X238007Y70953D01*
X237181Y70319D01*
X236547Y69493D01*
X236149Y68532D01*
X236079Y68000D01*
X239500D01*
Y71421D01*
D02*
G37*
G36*
X84500Y67000D02*
X81079D01*
X81149Y66468D01*
X81547Y65507D01*
X82181Y64681D01*
X83007Y64047D01*
X83968Y63649D01*
X84500Y63579D01*
Y67000D01*
D02*
G37*
G36*
X256906Y31059D02*
X254437D01*
Y28000D01*
X256906D01*
Y31059D01*
D02*
G37*
G36*
X253437D02*
X250969D01*
Y28000D01*
X253437D01*
Y31059D01*
D02*
G37*
G36*
X237161Y30369D02*
X235087D01*
Y27999D01*
X237161D01*
Y30369D01*
D02*
G37*
G36*
X234087D02*
X232012D01*
Y27999D01*
X234087D01*
Y30369D01*
D02*
G37*
G36*
X237161Y26999D02*
X235087D01*
Y24629D01*
X237161D01*
Y26999D01*
D02*
G37*
G36*
X234087D02*
X232012D01*
Y24629D01*
X234087D01*
Y26999D01*
D02*
G37*
G36*
X256906Y27000D02*
X254437D01*
Y23941D01*
X256906D01*
Y27000D01*
D02*
G37*
G36*
X253437D02*
X250969D01*
Y23941D01*
X253437D01*
Y27000D01*
D02*
G37*
G36*
X245500Y21421D02*
Y18000D01*
X248921D01*
X248851Y18532D01*
X248453Y19493D01*
X247819Y20319D01*
X246993Y20953D01*
X246032Y21351D01*
X245500Y21421D01*
D02*
G37*
G36*
X244500D02*
X243968Y21351D01*
X243007Y20953D01*
X242181Y20319D01*
X241547Y19493D01*
X241149Y18532D01*
X241079Y18000D01*
X244500D01*
Y21421D01*
D02*
G37*
%LPD*%
D13*
X108330Y176670D02*
G03*
X111473Y173527I3973J830D01*
G01*
X155373Y224084D02*
X200916D01*
X202500Y222500D01*
X139084Y224084D02*
X155373D01*
X167897Y211559D01*
X155000Y224456D02*
X155373Y224084D01*
X167897Y211559D02*
X169378D01*
X175000Y190000D02*
Y205937D01*
X169378Y211559D02*
X175000Y205937D01*
X155000Y224456D02*
Y224563D01*
X136000Y189000D02*
X140000Y185000D01*
X136000Y189000D02*
Y221000D01*
X139084Y224084D01*
X201362Y215819D02*
Y219181D01*
X197303Y207500D02*
Y211760D01*
X195000Y172500D02*
X205000D01*
X198460Y222084D02*
X201362Y219181D01*
X187500Y192500D02*
Y213437D01*
X192500Y175000D02*
X195000Y172500D01*
X192500Y212697D02*
X197303Y217500D01*
Y211760D02*
X201362Y215819D01*
X196147Y222084D02*
X198460D01*
X192500Y175000D02*
Y212697D01*
X187500Y213437D02*
X196147Y222084D01*
X167697Y217500D02*
Y217500D01*
X182500Y190000D02*
X190000Y182500D01*
X167697Y217500D02*
X182500Y202697D01*
Y190000D02*
Y202697D01*
X70000Y116203D02*
Y210544D01*
Y116203D02*
X84250Y101953D01*
X117500Y212368D02*
Y218044D01*
Y182697D02*
Y212368D01*
X22500Y120000D02*
X40000D01*
X60154Y94846D02*
X64508D01*
X57500Y97500D02*
Y201854D01*
X125197Y207500D02*
Y207500D01*
X64508Y94846D02*
X73831Y85522D01*
X47653Y212007D02*
X58146Y222500D01*
X47653Y77992D02*
Y212007D01*
X57500Y97500D02*
X60154Y94846D01*
X66161Y204847D02*
X68000Y206686D01*
X57500Y201854D02*
X60492Y204847D01*
X50646Y75000D02*
X64354D01*
X58146Y222500D02*
X60000D01*
X225000Y72500D02*
X230000Y67500D01*
X222500Y62500D02*
X271297D01*
X188703Y60000D02*
X260527D01*
X266844Y13047D02*
X268797Y15000D01*
X219453Y16750D02*
X223156Y13047D01*
X266844D01*
X271297Y62500D02*
X273797Y65000D01*
X260527Y60000D02*
X270527Y50000D01*
X181203Y67500D02*
X188703Y60000D01*
X217500Y67500D02*
X222500Y62500D01*
X267500Y190000D02*
Y210000D01*
X248918Y190000D02*
X250000D01*
X258250Y150000D02*
Y189053D01*
X239803Y207500D02*
X258250Y189053D01*
X262000Y178000D02*
Y191044D01*
X240544Y212500D02*
X262000Y191044D01*
Y178000D02*
X275000Y165000D01*
X235197Y212500D02*
X240544D01*
X258250Y150000D02*
X260164Y148086D01*
X247359Y191559D02*
X248918Y190000D01*
X210000Y30000D02*
Y36190D01*
X209453Y36737D02*
X210000Y36190D01*
Y30000D02*
X219453Y20547D01*
Y16750D02*
Y20547D01*
X268797Y15000D02*
X280000D01*
X297654Y32008D02*
X300800Y35153D01*
X294200Y24847D02*
X297654Y28300D01*
X304507Y35153D02*
X310000Y40646D01*
X300800Y35153D02*
X304507D01*
X297654Y28300D02*
Y32008D01*
X289846Y24847D02*
X294200D01*
X310000Y40646D02*
Y132500D01*
X280000Y15000D02*
X289846Y24847D01*
X209453Y36737D02*
Y48250D01*
X225000Y40295D02*
X227500Y37795D01*
X225000Y40295D02*
Y47500D01*
X270527Y50000D02*
X292500D01*
X209453Y48250D02*
X213156Y51953D01*
X227500Y27500D02*
Y37500D01*
X47653Y77992D02*
X50646Y75000D01*
X142500Y52500D02*
X162500Y72500D01*
X180000D01*
X87500Y52500D02*
X142500D01*
X97500Y185000D02*
Y206914D01*
Y149587D02*
Y185000D01*
X97000Y185500D02*
X97500Y185000D01*
X256630Y95304D02*
Y118653D01*
X253730Y111000D02*
X254000Y111270D01*
Y116657D01*
X256630Y95304D02*
X260001Y91933D01*
X257977Y120000D02*
X262023D01*
X235000Y136203D02*
X238619Y132584D01*
X241213D01*
X244927Y128870D01*
Y127257D02*
Y128870D01*
X235000Y136203D02*
Y170000D01*
X232871Y123086D02*
X233456Y122500D01*
X242230D01*
X245730Y119000D01*
X232871Y123086D02*
Y162129D01*
X245730Y119000D02*
X251657D01*
X244927Y127257D02*
X248641Y123543D01*
X251657Y119000D02*
X254000Y116657D01*
X248641Y123543D02*
X260001D01*
X227500Y167500D02*
X232871Y162129D01*
X231500Y173500D02*
X235000Y170000D01*
X226500Y173500D02*
X231500D01*
X222500Y177500D02*
X226500Y173500D01*
X230870Y145718D02*
Y157196D01*
X227500Y103390D02*
X230871Y106761D01*
X223066Y165000D02*
X230870Y157196D01*
X230871Y106761D02*
Y130108D01*
X210197Y177500D02*
X222500D01*
X229523Y131456D02*
X230871Y130108D01*
X228870Y143718D02*
X230870Y145718D01*
X227500Y182500D02*
X232500Y177500D01*
X216956Y165000D02*
X223066D01*
X222500Y190000D02*
X231754D01*
X219000Y186500D02*
X222500Y190000D01*
X214937Y186500D02*
X219000D01*
X262500Y160000D02*
X267500Y165000D01*
X262500Y152500D02*
Y160000D01*
X260164Y143957D02*
Y148086D01*
X243044Y185000D02*
X255000D01*
X256250Y183750D01*
Y135217D02*
Y183750D01*
X254250Y134389D02*
Y163250D01*
X256250Y135217D02*
X258967Y132500D01*
X240000Y177500D02*
X254250Y163250D01*
X260000Y144121D02*
X260164Y143957D01*
X254250Y134389D02*
X258575Y130064D01*
X231754Y190000D02*
X233313Y191559D01*
X247359D01*
X215941Y203441D02*
X222500Y210000D01*
X210397Y203441D02*
X215941D01*
X202500Y195544D02*
X210397Y203441D01*
X202500Y187500D02*
Y195544D01*
Y187500D02*
X206559Y183441D01*
X211878D02*
X214937Y186500D01*
X206559Y183441D02*
X211878D01*
X210197Y187500D02*
X235197Y212500D01*
X217500Y182500D02*
X227500D01*
X239803Y177500D02*
X240000D01*
X250000Y90547D02*
Y115000D01*
X241625Y82172D02*
X250000Y90547D01*
X213703Y85000D02*
X216531Y82172D01*
X207500Y85000D02*
X213703D01*
X216531Y82172D02*
X241625D01*
X202500Y73086D02*
X203086Y72500D01*
X202500Y101338D02*
X207205Y106043D01*
X202500Y73086D02*
Y101338D01*
X203086Y72500D02*
X225000D01*
X177500Y82500D02*
X180000Y85000D01*
X162500Y132500D02*
X179414D01*
X180000Y85000D02*
Y131914D01*
X182000Y74500D02*
Y132743D01*
X180000Y72500D02*
X182000Y74500D01*
X179774Y134969D02*
X182000Y132743D01*
X179414Y132500D02*
X180000Y131914D01*
X165000Y67500D02*
X181203D01*
X60492Y204847D02*
X66161D01*
X68000Y206686D02*
Y212563D01*
X80000Y224563D01*
X73831Y82371D02*
Y85522D01*
Y82371D02*
X83156Y73047D01*
X216953Y51953D02*
X220000Y55000D01*
X213156Y51953D02*
X216953D01*
X310000Y140646D02*
Y215000D01*
X304200Y134846D02*
X310000Y140646D01*
X301441Y223559D02*
X310000Y215000D01*
X295000Y214354D02*
Y217500D01*
X210197D02*
X224368D01*
X230427Y223559D01*
X233427Y221559D02*
X290941D01*
X297500Y138146D02*
Y211854D01*
X230427Y223559D02*
X301441D01*
X290941Y221559D02*
X295000Y217500D01*
Y214354D02*
X297500Y211854D01*
X227368Y215500D02*
X233427Y221559D01*
X294354Y115000D02*
X297423Y118069D01*
X299500Y133854D02*
X300493Y134846D01*
X297423Y118069D02*
Y131777D01*
X290646Y115000D02*
X294354D01*
X287653Y112007D02*
X290646Y115000D01*
X300493Y134846D02*
X304200D01*
X297423Y131777D02*
X299500Y133854D01*
X290723Y135077D02*
X294431D01*
X286607Y130961D02*
X290723Y135077D01*
X294431D02*
X297500Y138146D01*
Y77500D02*
Y111854D01*
X300493Y114847D01*
X307347Y67347D02*
Y105154D01*
X302500Y110000D02*
X307347Y105154D01*
X294847Y74847D02*
X297500Y77500D01*
X305000Y65000D02*
X307347Y67347D01*
X207205Y106043D02*
X207501D01*
X227500Y95000D02*
Y103390D01*
X217882Y107882D02*
X226425D01*
X227500Y108957D01*
X217500Y107500D02*
X217882Y107882D01*
X207501Y146043D02*
Y151768D01*
X182500Y176768D02*
X207501Y151768D01*
X182500Y176768D02*
Y182500D01*
X180000Y170000D02*
Y175197D01*
X167697Y187500D02*
X180000Y175197D01*
X185000Y162539D02*
Y165000D01*
X180000Y170000D02*
X185000Y165000D01*
X191074Y161953D02*
X191953Y161074D01*
X185000Y162539D02*
X185586Y161953D01*
X191074D01*
X191953Y145547D02*
Y161074D01*
X190000Y172500D02*
X210871Y151629D01*
X190000Y172500D02*
Y182500D01*
X260001Y104587D02*
X260296D01*
X267662Y111953D01*
X271844D01*
X273514Y110283D01*
X277217D01*
X282492Y111512D02*
X286607Y115627D01*
Y130961D01*
X277217Y110283D02*
X278446Y111512D01*
X282492D01*
X287653Y109587D02*
Y112007D01*
X280001Y101934D02*
X287653Y109587D01*
X270000Y67500D02*
X283146D01*
X290493Y74847D01*
X294847D01*
X300493Y114847D02*
X304847D01*
X302500Y130000D02*
X307347Y125154D01*
Y117347D02*
Y125154D01*
X304847Y114847D02*
X307347Y117347D01*
X273797Y65000D02*
X305000D01*
X280001Y94587D02*
Y101934D01*
X218197Y215500D02*
X227368D01*
X210197Y207500D02*
X218197Y215500D01*
X267500Y217500D02*
X280000Y205000D01*
X239803Y217500D02*
X267500D01*
X280000Y155000D02*
Y205000D01*
X277977Y151456D02*
X282023D01*
X283370Y150109D01*
X275000Y154434D02*
X277977Y151456D01*
X283370Y125718D02*
Y150109D01*
X280001Y114587D02*
Y122348D01*
X283370Y125718D01*
X275000Y154434D02*
Y165000D01*
X256630Y118653D02*
X257977Y120000D01*
X258575Y130064D02*
X259046D01*
X263371Y121347D02*
Y125740D01*
X259046Y130064D02*
X263371Y125740D01*
X262023Y120000D02*
X263371Y121347D01*
X258967Y132500D02*
X277205D01*
X260001Y84587D02*
Y91933D01*
X279705Y135000D02*
X280000D01*
X277205Y132500D02*
X279705Y135000D01*
X239803Y187500D02*
X240544D01*
X243044Y185000D01*
X162500Y170000D02*
Y209803D01*
X154803Y217500D02*
X162500Y209803D01*
X221953Y134981D02*
X225478Y131456D01*
X216203Y142500D02*
X218797D01*
X210871Y147832D02*
X216203Y142500D01*
X210871Y147832D02*
Y151629D01*
X218797Y142500D02*
X221953Y139344D01*
X225478Y131456D02*
X229523D01*
X221953Y134981D02*
Y139344D01*
X196737Y132393D02*
X204130Y125000D01*
X188797Y142500D02*
X196737Y134560D01*
Y132393D02*
Y134560D01*
X185000Y142500D02*
X188797D01*
X191953Y145547D02*
X207500Y130000D01*
X208703D01*
X205000Y172500D02*
X214500Y163000D01*
X219205D02*
X227205Y155000D01*
X214500Y163000D02*
X219205D01*
X227205Y155000D02*
X227500D01*
X197303Y187500D02*
X203303Y181500D01*
Y178653D02*
X216956Y165000D01*
X203303Y178653D02*
Y181500D01*
X228870Y136075D02*
Y143718D01*
X227500Y135000D02*
X227795D01*
X228870Y136075D01*
X208703Y130000D02*
X215656Y123047D01*
X156371Y144913D02*
X160000Y148543D01*
X155000Y207500D02*
X160000Y202500D01*
Y148543D02*
Y202500D01*
X162500Y170000D02*
X175001Y157499D01*
X227205Y116043D02*
X227501D01*
X220201Y123047D02*
X227205Y116043D01*
X215656Y123047D02*
X220201D01*
X204130Y125000D02*
X207500D01*
X178371Y149129D02*
Y166826D01*
X167697Y177500D02*
X178371Y166826D01*
Y149129D02*
X185000Y142500D01*
X175001Y153543D02*
Y157499D01*
X154803Y207500D02*
X155000D01*
X75000Y121203D02*
Y209803D01*
Y121203D02*
X84250Y111953D01*
X75000Y209803D02*
X82697Y217500D01*
X70000Y210544D02*
X81956Y222500D01*
X80000Y224563D02*
X113809D01*
X78547Y199091D02*
X82697Y203240D01*
X78547Y127656D02*
Y199091D01*
Y127656D02*
X83156Y123047D01*
X80547Y145656D02*
X83703Y142500D01*
X80547Y145656D02*
Y161074D01*
X82697Y163224D01*
X140000Y206563D02*
Y217500D01*
X108244Y176756D02*
X108330Y176670D01*
X111473Y173527D02*
X130000Y155000D01*
X108244Y176756D02*
Y179181D01*
X125197Y217500D02*
X129256Y213441D01*
X119500Y213197D02*
Y218872D01*
X121138Y173862D02*
Y199181D01*
X81956Y222500D02*
X113044D01*
X129256Y205819D02*
Y213441D01*
X121138Y199181D02*
X124456Y202500D01*
X125937D02*
X129256Y205819D01*
X124456Y202500D02*
X125937D01*
X113044Y222500D02*
X117500Y218044D01*
X119500Y213197D02*
X125197Y207500D01*
X113809Y224563D02*
X119500Y218872D01*
X84250Y101953D02*
X87339D01*
X140000Y206563D02*
X154803Y191760D01*
Y187500D02*
Y191760D01*
X83156Y73047D02*
X85750D01*
X92172Y62828D02*
Y66625D01*
Y62828D02*
X97500Y57500D01*
X85750Y73047D02*
X92172Y66625D01*
X64354Y75000D02*
X66854Y72500D01*
X67500D02*
X87500Y52500D01*
X66854Y72500D02*
X67500D01*
X140000Y57500D02*
X150000Y67500D01*
X97500Y57500D02*
X140000D01*
X150000Y67500D02*
Y98838D01*
X154705Y103543D02*
X155001D01*
X150000Y98838D02*
X154705Y103543D01*
X140000Y122500D02*
X155000Y107500D01*
X140000Y122500D02*
Y160527D01*
X125855Y177500D02*
X142500Y160855D01*
X145000Y137500D02*
X154078Y128422D01*
X142500Y132500D02*
X150000Y125000D01*
X155000D01*
X145000Y137500D02*
Y163437D01*
X154078Y128422D02*
X157144D01*
X125197Y177500D02*
X125855D01*
X142500Y132500D02*
Y160855D01*
X157144Y128422D02*
X162519Y123047D01*
X125197Y183240D02*
Y187500D01*
Y183240D02*
X145000Y163437D01*
X155000Y107500D02*
X158602D01*
X174705Y95000D02*
X175000D01*
X166657Y103047D02*
X174705Y95000D01*
X163055Y103047D02*
X166657D01*
X158602Y107500D02*
X163055Y103047D01*
X151630Y153736D02*
X154803Y156910D01*
Y177500D01*
X112303D02*
X117500Y182697D01*
X126371Y134914D02*
X130000Y138543D01*
X137490Y163037D02*
X140000Y160527D01*
X130000Y138543D02*
Y155000D01*
X131963Y163037D02*
X137490D01*
X121138Y173862D02*
X131963Y163037D01*
X175001Y136043D02*
X176075Y134969D01*
X179774D01*
X151630Y134260D02*
Y153736D01*
Y134260D02*
X153760Y132130D01*
X155001Y86043D02*
X155296D01*
X158839Y82500D01*
X177500D01*
X157870Y132130D02*
X159586Y130414D01*
X160414D01*
X162500Y132500D01*
X153760Y132130D02*
X157870D01*
X155001Y143543D02*
X155296D01*
X156371Y144618D01*
Y144913D01*
X165750Y123047D02*
X169453Y119344D01*
Y118221D02*
Y119344D01*
X171631Y116043D02*
X175001D01*
X169453Y118221D02*
X171631Y116043D01*
X162519Y123047D02*
X165750D01*
X104705Y84587D02*
X105001D01*
X87339Y101953D02*
X104705Y84587D01*
X125001Y133543D02*
X125296D01*
X126371Y134618D01*
Y134914D01*
X112303Y183240D02*
Y187500D01*
X108244Y179181D02*
X112303Y183240D01*
X98086Y207500D02*
X112303D01*
X104705Y142087D02*
X105001D01*
X103630Y143161D02*
X104705Y142087D01*
X103630Y143161D02*
Y143457D01*
X97500Y149587D02*
X103630Y143457D01*
X97500Y206914D02*
X98086Y207500D01*
X123926Y152469D02*
X125001Y153543D01*
X113671Y152469D02*
X123926D01*
X110547Y140547D02*
Y149344D01*
X106554Y139012D02*
X107369Y138197D01*
X110547Y149344D02*
X113671Y152469D01*
X108197Y138197D02*
X110547Y140547D01*
X107369Y138197D02*
X108197D01*
X95000Y145000D02*
X100988Y139012D01*
X106554D01*
X95000Y210000D02*
X102500Y217500D01*
X95000Y145000D02*
Y210000D01*
X102500Y217500D02*
X112303D01*
X84250Y111953D02*
X86844D01*
X110419Y101953D02*
X116844D01*
X108935Y100469D02*
X110419Y101953D01*
X120237Y98011D02*
X124705Y93543D01*
X120237Y98011D02*
Y98560D01*
X86844Y111953D02*
X98329Y100469D01*
X124705Y93543D02*
X125001D01*
X116844Y101953D02*
X120237Y98560D01*
X98329Y100469D02*
X108935D01*
X82697Y183240D02*
X92997Y172941D01*
Y141437D02*
Y172941D01*
Y141437D02*
X111387Y123047D01*
X82697Y183240D02*
Y187500D01*
X83156Y123047D02*
X85750D01*
X82697Y203240D02*
Y207500D01*
X85750Y123047D02*
X103630Y105167D01*
Y104618D02*
Y105167D01*
Y104618D02*
X104705Y103543D01*
X105001D01*
X86297Y142500D02*
X103630Y125167D01*
X83703Y142500D02*
X86297D01*
X103630Y124618D02*
Y125167D01*
X82697Y163224D02*
Y177500D01*
X103630Y124618D02*
X104705Y123543D01*
X111387Y123047D02*
X115750D01*
X123630Y115167D01*
Y114618D02*
Y115167D01*
Y114618D02*
X124705Y113543D01*
X125001D01*
X104705Y123543D02*
X105001D01*
X227500Y37500D02*
Y37795D01*
X253543Y37500D02*
X254618Y38575D01*
Y47118D01*
X255000Y47500D01*
X270000Y147500D02*
X279586D01*
X279999Y147913D01*
X260793Y137500D02*
X270000D01*
X260163Y136870D02*
X260793Y137500D01*
X270000Y127500D02*
X279586D01*
X279999Y127913D01*
X261043Y117500D02*
X270000D01*
X260000Y116457D02*
X261043Y117500D01*
X270000Y107500D02*
X280000D01*
X260000Y97500D02*
X270000D01*
Y87500D02*
X280000D01*
X260000Y77500D02*
X270000D01*
X207913D02*
X217500D01*
X207499Y77913D02*
X207913Y77500D01*
X227086Y87500D02*
X227499Y87913D01*
X217500Y87500D02*
X227086D01*
X207500Y98957D02*
X208575Y97882D01*
X217118D01*
X217500Y97500D01*
X207499Y117913D02*
X207913Y117500D01*
X217500D01*
X227086Y127500D02*
X227499Y127913D01*
X217500Y127500D02*
X227086D01*
X217500Y147500D02*
X227086D01*
X227499Y147913D01*
X207500Y138957D02*
X208575Y137882D01*
X217118D01*
X217500Y137500D01*
X165000Y147500D02*
X173957D01*
X175000Y146457D01*
X156043Y137500D02*
X165000D01*
X155000Y136457D02*
X156043Y137500D01*
X165000Y127500D02*
X165382Y127882D01*
X173925D01*
X175000Y128957D01*
X155413Y117500D02*
X165000D01*
X154999Y117913D02*
X155413Y117500D01*
X165000Y107500D02*
X165382Y107882D01*
X173925D01*
X175000Y108957D01*
X156043Y97500D02*
X165000D01*
X155000Y96457D02*
X156043Y97500D01*
X165000Y87500D02*
X174586D01*
X174999Y87913D01*
X164618Y77882D02*
X165000Y77500D01*
X156075Y77882D02*
X164618D01*
X155000Y78957D02*
X156075Y77882D01*
X105000Y77500D02*
X115000D01*
Y87500D02*
X123957D01*
X125000Y86457D01*
X106043Y97500D02*
X115000D01*
X105000Y96457D02*
X106043Y97500D01*
X115000Y107500D02*
X123957D01*
X125000Y106457D01*
X106043Y117500D02*
X115000D01*
X105000Y116457D02*
X106043Y117500D01*
X115000Y127500D02*
X123957D01*
X125000Y126457D01*
X105000Y135000D02*
X111203D01*
X113703Y137500D01*
X115000D01*
X123957Y147500D02*
X125000Y146457D01*
X115000Y147500D02*
X123957D01*
X338498Y135000D02*
X332500D01*
Y137999D01*
X333500Y138999D01*
X334499D01*
X335499Y137999D01*
Y135000D01*
Y137999D01*
X336499Y138999D01*
X337498D01*
X338498Y137999D01*
Y135000D01*
X336499Y141998D02*
Y143997D01*
X335499Y144997D01*
X332500D01*
Y141998D01*
X333500Y140998D01*
X334499Y141998D01*
Y144997D01*
X332500Y146996D02*
X336499D01*
Y149995D01*
X335499Y150995D01*
X332500D01*
X336499Y152994D02*
X333500D01*
X332500Y153994D01*
Y156993D01*
X331500D01*
X330501Y155993D01*
Y154993D01*
X332500Y156993D02*
X336499D01*
X332500Y158992D02*
Y160992D01*
Y159992D01*
X336499D01*
Y158992D01*
X332500Y169989D02*
X338498D01*
X336499Y171988D01*
X338498Y173987D01*
X332500D01*
X336499Y176986D02*
Y178986D01*
X335499Y179985D01*
X332500D01*
Y176986D01*
X333500Y175987D01*
X334499Y176986D01*
Y179985D01*
X337498Y182984D02*
X336499D01*
Y181985D01*
Y183984D01*
Y182984D01*
X333500D01*
X332500Y183984D01*
Y189982D02*
Y187983D01*
X333500Y186983D01*
X335499D01*
X336499Y187983D01*
Y189982D01*
X335499Y190982D01*
X334499D01*
Y186983D01*
D35*
X280001Y94587D02*
D03*
X105001Y84587D02*
D03*
X105000Y77500D02*
D03*
X125001Y93543D02*
D03*
X125000Y86457D02*
D03*
X105001Y103543D02*
D03*
X105000Y96457D02*
D03*
X125001Y113543D02*
D03*
X125000Y106457D02*
D03*
X105001Y123543D02*
D03*
X105000Y116457D02*
D03*
X125001Y133543D02*
D03*
X125000Y126457D02*
D03*
X105001Y142087D02*
D03*
X105000Y135000D02*
D03*
X125001Y153543D02*
D03*
X125000Y146457D02*
D03*
X207500Y85000D02*
D03*
X207499Y77913D02*
D03*
X227500Y95000D02*
D03*
X227499Y87913D02*
D03*
X207501Y106043D02*
D03*
X207500Y98957D02*
D03*
X227501Y116043D02*
D03*
X227500Y108957D02*
D03*
X207500Y125000D02*
D03*
X207499Y117913D02*
D03*
X227500Y135000D02*
D03*
X227499Y127913D02*
D03*
X207501Y146043D02*
D03*
X207500Y138957D02*
D03*
X227500Y155000D02*
D03*
X227499Y147913D02*
D03*
X155001Y86043D02*
D03*
X155000Y78957D02*
D03*
X175000Y95000D02*
D03*
X174999Y87913D02*
D03*
X155001Y103543D02*
D03*
X155000Y96457D02*
D03*
X175001Y116043D02*
D03*
X175000Y108957D02*
D03*
X155000Y125000D02*
D03*
X154999Y117913D02*
D03*
X175001Y136043D02*
D03*
X175000Y128957D02*
D03*
X155001Y143543D02*
D03*
X155000Y136457D02*
D03*
X175001Y153543D02*
D03*
X175000Y146457D02*
D03*
X260001Y84587D02*
D03*
X260000Y77500D02*
D03*
X280000Y87500D02*
D03*
X260001Y104587D02*
D03*
X260000Y97500D02*
D03*
X280001Y114587D02*
D03*
X280000Y107500D02*
D03*
X260001Y123543D02*
D03*
X260000Y116457D02*
D03*
X280000Y135000D02*
D03*
X279999Y127913D02*
D03*
X260164Y143957D02*
D03*
X260163Y136870D02*
D03*
X280000Y155000D02*
D03*
X279999Y147913D02*
D03*
D38*
X253937Y27500D02*
D03*
X246063D02*
D03*
D39*
X234587Y27499D02*
D03*
X227500Y27500D02*
D03*
X246457Y37501D02*
D03*
X253543Y37500D02*
D03*
X227500D02*
D03*
X234587Y37499D02*
D03*
D40*
X246456Y37500D02*
X246457Y37501D01*
X246260Y37304D02*
X246456Y37500D01*
X246260Y27697D02*
Y37304D01*
X246063Y27500D02*
X246260Y27697D01*
X234587Y37500D02*
X246456D01*
X245000Y39252D02*
Y47500D01*
Y39252D02*
X246457Y37796D01*
Y37501D02*
Y37796D01*
X82500Y197500D02*
X82697D01*
X234587Y37499D02*
X234587Y37500D01*
D42*
X22500Y140000D02*
D03*
Y150000D02*
D03*
Y160000D02*
D03*
Y130000D02*
D03*
Y120000D02*
D03*
Y67500D02*
D03*
Y77500D02*
D03*
Y87500D02*
D03*
Y57500D02*
D03*
Y47500D02*
D03*
X335000Y87500D02*
D03*
Y97500D02*
D03*
Y107500D02*
D03*
Y77500D02*
D03*
Y67500D02*
D03*
X165000D02*
D03*
Y77500D02*
D03*
Y87500D02*
D03*
Y97500D02*
D03*
Y107500D02*
D03*
Y117500D02*
D03*
Y127500D02*
D03*
Y137500D02*
D03*
Y147500D02*
D03*
Y157500D02*
D03*
X135000Y67500D02*
D03*
Y77500D02*
D03*
Y87500D02*
D03*
Y97500D02*
D03*
Y107500D02*
D03*
Y117500D02*
D03*
Y127500D02*
D03*
Y137500D02*
D03*
Y147500D02*
D03*
X187500D02*
D03*
Y137500D02*
D03*
Y127500D02*
D03*
Y117500D02*
D03*
Y107500D02*
D03*
Y97500D02*
D03*
Y87500D02*
D03*
Y77500D02*
D03*
Y67500D02*
D03*
X217500Y157500D02*
D03*
Y147500D02*
D03*
Y137500D02*
D03*
Y127500D02*
D03*
Y117500D02*
D03*
Y107500D02*
D03*
Y97500D02*
D03*
Y87500D02*
D03*
Y77500D02*
D03*
Y67500D02*
D03*
X240000Y147500D02*
D03*
Y137500D02*
D03*
Y127500D02*
D03*
Y117500D02*
D03*
Y107500D02*
D03*
Y97500D02*
D03*
Y87500D02*
D03*
Y77500D02*
D03*
Y67500D02*
D03*
X270000Y157500D02*
D03*
Y147500D02*
D03*
Y137500D02*
D03*
Y127500D02*
D03*
Y117500D02*
D03*
Y107500D02*
D03*
Y97500D02*
D03*
Y87500D02*
D03*
Y77500D02*
D03*
Y67500D02*
D03*
X85000Y147500D02*
D03*
Y137500D02*
D03*
Y127500D02*
D03*
Y117500D02*
D03*
Y107500D02*
D03*
Y97500D02*
D03*
Y87500D02*
D03*
Y77500D02*
D03*
Y67500D02*
D03*
X115000Y157500D02*
D03*
Y147500D02*
D03*
Y137500D02*
D03*
Y127500D02*
D03*
Y117500D02*
D03*
Y107500D02*
D03*
Y97500D02*
D03*
Y87500D02*
D03*
Y77500D02*
D03*
Y67500D02*
D03*
X205000Y17500D02*
D03*
X215000D02*
D03*
X225000D02*
D03*
X235000D02*
D03*
X245000D02*
D03*
X255000D02*
D03*
X265000D02*
D03*
X205000Y47500D02*
D03*
X215000D02*
D03*
X225000D02*
D03*
X235000D02*
D03*
X245000D02*
D03*
X255000D02*
D03*
D43*
X22500Y170000D02*
D03*
Y97500D02*
D03*
X335000Y117500D02*
D03*
X265000Y47500D02*
D03*
D44*
X151220Y22500D02*
D03*
X188780D02*
D03*
D45*
X135000Y157500D02*
D03*
X187500D02*
D03*
X240000D02*
D03*
X85000D02*
D03*
D46*
X197303Y217500D02*
D03*
Y207500D02*
D03*
Y197500D02*
D03*
Y187500D02*
D03*
Y177500D02*
D03*
X167697D02*
D03*
Y187500D02*
D03*
Y197500D02*
D03*
Y207500D02*
D03*
Y217500D02*
D03*
X239803D02*
D03*
Y207500D02*
D03*
Y197500D02*
D03*
Y187500D02*
D03*
Y177500D02*
D03*
X210197D02*
D03*
Y187500D02*
D03*
Y197500D02*
D03*
Y207500D02*
D03*
Y217500D02*
D03*
X154803D02*
D03*
Y207500D02*
D03*
Y197500D02*
D03*
Y187500D02*
D03*
Y177500D02*
D03*
X125197D02*
D03*
Y187500D02*
D03*
Y197500D02*
D03*
Y207500D02*
D03*
Y217500D02*
D03*
X112303D02*
D03*
Y207500D02*
D03*
Y197500D02*
D03*
Y187500D02*
D03*
Y177500D02*
D03*
X82697D02*
D03*
Y187500D02*
D03*
Y197500D02*
D03*
Y207500D02*
D03*
Y217500D02*
D03*
D47*
X110000Y45925D02*
D03*
D48*
X120000D02*
D03*
D49*
X90000Y25925D02*
D03*
X130000D02*
D03*
D50*
X62500Y20000D02*
D03*
X52500D02*
D03*
X292500D02*
D03*
X302500D02*
D03*
X52500Y210000D02*
D03*
X62500Y200000D02*
D03*
X52500D02*
D03*
X62500Y190000D02*
D03*
X52500D02*
D03*
X62500Y180000D02*
D03*
X52500D02*
D03*
X62500Y170000D02*
D03*
X52500D02*
D03*
X62500Y160000D02*
D03*
X52500D02*
D03*
X62500Y150000D02*
D03*
X52500D02*
D03*
X62500Y140000D02*
D03*
X52500D02*
D03*
X62500Y130000D02*
D03*
X52500D02*
D03*
X62500Y120000D02*
D03*
X52500D02*
D03*
X62500Y110000D02*
D03*
X52500D02*
D03*
X62500Y100000D02*
D03*
X52500D02*
D03*
X62500Y90000D02*
D03*
X52500D02*
D03*
X62500Y80000D02*
D03*
X52500D02*
D03*
X62500Y70000D02*
D03*
X52500D02*
D03*
X62500Y60000D02*
D03*
X52500D02*
D03*
X62500Y50000D02*
D03*
X52500D02*
D03*
X62500Y40000D02*
D03*
X52500D02*
D03*
X62500Y30000D02*
D03*
X52500D02*
D03*
X292500Y210000D02*
D03*
X302500Y200000D02*
D03*
X292500D02*
D03*
X302500Y190000D02*
D03*
X292500D02*
D03*
X302500Y180000D02*
D03*
X292500D02*
D03*
X302500Y170000D02*
D03*
X292500D02*
D03*
X302500Y160000D02*
D03*
X292500D02*
D03*
X302500Y150000D02*
D03*
X292500D02*
D03*
X302500Y140000D02*
D03*
X292500D02*
D03*
X302500Y130000D02*
D03*
X292500D02*
D03*
X302500Y120000D02*
D03*
X292500D02*
D03*
X302500Y110000D02*
D03*
X292500D02*
D03*
X302500Y100000D02*
D03*
X292500D02*
D03*
X302500Y90000D02*
D03*
X292500D02*
D03*
X302500Y80000D02*
D03*
X292500D02*
D03*
X302500Y70000D02*
D03*
X292500D02*
D03*
X302500Y60000D02*
D03*
X292500D02*
D03*
X302500Y50000D02*
D03*
X292500D02*
D03*
X302500Y40000D02*
D03*
X292500D02*
D03*
X302500Y30000D02*
D03*
X292500D02*
D03*
D51*
X62500Y210000D02*
D03*
X302500D02*
D03*
D52*
X20000D02*
D03*
X335000D02*
D03*
Y20000D02*
D03*
X20000D02*
D03*
D53*
X77500Y40000D02*
D03*
X42500Y205000D02*
D03*
X175000Y190000D02*
D03*
X140000Y185000D02*
D03*
X230000Y67500D02*
D03*
X267500Y190000D02*
D03*
Y210000D02*
D03*
X250000Y190000D02*
D03*
X310000Y132500D02*
D03*
X227500Y167500D02*
D03*
X232500Y177500D02*
D03*
X222500Y190000D02*
D03*
X262500Y152500D02*
D03*
X267500Y165000D02*
D03*
X222500Y210000D02*
D03*
X60000Y222500D02*
D03*
X217500Y182500D02*
D03*
X250000Y115000D02*
D03*
X220000Y55000D02*
D03*
X182500Y182500D02*
D03*
X187500Y192500D02*
D03*
X140000Y217500D02*
D03*
M02*
