G04*
G04 #@! TF.GenerationSoftware,Altium Limited,Altium Designer,20.0.13 (296)*
G04*
G04 Layer_Color=65535*
%FSLAX25Y25*%
%MOIN*%
G70*
G01*
G75*
%ADD10C,0.02362*%
%ADD11C,0.00984*%
%ADD12C,0.00787*%
%ADD13C,0.01000*%
D10*
X144685Y161713D02*
G03*
X144685Y161713I-1181J0D01*
G01*
X197185D02*
G03*
X197185Y161713I-1181J0D01*
G01*
X249685D02*
G03*
X249685Y161713I-1181J0D01*
G01*
X94685D02*
G03*
X94685Y161713I-1181J0D01*
G01*
X271024Y38996D02*
G03*
X271024Y38996I-1181J0D01*
G01*
D11*
X135492Y162618D02*
G03*
X135492Y162618I-492J0D01*
G01*
X187992D02*
G03*
X187992Y162618I-492J0D01*
G01*
X240492D02*
G03*
X240492Y162618I-492J0D01*
G01*
X85492D02*
G03*
X85492Y162618I-492J0D01*
G01*
X120492Y57224D02*
G03*
X120492Y57224I-492J0D01*
G01*
X270610Y47500D02*
G03*
X270610Y47500I-492J0D01*
G01*
D12*
X147500Y165650D02*
G03*
X152500Y165650I2500J0D01*
G01*
X200000D02*
G03*
X205000Y165650I2500J0D01*
G01*
X252500D02*
G03*
X257500Y165650I2500J0D01*
G01*
X97500D02*
G03*
X102500Y165650I2500J0D01*
G01*
X273780Y35000D02*
G03*
X273780Y30000I0J-2500D01*
G01*
X69547Y159488D02*
X70039Y158996D01*
X74862D01*
X69547Y171100D02*
X71635D01*
X75453D01*
X69547Y159488D02*
Y171100D01*
X75453Y159587D02*
Y171100D01*
X74862Y158996D02*
X75453Y159587D01*
X75551Y172888D02*
Y174365D01*
X69449Y172888D02*
X75551D01*
X69449D02*
Y174365D01*
X75551Y184010D02*
Y185487D01*
X69449D02*
X75551D01*
X69449Y184010D02*
Y185487D01*
X75551Y174365D02*
Y184010D01*
X69449Y174365D02*
Y184010D01*
X254091Y168127D02*
Y182300D01*
X246611Y168127D02*
X254091D01*
X246611Y182300D02*
X254091D01*
X246611Y168127D02*
Y182300D01*
X231240Y154350D02*
Y168524D01*
X223760Y154350D02*
X231240D01*
X223760Y168524D02*
X231240D01*
X223760Y154350D02*
Y168524D01*
X178740Y155413D02*
Y169587D01*
X171260Y155413D02*
X178740D01*
X171260Y169587D02*
X178740D01*
X171260Y155413D02*
Y169587D01*
X128740Y155413D02*
Y169587D01*
X121260Y155413D02*
X128740D01*
X121260Y169587D02*
X128740D01*
X121260Y155413D02*
Y169587D01*
X174154Y17874D02*
Y27126D01*
X179154Y22500D02*
X184154D01*
X155846D02*
X160846D01*
Y17874D02*
Y27126D01*
X179154D01*
Y17874D02*
Y27126D01*
X160846Y17874D02*
X179154D01*
X139567Y59350D02*
X160433D01*
X152500Y165650D02*
X160433D01*
X139567D02*
X147500D01*
X160433Y59350D02*
Y165650D01*
X139567Y59350D02*
Y165650D01*
X192067Y59350D02*
Y165650D01*
X212933Y59350D02*
Y165650D01*
X192067D02*
X200000D01*
X205000D02*
X212933D01*
X192067Y59350D02*
X212933D01*
X244567D02*
Y165650D01*
X265433Y59350D02*
Y165650D01*
X244567D02*
X252500D01*
X257500D02*
X265433D01*
X244567Y59350D02*
X265433D01*
X89567D02*
Y165650D01*
X110433Y59350D02*
Y165650D01*
X89567D02*
X97500D01*
X102500D02*
X110433D01*
X89567Y59350D02*
X110433D01*
X276949Y47323D02*
Y48799D01*
X283051D01*
Y47323D02*
Y48799D01*
X276949Y36201D02*
Y37677D01*
Y36201D02*
X283051D01*
Y37677D01*
X276949D02*
Y47323D01*
X283051Y37677D02*
Y47323D01*
X81063Y-82736D02*
X138937D01*
X81063Y54665D02*
X138937D01*
X81063Y-82736D02*
Y54665D01*
X138937Y-82736D02*
Y54665D01*
X196220Y22067D02*
Y42933D01*
X273780Y22067D02*
Y30000D01*
Y35000D02*
Y42933D01*
X196220Y22067D02*
X273780D01*
X196220Y42933D02*
X273780D01*
X142913Y41260D02*
X157087D01*
X142913D02*
Y48740D01*
X157087Y41260D02*
Y48740D01*
X142913D02*
X157087D01*
X276949Y32323D02*
Y33799D01*
X283051D01*
Y32323D02*
Y33799D01*
X276949Y21201D02*
Y22677D01*
Y21201D02*
X283051D01*
Y22677D01*
X276949D02*
Y32323D01*
X283051Y22677D02*
Y32323D01*
X189823Y38051D02*
X191299D01*
Y31949D02*
Y38051D01*
X189823Y31949D02*
X191299D01*
X178701Y38051D02*
X180177D01*
X178701Y31949D02*
Y38051D01*
Y31949D02*
X180177D01*
Y38051D02*
X189823D01*
X180177Y31949D02*
X189823D01*
X143701D02*
X145177D01*
X143701D02*
Y38051D01*
X145177D01*
X154823Y31949D02*
X156299D01*
Y38051D01*
X154823D02*
X156299D01*
X145177Y31949D02*
X154823D01*
X145177Y38051D02*
X154823D01*
X234744Y51949D02*
X236220D01*
X234744D02*
Y58051D01*
X236220D01*
X245866Y51949D02*
X247343D01*
Y58051D01*
X245866D02*
X247343D01*
X236220Y51949D02*
X245866D01*
X236220Y58051D02*
X245866D01*
D13*
X272815Y197500D02*
G03*
X272815Y197500I-5315J0D01*
G01*
X32500Y115000D02*
Y175000D01*
X9500D02*
X32500D01*
X9500Y115000D02*
Y175000D01*
Y115000D02*
X32500D01*
Y42500D02*
Y102500D01*
X9500D02*
X32500D01*
X9500Y42500D02*
Y102500D01*
Y42500D02*
X32500D01*
X345000Y62500D02*
Y122500D01*
X322000D02*
X345000D01*
X322000Y62500D02*
Y122500D01*
Y62500D02*
X345000D01*
X257000Y187500D02*
Y207500D01*
Y187500D02*
X278000D01*
Y207500D01*
X257000D02*
X278000D01*
X162815Y223091D02*
X202185D01*
Y171909D02*
Y223091D01*
X162815Y171909D02*
X202185D01*
X162815D02*
Y223091D01*
X205315D02*
X244685D01*
Y171909D02*
Y223091D01*
X205315Y171909D02*
X244685D01*
X205315D02*
Y223091D01*
X120315D02*
X159685D01*
Y171909D02*
Y223091D01*
X120315Y171909D02*
X159685D01*
X120315D02*
Y223091D01*
X77815D02*
X117185D01*
Y171909D02*
Y223091D01*
X77815Y171909D02*
X117185D01*
X77815D02*
Y223091D01*
X322500Y126000D02*
Y131998D01*
X325499D01*
X326499Y130998D01*
Y128999D01*
X325499Y127999D01*
X322500D01*
X328498Y130998D02*
X329498Y131998D01*
X331497D01*
X332497Y130998D01*
Y129999D01*
X331497Y128999D01*
X330497D01*
X331497D01*
X332497Y127999D01*
Y127000D01*
X331497Y126000D01*
X329498D01*
X328498Y127000D01*
X10000Y106000D02*
Y111998D01*
X12999D01*
X13999Y110998D01*
Y108999D01*
X12999Y107999D01*
X10000D01*
X19997Y106000D02*
X15998D01*
X19997Y109999D01*
Y110998D01*
X18997Y111998D01*
X16998D01*
X15998Y110998D01*
X10000Y178500D02*
Y184498D01*
X12999D01*
X13999Y183498D01*
Y181499D01*
X12999Y180499D01*
X10000D01*
X15998Y178500D02*
X17997D01*
X16998D01*
Y184498D01*
X15998Y183498D01*
X70099Y188831D02*
Y194829D01*
X73098D01*
X74098Y193829D01*
Y191830D01*
X73098Y190830D01*
X70099D01*
X72099D02*
X74098Y188831D01*
X79096D02*
Y194829D01*
X76097Y191830D01*
X80096D01*
X82095Y188831D02*
X84095D01*
X83095D01*
Y194829D01*
X82095Y193829D01*
X70200Y180498D02*
Y174500D01*
X73199D01*
X74199Y175500D01*
Y179498D01*
X73199Y180498D01*
X70200D01*
X80197Y174500D02*
X76198D01*
X80197Y178499D01*
Y179498D01*
X79197Y180498D01*
X77198D01*
X76198Y179498D01*
X127901Y147002D02*
X128901Y146002D01*
X130900D01*
X131900Y147002D01*
Y151000D01*
X130900Y152000D01*
X128901D01*
X127901Y151000D01*
X121903Y146002D02*
X125902D01*
Y149001D01*
X123903Y148001D01*
X122903D01*
X121903Y149001D01*
Y151000D01*
X122903Y152000D01*
X124902D01*
X125902Y151000D01*
X177901Y147002D02*
X178901Y146002D01*
X180900D01*
X181900Y147002D01*
Y151000D01*
X180900Y152000D01*
X178901D01*
X177901Y151000D01*
X172903Y152000D02*
Y146002D01*
X175902Y149001D01*
X171903D01*
X230386Y145998D02*
X231386Y144998D01*
X233385D01*
X234385Y145998D01*
Y149997D01*
X233385Y150996D01*
X231386D01*
X230386Y149997D01*
X228386Y145998D02*
X227387Y144998D01*
X225388D01*
X224388Y145998D01*
Y146998D01*
X225388Y147997D01*
X226387D01*
X225388D01*
X224388Y148997D01*
Y149997D01*
X225388Y150996D01*
X227387D01*
X228386Y149997D01*
X253252Y159715D02*
X254252Y158715D01*
X256251D01*
X257251Y159715D01*
Y163714D01*
X256251Y164714D01*
X254252D01*
X253252Y163714D01*
X247254Y164714D02*
X251253D01*
X247254Y160715D01*
Y159715D01*
X248254Y158715D01*
X250253D01*
X251253Y159715D01*
X196100Y60698D02*
Y55700D01*
X197100Y54700D01*
X199099D01*
X200099Y55700D01*
Y60698D01*
X206097D02*
X204097Y59698D01*
X202098Y57699D01*
Y55700D01*
X203098Y54700D01*
X205097D01*
X206097Y55700D01*
Y56699D01*
X205097Y57699D01*
X202098D01*
X81850Y175748D02*
Y170750D01*
X82850Y169750D01*
X84849D01*
X85849Y170750D01*
Y175748D01*
X91847D02*
X87848D01*
Y172749D01*
X89847Y173749D01*
X90847D01*
X91847Y172749D01*
Y170750D01*
X90847Y169750D01*
X88848D01*
X87848Y170750D01*
X131850Y175748D02*
Y170750D01*
X132850Y169750D01*
X134849D01*
X135849Y170750D01*
Y175748D01*
X140847Y169750D02*
Y175748D01*
X137848Y172749D01*
X141847D01*
X184350Y175748D02*
Y170750D01*
X185350Y169750D01*
X187349D01*
X188349Y170750D01*
Y175748D01*
X190348Y174748D02*
X191348Y175748D01*
X193347D01*
X194347Y174748D01*
Y173749D01*
X193347Y172749D01*
X192347D01*
X193347D01*
X194347Y171749D01*
Y170750D01*
X193347Y169750D01*
X191348D01*
X190348Y170750D01*
X236850Y175748D02*
Y170750D01*
X237850Y169750D01*
X239849D01*
X240849Y170750D01*
Y175748D01*
X246847Y169750D02*
X242848D01*
X246847Y173749D01*
Y174748D01*
X245847Y175748D01*
X243848D01*
X242848Y174748D01*
X235343Y61400D02*
Y67398D01*
X238342D01*
X239342Y66398D01*
Y64399D01*
X238342Y63399D01*
X235343D01*
X237343D02*
X239342Y61400D01*
X241341Y66398D02*
X242341Y67398D01*
X244340D01*
X245340Y66398D01*
Y65399D01*
X244340Y64399D01*
X243341D01*
X244340D01*
X245340Y63399D01*
Y62400D01*
X244340Y61400D01*
X242341D01*
X241341Y62400D01*
X247339D02*
X248339Y61400D01*
X250339D01*
X251338Y62400D01*
Y66398D01*
X250339Y67398D01*
X248339D01*
X247339Y66398D01*
Y65399D01*
X248339Y64399D01*
X251338D01*
X144300Y41400D02*
Y47398D01*
X147299D01*
X148299Y46398D01*
Y44399D01*
X147299Y43399D01*
X144300D01*
X146299D02*
X148299Y41400D01*
X150298Y46398D02*
X151298Y47398D01*
X153297D01*
X154297Y46398D01*
Y45399D01*
X153297Y44399D01*
X152297D01*
X153297D01*
X154297Y43399D01*
Y42400D01*
X153297Y41400D01*
X151298D01*
X150298Y42400D01*
X156296Y46398D02*
X157296Y47398D01*
X159295D01*
X160295Y46398D01*
Y45399D01*
X159295Y44399D01*
X160295Y43399D01*
Y42400D01*
X159295Y41400D01*
X157296D01*
X156296Y42400D01*
Y43399D01*
X157296Y44399D01*
X156296Y45399D01*
Y46398D01*
X157296Y44399D02*
X159295D01*
X277600Y37200D02*
Y43198D01*
X280599D01*
X281599Y42198D01*
Y40199D01*
X280599Y39199D01*
X277600D01*
X279599D02*
X281599Y37200D01*
X283598Y42198D02*
X284598Y43198D01*
X286597D01*
X287597Y42198D01*
Y41199D01*
X286597Y40199D01*
X285597D01*
X286597D01*
X287597Y39199D01*
Y38200D01*
X286597Y37200D01*
X284598D01*
X283598Y38200D01*
X289596Y43198D02*
X293595D01*
Y42198D01*
X289596Y38200D01*
Y37200D01*
X179300Y41400D02*
Y47398D01*
X182299D01*
X183299Y46398D01*
Y44399D01*
X182299Y43399D01*
X179300D01*
X181299D02*
X183299Y41400D01*
X185298Y46398D02*
X186298Y47398D01*
X188297D01*
X189297Y46398D01*
Y45399D01*
X188297Y44399D01*
X187297D01*
X188297D01*
X189297Y43399D01*
Y42400D01*
X188297Y41400D01*
X186298D01*
X185298Y42400D01*
X195295Y47398D02*
X193296Y46398D01*
X191296Y44399D01*
Y42400D01*
X192296Y41400D01*
X194295D01*
X195295Y42400D01*
Y43399D01*
X194295Y44399D01*
X191296D01*
X277601Y52157D02*
Y58155D01*
X280600D01*
X281599Y57155D01*
Y55156D01*
X280600Y54156D01*
X277601D01*
X279600D02*
X281599Y52157D01*
X283599Y57155D02*
X284598Y58155D01*
X286598D01*
X287597Y57155D01*
Y56155D01*
X286598Y55156D01*
X285598D01*
X286598D01*
X287597Y54156D01*
Y53156D01*
X286598Y52157D01*
X284598D01*
X283599Y53156D01*
X289597Y57155D02*
X290597Y58155D01*
X292596D01*
X293596Y57155D01*
Y56155D01*
X292596Y55156D01*
X291596D01*
X292596D01*
X293596Y54156D01*
Y53156D01*
X292596Y52157D01*
X290597D01*
X289597Y53156D01*
X85599Y67223D02*
X83599D01*
X84599D01*
Y62225D01*
X83599Y61225D01*
X82600D01*
X81600Y62225D01*
X87598Y61225D02*
X89597D01*
X88598D01*
Y67223D01*
X87598Y66224D01*
X78350Y232548D02*
Y226550D01*
X81349D01*
X82349Y227550D01*
Y231548D01*
X81349Y232548D01*
X78350D01*
X88347Y231548D02*
X87347Y232548D01*
X85348D01*
X84348Y231548D01*
Y230549D01*
X85348Y229549D01*
X87347D01*
X88347Y228549D01*
Y227550D01*
X87347Y226550D01*
X85348D01*
X84348Y227550D01*
X93345Y226550D02*
Y232548D01*
X90346Y229549D01*
X94345D01*
X120850Y232548D02*
Y226550D01*
X123849D01*
X124849Y227550D01*
Y231548D01*
X123849Y232548D01*
X120850D01*
X130847Y231548D02*
X129847Y232548D01*
X127848D01*
X126848Y231548D01*
Y230549D01*
X127848Y229549D01*
X129847D01*
X130847Y228549D01*
Y227550D01*
X129847Y226550D01*
X127848D01*
X126848Y227550D01*
X132846Y231548D02*
X133846Y232548D01*
X135845D01*
X136845Y231548D01*
Y230549D01*
X135845Y229549D01*
X134845D01*
X135845D01*
X136845Y228549D01*
Y227550D01*
X135845Y226550D01*
X133846D01*
X132846Y227550D01*
X163350Y232548D02*
Y226550D01*
X166349D01*
X167349Y227550D01*
Y231548D01*
X166349Y232548D01*
X163350D01*
X173347Y231548D02*
X172347Y232548D01*
X170348D01*
X169348Y231548D01*
Y230549D01*
X170348Y229549D01*
X172347D01*
X173347Y228549D01*
Y227550D01*
X172347Y226550D01*
X170348D01*
X169348Y227550D01*
X179345Y226550D02*
X175346D01*
X179345Y230549D01*
Y231548D01*
X178345Y232548D01*
X176346D01*
X175346Y231548D01*
X205850Y232548D02*
Y226550D01*
X208849D01*
X209849Y227550D01*
Y231548D01*
X208849Y232548D01*
X205850D01*
X215847Y231548D02*
X214847Y232548D01*
X212848D01*
X211848Y231548D01*
Y230549D01*
X212848Y229549D01*
X214847D01*
X215847Y228549D01*
Y227550D01*
X214847Y226550D01*
X212848D01*
X211848Y227550D01*
X217846Y226550D02*
X219846D01*
X218846D01*
Y232548D01*
X217846Y231548D01*
X161001Y35499D02*
Y29501D01*
X164000D01*
X165000Y30501D01*
Y34499D01*
X164000Y35499D01*
X161001D01*
X166999Y29501D02*
X168999D01*
X167999D01*
Y35499D01*
X166999Y34499D01*
X147549Y57148D02*
X146549Y58148D01*
X144550D01*
X143550Y57148D01*
Y53150D01*
X144550Y52150D01*
X146549D01*
X147549Y53150D01*
X153547Y58148D02*
X151547Y57148D01*
X149548Y55149D01*
Y53150D01*
X150548Y52150D01*
X152547D01*
X153547Y53150D01*
Y54149D01*
X152547Y55149D01*
X149548D01*
X256500Y228898D02*
Y222900D01*
X259499D01*
X260499Y223900D01*
Y224899D01*
X259499Y225899D01*
X256500D01*
X259499D01*
X260499Y226899D01*
Y227898D01*
X259499Y228898D01*
X256500D01*
X262498Y222900D02*
X264497D01*
X263498D01*
Y228898D01*
X262498Y227898D01*
M02*
