G04*
G04 #@! TF.GenerationSoftware,Altium Limited,Altium Designer,20.0.13 (296)*
G04*
G04 Layer_Color=16711935*
%FSLAX25Y25*%
%MOIN*%
G70*
G01*
G75*
%ADD16R,0.04540X0.03950*%
%ADD19R,0.04737X0.05918*%
%ADD20R,0.03950X0.04540*%
%ADD21C,0.06706*%
%ADD22R,0.06706X0.06706*%
%ADD23C,0.06902*%
%ADD24R,0.06706X0.06706*%
%ADD25C,0.05918*%
%ADD26C,0.06312*%
%ADD27R,0.06312X0.06312*%
%ADD28C,0.10839*%
%ADD29C,0.07493*%
%ADD30R,0.07493X0.07493*%
%ADD31C,0.24422*%
%ADD32C,0.05800*%
D16*
X280001Y94587D02*
D03*
X105001Y84587D02*
D03*
X105000Y77500D02*
D03*
X125001Y93543D02*
D03*
X125000Y86457D02*
D03*
X105001Y103543D02*
D03*
X105000Y96457D02*
D03*
X125001Y113543D02*
D03*
X125000Y106457D02*
D03*
X105001Y123543D02*
D03*
X105000Y116457D02*
D03*
X125001Y133543D02*
D03*
X125000Y126457D02*
D03*
X105001Y142087D02*
D03*
X105000Y135000D02*
D03*
X125001Y153543D02*
D03*
X125000Y146457D02*
D03*
X207500Y85000D02*
D03*
X207499Y77913D02*
D03*
X227500Y95000D02*
D03*
X227499Y87913D02*
D03*
X207501Y106043D02*
D03*
X207500Y98957D02*
D03*
X227501Y116043D02*
D03*
X227500Y108957D02*
D03*
X207500Y125000D02*
D03*
X207499Y117913D02*
D03*
X227500Y135000D02*
D03*
X227499Y127913D02*
D03*
X207501Y146043D02*
D03*
X207500Y138957D02*
D03*
X227500Y155000D02*
D03*
X227499Y147913D02*
D03*
X155001Y86043D02*
D03*
X155000Y78957D02*
D03*
X175000Y95000D02*
D03*
X174999Y87913D02*
D03*
X155001Y103543D02*
D03*
X155000Y96457D02*
D03*
X175001Y116043D02*
D03*
X175000Y108957D02*
D03*
X155000Y125000D02*
D03*
X154999Y117913D02*
D03*
X175001Y136043D02*
D03*
X175000Y128957D02*
D03*
X155001Y143543D02*
D03*
X155000Y136457D02*
D03*
X175001Y153543D02*
D03*
X175000Y146457D02*
D03*
X260001Y84587D02*
D03*
X260000Y77500D02*
D03*
X280000Y87500D02*
D03*
X260001Y104587D02*
D03*
X260000Y97500D02*
D03*
X280001Y114587D02*
D03*
X280000Y107500D02*
D03*
X260001Y123543D02*
D03*
X260000Y116457D02*
D03*
X280000Y135000D02*
D03*
X279999Y127913D02*
D03*
X260164Y143957D02*
D03*
X260163Y136870D02*
D03*
X280000Y155000D02*
D03*
X279999Y147913D02*
D03*
D19*
X253937Y27500D02*
D03*
X246063D02*
D03*
D20*
X234587Y27499D02*
D03*
X227500Y27500D02*
D03*
X246457Y37501D02*
D03*
X253543Y37500D02*
D03*
X227500D02*
D03*
X234587Y37499D02*
D03*
D21*
X22500Y140000D02*
D03*
Y150000D02*
D03*
Y160000D02*
D03*
Y130000D02*
D03*
Y120000D02*
D03*
Y67500D02*
D03*
Y77500D02*
D03*
Y87500D02*
D03*
Y57500D02*
D03*
Y47500D02*
D03*
X335000Y87500D02*
D03*
Y97500D02*
D03*
Y107500D02*
D03*
Y77500D02*
D03*
Y67500D02*
D03*
X165000D02*
D03*
Y77500D02*
D03*
Y87500D02*
D03*
Y97500D02*
D03*
Y107500D02*
D03*
Y117500D02*
D03*
Y127500D02*
D03*
Y137500D02*
D03*
Y147500D02*
D03*
Y157500D02*
D03*
X135000Y67500D02*
D03*
Y77500D02*
D03*
Y87500D02*
D03*
Y97500D02*
D03*
Y107500D02*
D03*
Y117500D02*
D03*
Y127500D02*
D03*
Y137500D02*
D03*
Y147500D02*
D03*
X187500D02*
D03*
Y137500D02*
D03*
Y127500D02*
D03*
Y117500D02*
D03*
Y107500D02*
D03*
Y97500D02*
D03*
Y87500D02*
D03*
Y77500D02*
D03*
Y67500D02*
D03*
X217500Y157500D02*
D03*
Y147500D02*
D03*
Y137500D02*
D03*
Y127500D02*
D03*
Y117500D02*
D03*
Y107500D02*
D03*
Y97500D02*
D03*
Y87500D02*
D03*
Y77500D02*
D03*
Y67500D02*
D03*
X240000Y147500D02*
D03*
Y137500D02*
D03*
Y127500D02*
D03*
Y117500D02*
D03*
Y107500D02*
D03*
Y97500D02*
D03*
Y87500D02*
D03*
Y77500D02*
D03*
Y67500D02*
D03*
X270000Y157500D02*
D03*
Y147500D02*
D03*
Y137500D02*
D03*
Y127500D02*
D03*
Y117500D02*
D03*
Y107500D02*
D03*
Y97500D02*
D03*
Y87500D02*
D03*
Y77500D02*
D03*
Y67500D02*
D03*
X85000Y147500D02*
D03*
Y137500D02*
D03*
Y127500D02*
D03*
Y117500D02*
D03*
Y107500D02*
D03*
Y97500D02*
D03*
Y87500D02*
D03*
Y77500D02*
D03*
Y67500D02*
D03*
X115000Y157500D02*
D03*
Y147500D02*
D03*
Y137500D02*
D03*
Y127500D02*
D03*
Y117500D02*
D03*
Y107500D02*
D03*
Y97500D02*
D03*
Y87500D02*
D03*
Y77500D02*
D03*
Y67500D02*
D03*
X205000Y17500D02*
D03*
X215000D02*
D03*
X225000D02*
D03*
X235000D02*
D03*
X245000D02*
D03*
X255000D02*
D03*
X265000D02*
D03*
X205000Y47500D02*
D03*
X215000D02*
D03*
X225000D02*
D03*
X235000D02*
D03*
X245000D02*
D03*
X255000D02*
D03*
D22*
X22500Y170000D02*
D03*
Y97500D02*
D03*
X335000Y117500D02*
D03*
X265000Y47500D02*
D03*
D23*
X151220Y22500D02*
D03*
X188780D02*
D03*
D24*
X135000Y157500D02*
D03*
X187500D02*
D03*
X240000D02*
D03*
X85000D02*
D03*
D25*
X197303Y217500D02*
D03*
Y207500D02*
D03*
Y197500D02*
D03*
Y187500D02*
D03*
Y177500D02*
D03*
X167697D02*
D03*
Y187500D02*
D03*
Y197500D02*
D03*
Y207500D02*
D03*
Y217500D02*
D03*
X239803D02*
D03*
Y207500D02*
D03*
Y197500D02*
D03*
Y187500D02*
D03*
Y177500D02*
D03*
X210197D02*
D03*
Y187500D02*
D03*
Y197500D02*
D03*
Y207500D02*
D03*
Y217500D02*
D03*
X154803D02*
D03*
Y207500D02*
D03*
Y197500D02*
D03*
Y187500D02*
D03*
Y177500D02*
D03*
X125197D02*
D03*
Y187500D02*
D03*
Y197500D02*
D03*
Y207500D02*
D03*
Y217500D02*
D03*
X112303D02*
D03*
Y207500D02*
D03*
Y197500D02*
D03*
Y187500D02*
D03*
Y177500D02*
D03*
X82697D02*
D03*
Y187500D02*
D03*
Y197500D02*
D03*
Y207500D02*
D03*
Y217500D02*
D03*
D26*
X110000Y45925D02*
D03*
D27*
X120000D02*
D03*
D28*
X90000Y25925D02*
D03*
X130000D02*
D03*
D29*
X62500Y20000D02*
D03*
X52500D02*
D03*
X292500D02*
D03*
X302500D02*
D03*
X52500Y210000D02*
D03*
X62500Y200000D02*
D03*
X52500D02*
D03*
X62500Y190000D02*
D03*
X52500D02*
D03*
X62500Y180000D02*
D03*
X52500D02*
D03*
X62500Y170000D02*
D03*
X52500D02*
D03*
X62500Y160000D02*
D03*
X52500D02*
D03*
X62500Y150000D02*
D03*
X52500D02*
D03*
X62500Y140000D02*
D03*
X52500D02*
D03*
X62500Y130000D02*
D03*
X52500D02*
D03*
X62500Y120000D02*
D03*
X52500D02*
D03*
X62500Y110000D02*
D03*
X52500D02*
D03*
X62500Y100000D02*
D03*
X52500D02*
D03*
X62500Y90000D02*
D03*
X52500D02*
D03*
X62500Y80000D02*
D03*
X52500D02*
D03*
X62500Y70000D02*
D03*
X52500D02*
D03*
X62500Y60000D02*
D03*
X52500D02*
D03*
X62500Y50000D02*
D03*
X52500D02*
D03*
X62500Y40000D02*
D03*
X52500D02*
D03*
X62500Y30000D02*
D03*
X52500D02*
D03*
X292500Y210000D02*
D03*
X302500Y200000D02*
D03*
X292500D02*
D03*
X302500Y190000D02*
D03*
X292500D02*
D03*
X302500Y180000D02*
D03*
X292500D02*
D03*
X302500Y170000D02*
D03*
X292500D02*
D03*
X302500Y160000D02*
D03*
X292500D02*
D03*
X302500Y150000D02*
D03*
X292500D02*
D03*
X302500Y140000D02*
D03*
X292500D02*
D03*
X302500Y130000D02*
D03*
X292500D02*
D03*
X302500Y120000D02*
D03*
X292500D02*
D03*
X302500Y110000D02*
D03*
X292500D02*
D03*
X302500Y100000D02*
D03*
X292500D02*
D03*
X302500Y90000D02*
D03*
X292500D02*
D03*
X302500Y80000D02*
D03*
X292500D02*
D03*
X302500Y70000D02*
D03*
X292500D02*
D03*
X302500Y60000D02*
D03*
X292500D02*
D03*
X302500Y50000D02*
D03*
X292500D02*
D03*
X302500Y40000D02*
D03*
X292500D02*
D03*
X302500Y30000D02*
D03*
X292500D02*
D03*
D30*
X62500Y210000D02*
D03*
X302500D02*
D03*
D31*
X20000D02*
D03*
X335000D02*
D03*
Y20000D02*
D03*
X20000D02*
D03*
D32*
X77500Y40000D02*
D03*
X42500Y205000D02*
D03*
X175000Y190000D02*
D03*
X140000Y185000D02*
D03*
X230000Y67500D02*
D03*
X267500Y190000D02*
D03*
Y210000D02*
D03*
X250000Y190000D02*
D03*
X310000Y132500D02*
D03*
X227500Y167500D02*
D03*
X232500Y177500D02*
D03*
X222500Y190000D02*
D03*
X262500Y152500D02*
D03*
X267500Y165000D02*
D03*
X222500Y210000D02*
D03*
X60000Y222500D02*
D03*
X217500Y182500D02*
D03*
X250000Y115000D02*
D03*
X220000Y55000D02*
D03*
X182500Y182500D02*
D03*
X187500Y192500D02*
D03*
X140000Y217500D02*
D03*
M02*
