G04*
G04 #@! TF.GenerationSoftware,Altium Limited,Altium Designer,20.0.13 (296)*
G04*
G04 Layer_Physical_Order=1*
G04 Layer_Color=255*
%FSLAX25Y25*%
%MOIN*%
G70*
G01*
G75*
%ADD13C,0.01000*%
G04:AMPARAMS|DCode=33|XSize=31.5mil|YSize=35.43mil|CornerRadius=7.87mil|HoleSize=0mil|Usage=FLASHONLY|Rotation=270.000|XOffset=0mil|YOffset=0mil|HoleType=Round|Shape=RoundedRectangle|*
%AMROUNDEDRECTD33*
21,1,0.03150,0.01968,0,0,270.0*
21,1,0.01575,0.03543,0,0,270.0*
1,1,0.01575,-0.00984,-0.00787*
1,1,0.01575,-0.00984,0.00787*
1,1,0.01575,0.00984,0.00787*
1,1,0.01575,0.00984,-0.00787*
%
%ADD33ROUNDEDRECTD33*%
%ADD34R,0.03543X0.03150*%
%ADD35R,0.03740X0.03150*%
%ADD36R,0.05118X0.03937*%
%ADD37R,0.05512X0.08268*%
%ADD38R,0.03937X0.05118*%
%ADD39R,0.03150X0.03740*%
%ADD40C,0.02500*%
%ADD41C,0.01200*%
%ADD42C,0.05906*%
%ADD43R,0.05906X0.05906*%
%ADD44C,0.06102*%
%ADD45R,0.05906X0.05906*%
%ADD46C,0.05118*%
%ADD47C,0.05512*%
%ADD48R,0.05512X0.05512*%
%ADD49C,0.10039*%
%ADD50C,0.06693*%
%ADD51R,0.06693X0.06693*%
%ADD52C,0.23622*%
%ADD53C,0.05000*%
G36*
X253886Y221547D02*
X253886D01*
Y209279D01*
X263398D01*
Y217943D01*
X265406Y219951D01*
X272602D01*
Y215913D01*
X280114D01*
Y219951D01*
X288944D01*
X293105Y215791D01*
X292883Y215342D01*
X292500Y215393D01*
X291104Y215209D01*
X289804Y214670D01*
X288687Y213813D01*
X287830Y212696D01*
X287291Y211396D01*
X287107Y210000D01*
X287291Y208604D01*
X287536Y208013D01*
X287211Y207491D01*
X286525Y207355D01*
X285698Y206802D01*
X284885Y205990D01*
X267686D01*
X267653Y206490D01*
X267827Y206513D01*
X268414Y206590D01*
X269265Y206943D01*
X269996Y207504D01*
X270557Y208235D01*
X270910Y209086D01*
X270964Y209500D01*
X264036D01*
X264090Y209086D01*
X264443Y208235D01*
X265004Y207504D01*
X265735Y206943D01*
X266586Y206590D01*
X267173Y206513D01*
X267347Y206490D01*
X267314Y205990D01*
X244594D01*
X244269Y206490D01*
X244402Y207500D01*
X244245Y208690D01*
X243786Y209799D01*
X243055Y210752D01*
X242102Y211482D01*
X240993Y211942D01*
X239803Y212098D01*
X238613Y211942D01*
X237504Y211482D01*
X236552Y210752D01*
X235821Y209799D01*
X235362Y208690D01*
X235205Y207500D01*
X235338Y206490D01*
X235013Y205990D01*
X222686D01*
X222653Y206490D01*
X223414Y206590D01*
X224265Y206943D01*
X224996Y207504D01*
X225557Y208235D01*
X225910Y209086D01*
X225964Y209500D01*
X219036D01*
X219090Y209086D01*
X219443Y208235D01*
X220004Y207504D01*
X220735Y206943D01*
X221586Y206590D01*
X222347Y206490D01*
X222314Y205990D01*
X214987D01*
X214662Y206490D01*
X214795Y207500D01*
X214638Y208690D01*
X214179Y209799D01*
X213448Y210752D01*
X213579Y211230D01*
X213789Y211451D01*
X218863D01*
X219141Y211035D01*
X219090Y210914D01*
X219036Y210500D01*
X225964D01*
X225910Y210914D01*
X225557Y211765D01*
X224996Y212496D01*
X224973Y212858D01*
X234129Y222014D01*
X237481D01*
X237580Y221514D01*
X237504Y221482D01*
X236552Y220752D01*
X235821Y219799D01*
X235362Y218690D01*
X235205Y217500D01*
X235362Y216310D01*
X235821Y215201D01*
X236552Y214248D01*
X237504Y213518D01*
X238613Y213058D01*
X239803Y212902D01*
X240993Y213058D01*
X242102Y213518D01*
X243055Y214248D01*
X243786Y215201D01*
X244245Y216310D01*
X244402Y217500D01*
X244245Y218690D01*
X243786Y219799D01*
X243055Y220752D01*
X242102Y221482D01*
X242026Y221514D01*
X242125Y222014D01*
X253806D01*
X253886Y221547D01*
D02*
G37*
G36*
X55597Y223534D02*
X55461Y222500D01*
X55616Y221325D01*
X56069Y220231D01*
X56791Y219291D01*
X57731Y218569D01*
X58825Y218116D01*
X60000Y217961D01*
X61175Y218116D01*
X62269Y218569D01*
X63209Y219291D01*
X63716Y219951D01*
X78236D01*
X78570Y219451D01*
X78255Y218690D01*
X78098Y217500D01*
X78255Y216310D01*
X78715Y215201D01*
X79445Y214248D01*
X80398Y213518D01*
X81507Y213058D01*
X82697Y212902D01*
X83887Y213058D01*
X84996Y213518D01*
X85948Y214248D01*
X86679Y215201D01*
X87138Y216310D01*
X87295Y217500D01*
X87138Y218690D01*
X86823Y219451D01*
X87157Y219951D01*
X107843D01*
X108177Y219451D01*
X107861Y218690D01*
X107705Y217500D01*
X107861Y216310D01*
X108321Y215201D01*
X109052Y214248D01*
X110004Y213518D01*
X111113Y213058D01*
X112303Y212902D01*
X113493Y213058D01*
X114602Y213518D01*
X115555Y214248D01*
X116286Y215201D01*
X116745Y216310D01*
X116902Y217500D01*
X116745Y218690D01*
X116430Y219451D01*
X116764Y219951D01*
X120736D01*
X121070Y219451D01*
X120755Y218690D01*
X120598Y217500D01*
X120755Y216310D01*
X121214Y215201D01*
X121457Y214885D01*
X121375Y214392D01*
X121241Y214302D01*
X116758Y209820D01*
X116175Y209943D01*
X115555Y210752D01*
X114602Y211482D01*
X113493Y211942D01*
X112303Y212098D01*
X111113Y211942D01*
X110004Y211482D01*
X109052Y210752D01*
X108321Y209799D01*
X107861Y208690D01*
X107705Y207500D01*
X107838Y206490D01*
X107513Y205990D01*
X87487D01*
X87162Y206490D01*
X87295Y207500D01*
X87138Y208690D01*
X86679Y209799D01*
X85948Y210752D01*
X84996Y211482D01*
X83887Y211942D01*
X82697Y212098D01*
X81507Y211942D01*
X80398Y211482D01*
X79445Y210752D01*
X78715Y209799D01*
X78255Y208690D01*
X78098Y207500D01*
X78255Y206310D01*
X78715Y205201D01*
X79445Y204248D01*
X79515Y204195D01*
X79548Y203696D01*
X68401Y192549D01*
X67231D01*
X67170Y192696D01*
X66313Y193813D01*
X65196Y194670D01*
X65003Y194750D01*
Y195250D01*
X65196Y195330D01*
X66313Y196187D01*
X67170Y197304D01*
X67709Y198604D01*
X67893Y200000D01*
X67709Y201396D01*
X67170Y202696D01*
X66313Y203813D01*
X65835Y204180D01*
X65996Y204654D01*
X67847D01*
Y215347D01*
X57153D01*
Y213496D01*
X56680Y213335D01*
X56313Y213813D01*
X55196Y214670D01*
X53896Y215209D01*
X52500Y215393D01*
X51104Y215209D01*
X49804Y214670D01*
X48687Y213813D01*
X47830Y212696D01*
X47291Y211396D01*
X47107Y210000D01*
X47291Y208604D01*
X47830Y207304D01*
X48687Y206187D01*
X49804Y205330D01*
X49997Y205250D01*
Y204750D01*
X49804Y204670D01*
X48687Y203813D01*
X47830Y202696D01*
X47291Y201396D01*
X47107Y200000D01*
X47291Y198604D01*
X47830Y197304D01*
X48687Y196187D01*
X49804Y195330D01*
X49997Y195250D01*
Y194750D01*
X49804Y194670D01*
X48687Y193813D01*
X47830Y192696D01*
X47291Y191396D01*
X47107Y190000D01*
X47291Y188604D01*
X47830Y187304D01*
X48687Y186187D01*
X49804Y185330D01*
X49997Y185250D01*
Y184750D01*
X49804Y184670D01*
X48687Y183813D01*
X47830Y182696D01*
X47291Y181396D01*
X47107Y180000D01*
X47291Y178604D01*
X47830Y177304D01*
X48687Y176187D01*
X49804Y175330D01*
X49997Y175250D01*
Y174750D01*
X49804Y174670D01*
X48687Y173813D01*
X47830Y172696D01*
X47291Y171396D01*
X47107Y170000D01*
X47291Y168604D01*
X47830Y167304D01*
X48687Y166187D01*
X49804Y165330D01*
X49997Y165250D01*
Y164750D01*
X49804Y164670D01*
X48687Y163813D01*
X47830Y162696D01*
X47291Y161396D01*
X47107Y160000D01*
X47291Y158604D01*
X47830Y157304D01*
X48687Y156187D01*
X49804Y155330D01*
X49997Y155250D01*
Y154750D01*
X49804Y154670D01*
X48687Y153813D01*
X47830Y152696D01*
X47291Y151396D01*
X47107Y150000D01*
X47158Y149617D01*
X46709Y149395D01*
X40000Y156105D01*
Y201876D01*
X40500Y202123D01*
X40735Y201943D01*
X41586Y201590D01*
X42000Y201536D01*
Y205000D01*
Y208464D01*
X41586Y208410D01*
X40735Y208057D01*
X40500Y207877D01*
X40000Y208124D01*
Y224034D01*
X55290D01*
X55597Y223534D01*
D02*
G37*
G36*
X281722Y170778D02*
X280000D01*
X279152Y170666D01*
X278361Y170339D01*
X277682Y169818D01*
X271098Y163234D01*
X270674Y163517D01*
X270910Y164086D01*
X270964Y164500D01*
X264036D01*
X264090Y164086D01*
X264443Y163235D01*
X264827Y162733D01*
X264451Y162403D01*
X254910Y171944D01*
Y173453D01*
X263398D01*
Y185721D01*
X253886D01*
Y182119D01*
X250851D01*
Y179151D01*
Y176182D01*
X253886D01*
Y175245D01*
X245792D01*
Y168466D01*
X245330Y168275D01*
X241008Y172596D01*
X241177Y173135D01*
X242102Y173518D01*
X243055Y174249D01*
X243786Y175201D01*
X244245Y176310D01*
X244402Y177500D01*
X244245Y178690D01*
X243786Y179799D01*
X243055Y180752D01*
X242102Y181482D01*
X240993Y181942D01*
X239803Y182098D01*
X238613Y181942D01*
X237504Y181482D01*
X236552Y180752D01*
X236364Y180508D01*
X235864D01*
X235709Y180709D01*
X234769Y181431D01*
X233675Y181884D01*
X232500Y182039D01*
X232321Y182015D01*
X232100Y182464D01*
X232318Y182682D01*
X232839Y183361D01*
X233166Y184152D01*
X233222Y184576D01*
X233278Y185000D01*
Y194222D01*
X236586D01*
X237504Y193518D01*
X238613Y193058D01*
X239803Y192902D01*
X240993Y193058D01*
X242102Y193518D01*
X243020Y194222D01*
X281722D01*
Y170778D01*
D02*
G37*
G36*
X226722Y186358D02*
X222464Y182099D01*
X222015Y182321D01*
X222039Y182500D01*
X221884Y183675D01*
X221431Y184769D01*
X220709Y185709D01*
X219769Y186431D01*
X218675Y186884D01*
X217500Y187039D01*
X216325Y186884D01*
X215231Y186431D01*
X215151Y186369D01*
X214682Y186640D01*
X214795Y187500D01*
X214638Y188690D01*
X214179Y189799D01*
X213448Y190752D01*
X212496Y191482D01*
X211387Y191942D01*
X210197Y192098D01*
X209007Y191942D01*
X207898Y191482D01*
X206945Y190752D01*
X206214Y189799D01*
X205755Y188690D01*
X205598Y187500D01*
X205755Y186310D01*
X206214Y185201D01*
X206945Y184248D01*
X207015Y184195D01*
X207048Y183696D01*
X203401Y180049D01*
X201094D01*
X200555Y180752D01*
X199602Y181482D01*
X198493Y181942D01*
X197303Y182098D01*
X196113Y181942D01*
X195004Y181482D01*
X194052Y180752D01*
X193321Y179799D01*
X192861Y178690D01*
X192705Y177500D01*
X192861Y176310D01*
X193321Y175201D01*
X194052Y174249D01*
X195004Y173518D01*
X196113Y173058D01*
X197303Y172902D01*
X198493Y173058D01*
X199602Y173518D01*
X200555Y174249D01*
X201094Y174951D01*
X204456D01*
X205432Y175145D01*
X205735Y175348D01*
X206214Y175203D01*
X206214Y175201D01*
X206945Y174249D01*
X207898Y173518D01*
X209007Y173058D01*
X210197Y172902D01*
X211387Y173058D01*
X212496Y173518D01*
X213448Y174249D01*
X214179Y175201D01*
X214638Y176310D01*
X214795Y177500D01*
X214682Y178360D01*
X215151Y178631D01*
X215231Y178569D01*
X216325Y178116D01*
X217500Y177961D01*
X217679Y177985D01*
X217900Y177536D01*
X215182Y174818D01*
X214661Y174139D01*
X214334Y173348D01*
X214278Y172924D01*
X214222Y172500D01*
Y161228D01*
X213968Y161032D01*
X213174Y159998D01*
X212675Y158793D01*
X212505Y157500D01*
X212675Y156207D01*
X212982Y155465D01*
X212704Y155049D01*
X193556D01*
X192453Y156152D01*
Y162453D01*
X182547D01*
Y156152D01*
X181444Y155049D01*
X179559D01*
Y162531D01*
X170441D01*
Y161103D01*
X170384Y161096D01*
X169752Y160834D01*
X169209Y160417D01*
X168801Y160682D01*
X168532Y161032D01*
X168278Y161228D01*
Y172901D01*
X168268Y172977D01*
X168887Y173058D01*
X169996Y173518D01*
X170948Y174249D01*
X171679Y175201D01*
X172139Y176310D01*
X172295Y177500D01*
X172139Y178690D01*
X171679Y179799D01*
X170948Y180752D01*
X169996Y181482D01*
X168887Y181942D01*
X167697Y182098D01*
X166666Y181963D01*
X166198Y182258D01*
Y182742D01*
X166666Y183037D01*
X167697Y182902D01*
X168887Y183058D01*
X169996Y183518D01*
X170948Y184248D01*
X171679Y185201D01*
X172139Y186310D01*
X172239Y187076D01*
X172773Y187297D01*
X173235Y186943D01*
X174086Y186590D01*
X174500Y186536D01*
Y190000D01*
Y193464D01*
X174086Y193410D01*
X173235Y193057D01*
X172504Y192496D01*
X171943Y191765D01*
X171590Y190914D01*
X171563Y190709D01*
X171080Y190580D01*
X170948Y190752D01*
X169996Y191482D01*
X168887Y191942D01*
X167697Y192098D01*
X166666Y191963D01*
X166198Y192258D01*
Y192742D01*
X166666Y193037D01*
X167697Y192902D01*
X168887Y193058D01*
X169996Y193518D01*
X170914Y194222D01*
X182893D01*
X183170Y193806D01*
X183116Y193675D01*
X182961Y192500D01*
X183070Y191675D01*
X180780Y189385D01*
X180227Y188558D01*
X180033Y187582D01*
Y186279D01*
X179291Y185709D01*
X178569Y184769D01*
X178116Y183675D01*
X177961Y182500D01*
X178116Y181325D01*
X178569Y180231D01*
X179291Y179291D01*
X180231Y178569D01*
X181325Y178116D01*
X182500Y177961D01*
X183675Y178116D01*
X184769Y178569D01*
X185709Y179291D01*
X186431Y180231D01*
X186884Y181325D01*
X187039Y182500D01*
X186884Y183675D01*
X186431Y184769D01*
X185709Y185709D01*
X185238Y186071D01*
X185214Y186609D01*
X186675Y188070D01*
X187500Y187961D01*
X188675Y188116D01*
X189769Y188569D01*
X190709Y189291D01*
X191431Y190231D01*
X191884Y191325D01*
X192039Y192500D01*
X191884Y193675D01*
X191830Y193806D01*
X192107Y194222D01*
X194086D01*
X195004Y193518D01*
X196113Y193058D01*
X197303Y192902D01*
X198493Y193058D01*
X199602Y193518D01*
X200520Y194222D01*
X206980D01*
X207898Y193518D01*
X209007Y193058D01*
X210197Y192902D01*
X211387Y193058D01*
X212496Y193518D01*
X213414Y194222D01*
X226722D01*
Y186358D01*
D02*
G37*
G36*
X159610Y189116D02*
X159110Y189016D01*
X158785Y189799D01*
X158055Y190752D01*
X157102Y191482D01*
X155993Y191942D01*
X154803Y192098D01*
X153613Y191942D01*
X152504Y191482D01*
X151552Y190752D01*
X150821Y189799D01*
X150362Y188690D01*
X150205Y187500D01*
X150362Y186310D01*
X150821Y185201D01*
X151552Y184248D01*
X152504Y183518D01*
X153613Y183058D01*
X154803Y182902D01*
X155993Y183058D01*
X157102Y183518D01*
X158055Y184248D01*
X158785Y185201D01*
X159110Y185984D01*
X159610Y185884D01*
Y179116D01*
X159110Y179016D01*
X158785Y179799D01*
X158055Y180752D01*
X157102Y181482D01*
X155993Y181942D01*
X154803Y182098D01*
X153613Y181942D01*
X152504Y181482D01*
X151552Y180752D01*
X150821Y179799D01*
X150362Y178690D01*
X150205Y177500D01*
X150362Y176310D01*
X150821Y175201D01*
X151552Y174249D01*
X152504Y173518D01*
X153613Y173058D01*
X154803Y172902D01*
X155993Y173058D01*
X157102Y173518D01*
X158055Y174249D01*
X158785Y175201D01*
X159110Y175984D01*
X159610Y175884D01*
Y175013D01*
X159666Y174589D01*
X159722Y174164D01*
X160049Y173374D01*
X160570Y172695D01*
X161722Y171543D01*
Y161228D01*
X161468Y161032D01*
X160674Y159998D01*
X160175Y158793D01*
X160004Y157500D01*
X160175Y156207D01*
X160482Y155465D01*
X160204Y155049D01*
X141056D01*
X139953Y156152D01*
Y162453D01*
X130047D01*
Y162453D01*
X129559Y162481D01*
Y162531D01*
X120441D01*
Y161310D01*
X118278D01*
Y172038D01*
X121045Y174805D01*
X121544Y174772D01*
X121945Y174249D01*
X122898Y173518D01*
X124007Y173058D01*
X125197Y172902D01*
X126387Y173058D01*
X127496Y173518D01*
X128448Y174249D01*
X129179Y175201D01*
X129639Y176310D01*
X129795Y177500D01*
X129639Y178690D01*
X129179Y179799D01*
X128448Y180752D01*
X127496Y181482D01*
X126387Y181942D01*
X125197Y182098D01*
X124007Y181942D01*
X123868Y181884D01*
X123452Y182162D01*
Y182838D01*
X123868Y183116D01*
X124007Y183058D01*
X125197Y182902D01*
X126387Y183058D01*
X127496Y183518D01*
X128448Y184248D01*
X129179Y185201D01*
X129639Y186310D01*
X129795Y187500D01*
X129639Y188690D01*
X129179Y189799D01*
X128448Y190752D01*
X127496Y191482D01*
X126387Y191942D01*
X125197Y192098D01*
X124007Y191942D01*
X123868Y191884D01*
X123452Y192162D01*
Y192838D01*
X123868Y193116D01*
X124007Y193058D01*
X125197Y192902D01*
X126387Y193058D01*
X127496Y193518D01*
X128414Y194222D01*
X151586D01*
X152504Y193518D01*
X153613Y193058D01*
X154803Y192902D01*
X155993Y193058D01*
X157102Y193518D01*
X158020Y194222D01*
X159610D01*
Y189116D01*
D02*
G37*
G36*
X227985Y177679D02*
X227961Y177500D01*
X228116Y176325D01*
X228569Y175231D01*
X229291Y174291D01*
X230231Y173569D01*
X231325Y173116D01*
X232500Y172961D01*
X233325Y173070D01*
X243480Y162915D01*
X243289Y162453D01*
X235047D01*
Y160049D01*
X234149D01*
X233173Y159855D01*
X232559Y159444D01*
X232059Y159704D01*
Y161469D01*
X222941D01*
Y160778D01*
X221228D01*
X221032Y161032D01*
X220778Y161228D01*
Y171142D01*
X227536Y177901D01*
X227985Y177679D01*
D02*
G37*
G36*
X68205Y177854D02*
X68630Y177570D01*
Y172070D01*
X69222D01*
Y170625D01*
X69081Y170441D01*
X68800Y169763D01*
X68704Y169035D01*
Y167461D01*
X68800Y166733D01*
X69081Y166055D01*
X69528Y165473D01*
X70110Y165026D01*
X70591Y164827D01*
X70491Y164327D01*
X69728D01*
Y162252D01*
X72500D01*
X75272D01*
Y164327D01*
X74509D01*
X74409Y164827D01*
X74890Y165026D01*
X75472Y165473D01*
X75919Y166055D01*
X76200Y166733D01*
X76296Y167461D01*
Y169035D01*
X76200Y169763D01*
X75919Y170441D01*
X75778Y170625D01*
Y172070D01*
X76370D01*
Y173082D01*
X76832Y173274D01*
X82451Y167655D01*
Y162453D01*
X80047D01*
Y152547D01*
X82936D01*
X83036Y152047D01*
X82502Y151826D01*
X81468Y151032D01*
X80674Y149998D01*
X80457Y149474D01*
X68203D01*
X67873Y149850D01*
X67893Y150000D01*
X67709Y151396D01*
X67170Y152696D01*
X66313Y153813D01*
X65196Y154670D01*
X65003Y154750D01*
Y155250D01*
X65196Y155330D01*
X66313Y156187D01*
X67170Y157304D01*
X67709Y158604D01*
X67893Y160000D01*
X67709Y161396D01*
X67170Y162696D01*
X66313Y163813D01*
X65196Y164670D01*
X63896Y165209D01*
X63567Y165252D01*
Y165756D01*
X63635Y165765D01*
X64692Y166203D01*
X65600Y166900D01*
X66297Y167808D01*
X66735Y168865D01*
X66818Y169500D01*
X62500D01*
Y170500D01*
X66818D01*
X66735Y171135D01*
X66297Y172192D01*
X65600Y173100D01*
X64692Y173797D01*
X63635Y174235D01*
X63567Y174243D01*
Y174748D01*
X63896Y174791D01*
X65196Y175330D01*
X66313Y176187D01*
X67170Y177304D01*
X67462Y178009D01*
X67953Y178107D01*
X68205Y177854D01*
D02*
G37*
G36*
X261264Y156318D02*
X261147Y155728D01*
X260735Y155557D01*
X260004Y154996D01*
X259443Y154265D01*
X259090Y153414D01*
X259036Y153000D01*
X265964D01*
X265910Y153414D01*
X265673Y153985D01*
X265956Y154510D01*
X265968Y154517D01*
X266041Y154524D01*
X266468Y153968D01*
X267502Y153174D01*
X268476Y152771D01*
Y152229D01*
X267502Y151826D01*
X266468Y151032D01*
X265674Y149998D01*
X265175Y148793D01*
X265004Y147500D01*
X265175Y146207D01*
X265674Y145002D01*
X266468Y143968D01*
X267502Y143174D01*
X268476Y142771D01*
Y142229D01*
X267502Y141826D01*
X266468Y141032D01*
X265674Y139998D01*
X265175Y138793D01*
X265004Y137500D01*
X265175Y136207D01*
X265674Y135002D01*
X266468Y133968D01*
X267502Y133174D01*
X268476Y132771D01*
Y132229D01*
X267502Y131826D01*
X266468Y131032D01*
X265674Y129998D01*
X265175Y128793D01*
X265004Y127500D01*
X265175Y126207D01*
X265674Y125002D01*
X266468Y123968D01*
X267502Y123174D01*
X268476Y122771D01*
Y122229D01*
X267502Y121826D01*
X266468Y121032D01*
X265674Y119998D01*
X265175Y118793D01*
X265004Y117500D01*
X265175Y116207D01*
X265674Y115002D01*
X266468Y113968D01*
X267502Y113174D01*
X268476Y112771D01*
Y112229D01*
X267502Y111826D01*
X266468Y111032D01*
X265674Y109998D01*
X265175Y108793D01*
X265004Y107500D01*
X265175Y106207D01*
X265674Y105002D01*
X266468Y103968D01*
X267502Y103174D01*
X268476Y102771D01*
Y102229D01*
X267502Y101826D01*
X266468Y101032D01*
X265674Y99998D01*
X265175Y98793D01*
X265004Y97500D01*
X265175Y96207D01*
X265674Y95002D01*
X266468Y93968D01*
X267502Y93174D01*
X268476Y92771D01*
Y92229D01*
X267502Y91826D01*
X266468Y91032D01*
X265674Y89998D01*
X265175Y88793D01*
X265004Y87500D01*
X265175Y86207D01*
X265674Y85002D01*
X266468Y83968D01*
X267502Y83174D01*
X268476Y82771D01*
Y82229D01*
X267502Y81826D01*
X266468Y81032D01*
X265674Y79998D01*
X265175Y78793D01*
X265004Y77500D01*
X265175Y76207D01*
X265674Y75002D01*
X266468Y73968D01*
X267502Y73174D01*
X268476Y72771D01*
Y72229D01*
X267502Y71826D01*
X266468Y71032D01*
X265674Y69998D01*
X265175Y68793D01*
X265004Y67500D01*
X265175Y66207D01*
X265674Y65002D01*
X266468Y63968D01*
X267502Y63174D01*
X267718Y63084D01*
X267816Y62594D01*
X267611Y62389D01*
X267090Y61710D01*
X266763Y60920D01*
X266707Y60495D01*
X266651Y60071D01*
Y60026D01*
X254248D01*
X253824Y59970D01*
X253400Y59914D01*
X252609Y59587D01*
X251930Y59066D01*
X248623Y55759D01*
X248161Y55950D01*
Y58871D01*
X241012D01*
Y58870D01*
X233925D01*
Y57549D01*
X232500D01*
X231524Y57355D01*
X230698Y56802D01*
X226229Y52334D01*
X225000Y52495D01*
X224311Y52405D01*
X224185Y52512D01*
X223987Y52866D01*
X224384Y53825D01*
X224539Y55000D01*
X224384Y56175D01*
X223931Y57269D01*
X223689Y57584D01*
X229175Y63070D01*
X230000Y62961D01*
X231175Y63116D01*
X232269Y63569D01*
X233209Y64291D01*
X233931Y65231D01*
X234384Y66325D01*
X234539Y67500D01*
X234384Y68675D01*
X233931Y69769D01*
X233209Y70709D01*
X232269Y71431D01*
X231175Y71884D01*
X230000Y72039D01*
X228825Y71884D01*
X227731Y71431D01*
X227312Y71110D01*
X226982Y71487D01*
X230446Y74951D01*
X235713D01*
X236468Y73968D01*
X237502Y73174D01*
X238707Y72675D01*
X240000Y72505D01*
X241293Y72675D01*
X242498Y73174D01*
X243532Y73968D01*
X244326Y75002D01*
X244825Y76207D01*
X244995Y77500D01*
X244825Y78793D01*
X244326Y79998D01*
X243532Y81032D01*
X242498Y81826D01*
X241524Y82229D01*
Y82771D01*
X242498Y83174D01*
X243532Y83968D01*
X244326Y85002D01*
X244825Y86207D01*
X244995Y87500D01*
X244825Y88793D01*
X244326Y89998D01*
X243532Y91032D01*
X242498Y91826D01*
X241524Y92229D01*
Y92771D01*
X242498Y93174D01*
X243532Y93968D01*
X244326Y95002D01*
X244825Y96207D01*
X244995Y97500D01*
X244825Y98793D01*
X244326Y99998D01*
X243532Y101032D01*
X242498Y101826D01*
X241524Y102229D01*
Y102771D01*
X242498Y103174D01*
X243532Y103968D01*
X244326Y105002D01*
X244825Y106207D01*
X244995Y107500D01*
X244825Y108793D01*
X244326Y109998D01*
X243532Y111032D01*
X242498Y111826D01*
X241524Y112229D01*
Y112771D01*
X242498Y113174D01*
X243532Y113968D01*
X244326Y115002D01*
X244825Y116207D01*
X244995Y117500D01*
X244825Y118793D01*
X244326Y119998D01*
X243532Y121032D01*
X242498Y121826D01*
X241524Y122229D01*
Y122771D01*
X242498Y123174D01*
X243532Y123968D01*
X244326Y125002D01*
X244825Y126207D01*
X244995Y127500D01*
X244825Y128793D01*
X244326Y129998D01*
X243532Y131032D01*
X242498Y131826D01*
X241524Y132229D01*
Y132771D01*
X242498Y133174D01*
X243532Y133968D01*
X244326Y135002D01*
X244825Y136207D01*
X244995Y137500D01*
X244825Y138793D01*
X244326Y139998D01*
X243532Y141032D01*
X242498Y141826D01*
X241524Y142229D01*
Y142771D01*
X242498Y143174D01*
X243532Y143968D01*
X244326Y145002D01*
X244825Y146207D01*
X244995Y147500D01*
X244825Y148793D01*
X244326Y149998D01*
X243532Y151032D01*
X242498Y151826D01*
X241964Y152047D01*
X242064Y152547D01*
X244953D01*
Y160789D01*
X245415Y160980D01*
X247451Y158944D01*
Y118716D01*
X246791Y118209D01*
X246069Y117269D01*
X245616Y116175D01*
X245461Y115000D01*
X245616Y113825D01*
X246069Y112731D01*
X246791Y111791D01*
X247731Y111069D01*
X248825Y110616D01*
X250000Y110461D01*
X251175Y110616D01*
X252269Y111069D01*
X253209Y111791D01*
X253931Y112731D01*
X254384Y113825D01*
X254539Y115000D01*
X254384Y116175D01*
X253931Y117269D01*
X253209Y118209D01*
X252549Y118716D01*
Y160000D01*
X252355Y160976D01*
X251802Y161802D01*
X246759Y166846D01*
X246950Y167308D01*
X250274D01*
X261264Y156318D01*
D02*
G37*
G36*
X183968Y73968D02*
X185002Y73174D01*
X186207Y72675D01*
X187500Y72505D01*
X188729Y72666D01*
X190150Y71245D01*
X190977Y70692D01*
X191953Y70498D01*
X212993D01*
X213214Y70050D01*
X213174Y69998D01*
X212675Y68793D01*
X212505Y67500D01*
X212675Y66207D01*
X213174Y65002D01*
X213968Y63968D01*
X215002Y63174D01*
X216207Y62675D01*
X217500Y62505D01*
X218793Y62675D01*
X219998Y63174D01*
X221032Y63968D01*
X221826Y65002D01*
X222325Y66207D01*
X222496Y67500D01*
X222325Y68793D01*
X221826Y69998D01*
X221786Y70050D01*
X222007Y70498D01*
X224938D01*
X224938Y70498D01*
X224938Y70498D01*
X225913Y70692D01*
X225913Y70692D01*
X225913Y70692D01*
X226457Y71056D01*
X226791Y70709D01*
X226069Y69769D01*
X225616Y68675D01*
X225461Y67500D01*
X225570Y66675D01*
X218963Y60068D01*
X218410Y59241D01*
X218404Y59210D01*
X217731Y58931D01*
X216791Y58209D01*
X216069Y57269D01*
X215616Y56175D01*
X215461Y55000D01*
X215616Y53825D01*
X216013Y52866D01*
X215814Y52512D01*
X215689Y52405D01*
X215000Y52495D01*
X213707Y52325D01*
X212502Y51826D01*
X211468Y51032D01*
X210674Y49998D01*
X210271Y49024D01*
X209729D01*
X209326Y49998D01*
X208532Y51032D01*
X207498Y51826D01*
X206293Y52325D01*
X205000Y52495D01*
X203707Y52325D01*
X202502Y51826D01*
X201468Y51032D01*
X200674Y49998D01*
X200175Y48793D01*
X200005Y47500D01*
X200175Y46207D01*
X200674Y45002D01*
X201468Y43968D01*
X202502Y43174D01*
X203707Y42675D01*
X205000Y42505D01*
X206293Y42675D01*
X207498Y43174D01*
X208532Y43968D01*
X209326Y45002D01*
X209729Y45976D01*
X210271D01*
X210674Y45002D01*
X211468Y43968D01*
X212502Y43174D01*
X213707Y42675D01*
X215000Y42505D01*
X216293Y42675D01*
X217498Y43174D01*
X218532Y43968D01*
X219326Y45002D01*
X219729Y45976D01*
X220271D01*
X220674Y45002D01*
X221468Y43968D01*
X222502Y43174D01*
X223707Y42675D01*
X225000Y42505D01*
X226293Y42675D01*
X227498Y43174D01*
X228532Y43968D01*
X229326Y45002D01*
X229729Y45976D01*
X230271D01*
X230674Y45002D01*
X231468Y43968D01*
X232502Y43174D01*
X233707Y42675D01*
X235000Y42505D01*
X236229Y42666D01*
X241741Y37154D01*
X242568Y36602D01*
X243543Y36408D01*
X276131D01*
Y35382D01*
X276982D01*
X277325Y34976D01*
X277234Y34618D01*
X276130D01*
Y27469D01*
X276131D01*
Y25431D01*
X192898D01*
X192382Y26103D01*
X191329Y26911D01*
Y31130D01*
X192118D01*
Y38870D01*
X184969D01*
Y38870D01*
X177882D01*
Y38631D01*
X177528Y38278D01*
X157215Y38278D01*
Y40441D01*
X157905D01*
Y49559D01*
X142095D01*
Y48278D01*
X138102D01*
X137678Y48222D01*
X137254Y48166D01*
X136463Y47839D01*
X135784Y47318D01*
X132664Y44197D01*
X123756D01*
Y45425D01*
X120000D01*
X116244D01*
Y44970D01*
X115782Y44779D01*
X114778Y45783D01*
X114797Y45925D01*
X114634Y47167D01*
X114154Y48324D01*
X113392Y49317D01*
X112399Y50080D01*
X111241Y50559D01*
X110000Y50722D01*
X108758Y50559D01*
X107601Y50080D01*
X106608Y49317D01*
X105846Y48324D01*
X105367Y47167D01*
X105203Y45925D01*
X105367Y44684D01*
X105846Y43527D01*
X106608Y42533D01*
X107601Y41771D01*
X108758Y41292D01*
X110000Y41128D01*
X110142Y41147D01*
X112688Y38601D01*
X113367Y38080D01*
X114157Y37753D01*
X115006Y37641D01*
X123688D01*
X123688Y37641D01*
X134022D01*
X134446Y37697D01*
X134870Y37753D01*
X135661Y38080D01*
X136339Y38601D01*
X139460Y41722D01*
X142095D01*
Y40441D01*
X150659D01*
Y38871D01*
X149968D01*
Y31130D01*
X157118D01*
Y31368D01*
X157472Y31722D01*
X177882Y31721D01*
Y31129D01*
X185031D01*
Y31130D01*
X186231D01*
Y26911D01*
X185177Y26103D01*
X184367Y25047D01*
X183858Y23819D01*
X183685Y22500D01*
X183858Y21181D01*
X184367Y19953D01*
X185177Y18898D01*
X186232Y18088D01*
X187461Y17579D01*
X188780Y17405D01*
X190098Y17579D01*
X191327Y18088D01*
X192382Y18898D01*
X193192Y19953D01*
X193349Y20333D01*
X200356D01*
X200606Y19833D01*
X200175Y18793D01*
X200005Y17500D01*
X200175Y16207D01*
X200674Y15002D01*
X201468Y13968D01*
X202502Y13174D01*
X203707Y12675D01*
X205000Y12505D01*
X206293Y12675D01*
X207498Y13174D01*
X208532Y13968D01*
X209326Y15002D01*
X209729Y15976D01*
X210271D01*
X210674Y15002D01*
X211468Y13968D01*
X212502Y13174D01*
X213707Y12675D01*
X215000Y12505D01*
X216293Y12675D01*
X217498Y13174D01*
X218532Y13968D01*
X219326Y15002D01*
X219729Y15976D01*
X220271D01*
X220674Y15002D01*
X221468Y13968D01*
X222502Y13174D01*
X223707Y12675D01*
X225000Y12505D01*
X226293Y12675D01*
X227498Y13174D01*
X228532Y13968D01*
X229326Y15002D01*
X229729Y15976D01*
X230271D01*
X230674Y15002D01*
X231468Y13968D01*
X232502Y13174D01*
X233707Y12675D01*
X235000Y12505D01*
X236293Y12675D01*
X237498Y13174D01*
X238532Y13968D01*
X239326Y15002D01*
X239825Y16207D01*
X239996Y17500D01*
X239825Y18793D01*
X239394Y19833D01*
X239644Y20333D01*
X241561D01*
X241808Y19833D01*
X241547Y19493D01*
X241149Y18532D01*
X241079Y18000D01*
X245000D01*
X248921D01*
X248851Y18532D01*
X248453Y19493D01*
X248192Y19833D01*
X248439Y20333D01*
X250356D01*
X250606Y19833D01*
X250175Y18793D01*
X250005Y17500D01*
X250175Y16207D01*
X250674Y15002D01*
X251468Y13968D01*
X252502Y13174D01*
X253707Y12675D01*
X255000Y12505D01*
X256293Y12675D01*
X257498Y13174D01*
X258532Y13968D01*
X259326Y15002D01*
X259729Y15976D01*
X260271D01*
X260674Y15002D01*
X261468Y13968D01*
X262502Y13174D01*
X263707Y12675D01*
X265000Y12505D01*
X266293Y12675D01*
X267498Y13174D01*
X268532Y13968D01*
X269326Y15002D01*
X269825Y16207D01*
X269995Y17500D01*
X269825Y18793D01*
X269394Y19833D01*
X269644Y20333D01*
X278926D01*
X279172Y20382D01*
X283871D01*
Y27531D01*
X283870D01*
Y34618D01*
X283019D01*
X282675Y35024D01*
X282767Y35382D01*
X283871D01*
Y40883D01*
X284294Y41166D01*
X288753Y45626D01*
X288775Y45659D01*
X289269Y45740D01*
X289804Y45330D01*
X289997Y45250D01*
Y44750D01*
X289804Y44670D01*
X288687Y43813D01*
X287830Y42696D01*
X287291Y41396D01*
X287107Y40000D01*
X287291Y38604D01*
X287830Y37304D01*
X288687Y36187D01*
X289804Y35330D01*
X289997Y35250D01*
Y34750D01*
X289804Y34670D01*
X288687Y33813D01*
X287830Y32696D01*
X287291Y31396D01*
X287107Y30000D01*
X287291Y28604D01*
X287830Y27304D01*
X288687Y26187D01*
X289804Y25330D01*
X289997Y25250D01*
Y24750D01*
X289804Y24670D01*
X288687Y23813D01*
X287830Y22696D01*
X287291Y21396D01*
X287107Y20000D01*
X287291Y18604D01*
X287830Y17304D01*
X288687Y16187D01*
X289804Y15330D01*
X291104Y14791D01*
X292500Y14607D01*
X293896Y14791D01*
X295196Y15330D01*
X296313Y16187D01*
X297170Y17304D01*
X297250Y17497D01*
X297750D01*
X297830Y17304D01*
X298687Y16187D01*
X299804Y15330D01*
X301104Y14791D01*
X302500Y14607D01*
X303896Y14791D01*
X305196Y15330D01*
X306313Y16187D01*
X307170Y17304D01*
X307709Y18604D01*
X307893Y20000D01*
X307709Y21396D01*
X307170Y22696D01*
X306313Y23813D01*
X305196Y24670D01*
X305003Y24750D01*
Y25250D01*
X305196Y25330D01*
X306313Y26187D01*
X307170Y27304D01*
X307709Y28604D01*
X307893Y30000D01*
X307709Y31396D01*
X307170Y32696D01*
X306313Y33813D01*
X305196Y34670D01*
X305003Y34750D01*
Y35250D01*
X305196Y35330D01*
X306313Y36187D01*
X307170Y37304D01*
X307709Y38604D01*
X307893Y40000D01*
X307709Y41396D01*
X307170Y42696D01*
X306313Y43813D01*
X305196Y44670D01*
X305003Y44750D01*
Y45250D01*
X305196Y45330D01*
X306313Y46187D01*
X307170Y47304D01*
X307709Y48604D01*
X307893Y50000D01*
X307709Y51396D01*
X307170Y52696D01*
X306512Y53554D01*
X314538Y61579D01*
X315000Y61388D01*
Y10000D01*
X40000D01*
Y62325D01*
X40341Y62605D01*
X47342D01*
X47620Y62189D01*
X47291Y61396D01*
X47107Y60000D01*
X47291Y58604D01*
X47830Y57304D01*
X48687Y56187D01*
X49804Y55330D01*
X49997Y55250D01*
Y54750D01*
X49804Y54670D01*
X48687Y53813D01*
X47830Y52696D01*
X47291Y51396D01*
X47107Y50000D01*
X47291Y48604D01*
X47830Y47304D01*
X48687Y46187D01*
X49804Y45330D01*
X49997Y45250D01*
Y44750D01*
X49804Y44670D01*
X48687Y43813D01*
X47830Y42696D01*
X47291Y41396D01*
X47107Y40000D01*
X47291Y38604D01*
X47830Y37304D01*
X48687Y36187D01*
X49804Y35330D01*
X49997Y35250D01*
Y34750D01*
X49804Y34670D01*
X48687Y33813D01*
X47830Y32696D01*
X47291Y31396D01*
X47107Y30000D01*
X47291Y28604D01*
X47830Y27304D01*
X48687Y26187D01*
X49804Y25330D01*
X49997Y25250D01*
Y24750D01*
X49804Y24670D01*
X48687Y23813D01*
X47830Y22696D01*
X47291Y21396D01*
X47107Y20000D01*
X47291Y18604D01*
X47830Y17304D01*
X48687Y16187D01*
X49804Y15330D01*
X51104Y14791D01*
X52500Y14607D01*
X53896Y14791D01*
X55196Y15330D01*
X56313Y16187D01*
X57170Y17304D01*
X57250Y17497D01*
X57750D01*
X57830Y17304D01*
X58687Y16187D01*
X59804Y15330D01*
X61104Y14791D01*
X62500Y14607D01*
X63896Y14791D01*
X65196Y15330D01*
X66313Y16187D01*
X67170Y17304D01*
X67709Y18604D01*
X67893Y20000D01*
X67709Y21396D01*
X67170Y22696D01*
X66313Y23813D01*
X65196Y24670D01*
X65003Y24750D01*
Y25250D01*
X65196Y25330D01*
X66313Y26187D01*
X67170Y27304D01*
X67709Y28604D01*
X67893Y30000D01*
X67709Y31396D01*
X67170Y32696D01*
X66313Y33813D01*
X65196Y34670D01*
X65003Y34750D01*
Y35250D01*
X65196Y35330D01*
X66313Y36187D01*
X67170Y37304D01*
X67709Y38604D01*
X67893Y40000D01*
X67709Y41396D01*
X67170Y42696D01*
X66313Y43813D01*
X65196Y44670D01*
X65003Y44750D01*
Y45250D01*
X65196Y45330D01*
X66313Y46187D01*
X67170Y47304D01*
X67709Y48604D01*
X67893Y50000D01*
X67709Y51396D01*
X67170Y52696D01*
X66313Y53813D01*
X65196Y54670D01*
X65003Y54750D01*
Y55250D01*
X65196Y55330D01*
X66313Y56187D01*
X67170Y57304D01*
X67709Y58604D01*
X67893Y60000D01*
X67709Y61396D01*
X67170Y62696D01*
X66313Y63813D01*
X65196Y64670D01*
X65003Y64750D01*
Y65250D01*
X65196Y65330D01*
X66313Y66187D01*
X67170Y67304D01*
X67231Y67451D01*
X74466D01*
X75441Y67645D01*
X76268Y68198D01*
X77475Y69404D01*
X81060D01*
X81338Y68988D01*
X81149Y68532D01*
X81079Y68000D01*
X85000D01*
Y67500D01*
X85500D01*
Y63579D01*
X86032Y63649D01*
X86993Y64047D01*
X87819Y64681D01*
X88453Y65507D01*
X88851Y66468D01*
X88864Y66568D01*
X89338Y66729D01*
X90369Y65698D01*
X91196Y65145D01*
X92172Y64951D01*
X110713D01*
X111468Y63968D01*
X112502Y63174D01*
X113707Y62675D01*
X115000Y62505D01*
X116293Y62675D01*
X117498Y63174D01*
X118532Y63968D01*
X119326Y65002D01*
X119825Y66207D01*
X119995Y67500D01*
X119825Y68793D01*
X119326Y69998D01*
X119286Y70050D01*
X119507Y70498D01*
X121188D01*
X121188Y70498D01*
X121188Y70498D01*
X122163Y70692D01*
X122163Y70692D01*
X122163Y70692D01*
X122661Y71025D01*
X122990Y71245D01*
X122990Y71245D01*
X122990Y71245D01*
X126696Y74951D01*
X130713D01*
X131468Y73968D01*
X132502Y73174D01*
X133707Y72675D01*
X135000Y72505D01*
X136229Y72666D01*
X137650Y71245D01*
X138477Y70692D01*
X139453Y70498D01*
X160493D01*
X160714Y70050D01*
X160674Y69998D01*
X160175Y68793D01*
X160004Y67500D01*
X160175Y66207D01*
X160674Y65002D01*
X161468Y63968D01*
X162502Y63174D01*
X163707Y62675D01*
X165000Y62505D01*
X166293Y62675D01*
X167498Y63174D01*
X168532Y63968D01*
X169326Y65002D01*
X169825Y66207D01*
X169995Y67500D01*
X169825Y68793D01*
X169326Y69998D01*
X169286Y70050D01*
X169507Y70498D01*
X172438D01*
X172438Y70498D01*
X172438Y70498D01*
X173413Y70692D01*
X173413Y70692D01*
X173413Y70692D01*
X173911Y71025D01*
X174240Y71245D01*
X174240Y71245D01*
X174240Y71245D01*
X177946Y74951D01*
X183213D01*
X183968Y73968D01*
D02*
G37*
%LPC*%
G36*
X268000Y213464D02*
Y210500D01*
X270964D01*
X270910Y210914D01*
X270557Y211765D01*
X269996Y212496D01*
X269265Y213057D01*
X268414Y213410D01*
X268000Y213464D01*
D02*
G37*
G36*
X267000D02*
X266586Y213410D01*
X265735Y213057D01*
X265004Y212496D01*
X264443Y211765D01*
X264090Y210914D01*
X264036Y210500D01*
X267000D01*
Y213464D01*
D02*
G37*
G36*
X280114Y214913D02*
X276858D01*
Y210279D01*
X280114D01*
Y214913D01*
D02*
G37*
G36*
X275858D02*
X272602D01*
Y210279D01*
X275858D01*
Y214913D01*
D02*
G37*
G36*
X43000Y208464D02*
Y205500D01*
X45964D01*
X45910Y205914D01*
X45557Y206765D01*
X44996Y207496D01*
X44265Y208057D01*
X43414Y208410D01*
X43000Y208464D01*
D02*
G37*
G36*
X45964Y204500D02*
X43000D01*
Y201536D01*
X43414Y201590D01*
X44265Y201943D01*
X44996Y202504D01*
X45557Y203235D01*
X45910Y204086D01*
X45964Y204500D01*
D02*
G37*
G36*
X268000Y193464D02*
Y190500D01*
X270964D01*
X270910Y190914D01*
X270557Y191765D01*
X269996Y192496D01*
X269265Y193057D01*
X268414Y193410D01*
X268000Y193464D01*
D02*
G37*
G36*
X267000D02*
X266586Y193410D01*
X265735Y193057D01*
X265004Y192496D01*
X264443Y191765D01*
X264090Y190914D01*
X264036Y190500D01*
X267000D01*
Y193464D01*
D02*
G37*
G36*
X250500D02*
Y190500D01*
X253464D01*
X253410Y190914D01*
X253057Y191765D01*
X252496Y192496D01*
X251765Y193057D01*
X250914Y193410D01*
X250500Y193464D01*
D02*
G37*
G36*
X249500D02*
X249086Y193410D01*
X248235Y193057D01*
X247504Y192496D01*
X246943Y191765D01*
X246590Y190914D01*
X246536Y190500D01*
X249500D01*
Y193464D01*
D02*
G37*
G36*
X270964Y189500D02*
X268000D01*
Y186536D01*
X268414Y186590D01*
X269265Y186943D01*
X269996Y187504D01*
X270557Y188235D01*
X270910Y189086D01*
X270964Y189500D01*
D02*
G37*
G36*
X267000D02*
X264036D01*
X264090Y189086D01*
X264443Y188235D01*
X265004Y187504D01*
X265735Y186943D01*
X266586Y186590D01*
X267000Y186536D01*
Y189500D01*
D02*
G37*
G36*
X253464D02*
X250500D01*
Y186536D01*
X250914Y186590D01*
X251765Y186943D01*
X252496Y187504D01*
X253057Y188235D01*
X253410Y189086D01*
X253464Y189500D01*
D02*
G37*
G36*
X249500D02*
X246536D01*
X246590Y189086D01*
X246943Y188235D01*
X247504Y187504D01*
X248235Y186943D01*
X249086Y186590D01*
X249500Y186536D01*
Y189500D01*
D02*
G37*
G36*
X239803Y192098D02*
X238613Y191942D01*
X237504Y191482D01*
X236552Y190752D01*
X235821Y189799D01*
X235362Y188690D01*
X235205Y187500D01*
X235362Y186310D01*
X235821Y185201D01*
X236552Y184248D01*
X237504Y183518D01*
X238613Y183058D01*
X239803Y182902D01*
X240993Y183058D01*
X242102Y183518D01*
X243055Y184248D01*
X243786Y185201D01*
X244245Y186310D01*
X244402Y187500D01*
X244245Y188690D01*
X243786Y189799D01*
X243055Y190752D01*
X242102Y191482D01*
X240993Y191942D01*
X239803Y192098D01*
D02*
G37*
G36*
X249851Y182119D02*
X246792D01*
Y179651D01*
X249851D01*
Y182119D01*
D02*
G37*
G36*
Y178651D02*
X246792D01*
Y176182D01*
X249851D01*
Y178651D01*
D02*
G37*
G36*
X281114Y185721D02*
X271602D01*
Y173453D01*
X281114D01*
Y185721D01*
D02*
G37*
G36*
X268000Y168464D02*
Y165500D01*
X270964D01*
X270910Y165914D01*
X270557Y166765D01*
X269996Y167496D01*
X269265Y168057D01*
X268414Y168410D01*
X268000Y168464D01*
D02*
G37*
G36*
X267000D02*
X266586Y168410D01*
X265735Y168057D01*
X265004Y167496D01*
X264443Y166765D01*
X264090Y165914D01*
X264036Y165500D01*
X267000D01*
Y168464D01*
D02*
G37*
G36*
X223000Y193464D02*
Y190500D01*
X225964D01*
X225910Y190914D01*
X225557Y191765D01*
X224996Y192496D01*
X224265Y193057D01*
X223414Y193410D01*
X223000Y193464D01*
D02*
G37*
G36*
X222000D02*
X221586Y193410D01*
X220735Y193057D01*
X220004Y192496D01*
X219443Y191765D01*
X219090Y190914D01*
X219036Y190500D01*
X222000D01*
Y193464D01*
D02*
G37*
G36*
X175500D02*
Y190500D01*
X178464D01*
X178410Y190914D01*
X178057Y191765D01*
X177496Y192496D01*
X176765Y193057D01*
X175914Y193410D01*
X175500Y193464D01*
D02*
G37*
G36*
X225964Y189500D02*
X223000D01*
Y186536D01*
X223414Y186590D01*
X224265Y186943D01*
X224996Y187504D01*
X225557Y188235D01*
X225910Y189086D01*
X225964Y189500D01*
D02*
G37*
G36*
X222000D02*
X219036D01*
X219090Y189086D01*
X219443Y188235D01*
X220004Y187504D01*
X220735Y186943D01*
X221586Y186590D01*
X222000Y186536D01*
Y189500D01*
D02*
G37*
G36*
X178464D02*
X175500D01*
Y186536D01*
X175914Y186590D01*
X176765Y186943D01*
X177496Y187504D01*
X178057Y188235D01*
X178410Y189086D01*
X178464Y189500D01*
D02*
G37*
G36*
X197303Y192098D02*
X196113Y191942D01*
X195004Y191482D01*
X194052Y190752D01*
X193321Y189799D01*
X192861Y188690D01*
X192705Y187500D01*
X192861Y186310D01*
X193321Y185201D01*
X194052Y184248D01*
X195004Y183518D01*
X196113Y183058D01*
X197303Y182902D01*
X198493Y183058D01*
X199602Y183518D01*
X200555Y184248D01*
X201286Y185201D01*
X201745Y186310D01*
X201902Y187500D01*
X201745Y188690D01*
X201286Y189799D01*
X200555Y190752D01*
X199602Y191482D01*
X198493Y191942D01*
X197303Y192098D01*
D02*
G37*
G36*
X178559Y169405D02*
X175500D01*
Y166937D01*
X178559D01*
Y169405D01*
D02*
G37*
G36*
X174500D02*
X171441D01*
Y166937D01*
X174500D01*
Y169405D01*
D02*
G37*
G36*
X178559Y165937D02*
X175500D01*
Y163469D01*
X178559D01*
Y165937D01*
D02*
G37*
G36*
X174500D02*
X171441D01*
Y163469D01*
X174500D01*
Y165937D01*
D02*
G37*
G36*
X140500Y188464D02*
Y185500D01*
X143464D01*
X143410Y185914D01*
X143057Y186765D01*
X142496Y187496D01*
X141765Y188057D01*
X140914Y188410D01*
X140500Y188464D01*
D02*
G37*
G36*
X139500D02*
X139086Y188410D01*
X138235Y188057D01*
X137504Y187496D01*
X136943Y186765D01*
X136590Y185914D01*
X136536Y185500D01*
X139500D01*
Y188464D01*
D02*
G37*
G36*
X143464Y184500D02*
X140500D01*
Y181536D01*
X140914Y181590D01*
X141765Y181943D01*
X142496Y182504D01*
X143057Y183235D01*
X143410Y184086D01*
X143464Y184500D01*
D02*
G37*
G36*
X139500D02*
X136536D01*
X136590Y184086D01*
X136943Y183235D01*
X137504Y182504D01*
X138235Y181943D01*
X139086Y181590D01*
X139500Y181536D01*
Y184500D01*
D02*
G37*
G36*
X128559Y169405D02*
X125500D01*
Y166937D01*
X128559D01*
Y169405D01*
D02*
G37*
G36*
X124500D02*
X121441D01*
Y166937D01*
X124500D01*
Y169405D01*
D02*
G37*
G36*
X128559Y165937D02*
X125500D01*
Y163469D01*
X128559D01*
Y165937D01*
D02*
G37*
G36*
X124500D02*
X121441D01*
Y163469D01*
X124500D01*
Y165937D01*
D02*
G37*
G36*
X228000Y170964D02*
Y167500D01*
X227000D01*
Y170964D01*
X226586Y170910D01*
X225735Y170557D01*
X225004Y169996D01*
X224443Y169265D01*
X224090Y168414D01*
X224081Y168342D01*
X223941D01*
Y165874D01*
X227500D01*
X231059D01*
Y168342D01*
X230919D01*
X230910Y168414D01*
X230557Y169265D01*
X229996Y169996D01*
X229265Y170557D01*
X228414Y170910D01*
X228000Y170964D01*
D02*
G37*
G36*
X231059Y164874D02*
X228000D01*
Y162406D01*
X231059D01*
Y164874D01*
D02*
G37*
G36*
X227000D02*
X223941D01*
Y162406D01*
X227000D01*
Y164874D01*
D02*
G37*
G36*
X75272Y161252D02*
X73000D01*
Y159177D01*
X75272D01*
Y161252D01*
D02*
G37*
G36*
X72000D02*
X69728D01*
Y159177D01*
X72000D01*
Y161252D01*
D02*
G37*
G36*
X265964Y152000D02*
X263000D01*
Y149036D01*
X263414Y149090D01*
X264265Y149443D01*
X264996Y150004D01*
X265557Y150735D01*
X265910Y151586D01*
X265964Y152000D01*
D02*
G37*
G36*
X262000D02*
X259036D01*
X259090Y151586D01*
X259443Y150735D01*
X260004Y150004D01*
X260735Y149443D01*
X261586Y149090D01*
X262000Y149036D01*
Y152000D01*
D02*
G37*
G36*
X240500Y71421D02*
Y68000D01*
X243921D01*
X243851Y68532D01*
X243453Y69493D01*
X242819Y70319D01*
X241993Y70953D01*
X241032Y71351D01*
X240500Y71421D01*
D02*
G37*
G36*
X239500D02*
X238968Y71351D01*
X238007Y70953D01*
X237181Y70319D01*
X236547Y69493D01*
X236149Y68532D01*
X236079Y68000D01*
X239500D01*
Y71421D01*
D02*
G37*
G36*
X243921Y67000D02*
X240500D01*
Y63579D01*
X241032Y63649D01*
X241993Y64047D01*
X242819Y64681D01*
X243453Y65507D01*
X243851Y66468D01*
X243921Y67000D01*
D02*
G37*
G36*
X239500D02*
X236079D01*
X236149Y66468D01*
X236547Y65507D01*
X237181Y64681D01*
X238007Y64047D01*
X238968Y63649D01*
X239500Y63579D01*
Y67000D01*
D02*
G37*
G36*
X188000Y71421D02*
Y68000D01*
X191421D01*
X191351Y68532D01*
X190953Y69493D01*
X190319Y70319D01*
X189493Y70953D01*
X188532Y71351D01*
X188000Y71421D01*
D02*
G37*
G36*
X187000D02*
X186468Y71351D01*
X185507Y70953D01*
X184681Y70319D01*
X184047Y69493D01*
X183649Y68532D01*
X183579Y68000D01*
X187000D01*
Y71421D01*
D02*
G37*
G36*
X135500D02*
Y68000D01*
X138921D01*
X138851Y68532D01*
X138453Y69493D01*
X137819Y70319D01*
X136993Y70953D01*
X136032Y71351D01*
X135500Y71421D01*
D02*
G37*
G36*
X134500D02*
X133968Y71351D01*
X133007Y70953D01*
X132181Y70319D01*
X131547Y69493D01*
X131149Y68532D01*
X131079Y68000D01*
X134500D01*
Y71421D01*
D02*
G37*
G36*
X191421Y67000D02*
X188000D01*
Y63579D01*
X188532Y63649D01*
X189493Y64047D01*
X190319Y64681D01*
X190953Y65507D01*
X191351Y66468D01*
X191421Y67000D01*
D02*
G37*
G36*
X187000D02*
X183579D01*
X183649Y66468D01*
X184047Y65507D01*
X184681Y64681D01*
X185507Y64047D01*
X186468Y63649D01*
X187000Y63579D01*
Y67000D01*
D02*
G37*
G36*
X138921D02*
X135500D01*
Y63579D01*
X136032Y63649D01*
X136993Y64047D01*
X137819Y64681D01*
X138453Y65507D01*
X138851Y66468D01*
X138921Y67000D01*
D02*
G37*
G36*
X134500D02*
X131079D01*
X131149Y66468D01*
X131547Y65507D01*
X132181Y64681D01*
X133007Y64047D01*
X133968Y63649D01*
X134500Y63579D01*
Y67000D01*
D02*
G37*
G36*
X84500D02*
X81079D01*
X81149Y66468D01*
X81547Y65507D01*
X82181Y64681D01*
X83007Y64047D01*
X83968Y63649D01*
X84500Y63579D01*
Y67000D01*
D02*
G37*
G36*
X123756Y49681D02*
X120500D01*
Y46425D01*
X123756D01*
Y49681D01*
D02*
G37*
G36*
X119500D02*
X116244D01*
Y46425D01*
X119500D01*
Y49681D01*
D02*
G37*
G36*
X78000Y43464D02*
Y40500D01*
X80964D01*
X80910Y40914D01*
X80557Y41765D01*
X79996Y42496D01*
X79265Y43057D01*
X78414Y43410D01*
X78000Y43464D01*
D02*
G37*
G36*
X77000D02*
X76586Y43410D01*
X75735Y43057D01*
X75004Y42496D01*
X74443Y41765D01*
X74090Y40914D01*
X74036Y40500D01*
X77000D01*
Y43464D01*
D02*
G37*
G36*
X80964Y39500D02*
X78000D01*
Y36536D01*
X78414Y36590D01*
X79265Y36943D01*
X79996Y37504D01*
X80557Y38235D01*
X80910Y39086D01*
X80964Y39500D01*
D02*
G37*
G36*
X77000D02*
X74036D01*
X74090Y39086D01*
X74443Y38235D01*
X75004Y37504D01*
X75735Y36943D01*
X76586Y36590D01*
X77000Y36536D01*
Y39500D01*
D02*
G37*
G36*
X149031Y37870D02*
X146957D01*
Y35500D01*
X149031D01*
Y37870D01*
D02*
G37*
G36*
X145957D02*
X143882D01*
Y35500D01*
X145957D01*
Y37870D01*
D02*
G37*
G36*
X149031Y34500D02*
X146957D01*
Y32130D01*
X149031D01*
Y34500D01*
D02*
G37*
G36*
X145957D02*
X143882D01*
Y32130D01*
X145957D01*
Y34500D01*
D02*
G37*
G36*
X151720Y26520D02*
Y23000D01*
X155241D01*
X155167Y23558D01*
X154759Y24543D01*
X154110Y25389D01*
X153263Y26039D01*
X152278Y26447D01*
X151720Y26520D01*
D02*
G37*
G36*
X150720D02*
X150163Y26447D01*
X149177Y26039D01*
X148331Y25389D01*
X147682Y24543D01*
X147274Y23558D01*
X147200Y23000D01*
X150720D01*
Y26520D01*
D02*
G37*
G36*
X130000Y32979D02*
X128624Y32843D01*
X127301Y32442D01*
X126081Y31790D01*
X125012Y30913D01*
X124135Y29844D01*
X123483Y28624D01*
X123082Y27301D01*
X122946Y25925D01*
X123082Y24549D01*
X123483Y23226D01*
X124135Y22006D01*
X125012Y20937D01*
X126081Y20060D01*
X127301Y19409D01*
X128624Y19007D01*
X130000Y18871D01*
X131376Y19007D01*
X132699Y19409D01*
X133919Y20060D01*
X134988Y20937D01*
X135865Y22006D01*
X136517Y23226D01*
X136918Y24549D01*
X137054Y25925D01*
X136918Y27301D01*
X136517Y28624D01*
X135865Y29844D01*
X134988Y30913D01*
X133919Y31790D01*
X132699Y32442D01*
X131376Y32843D01*
X130000Y32979D01*
D02*
G37*
G36*
X90000D02*
X88624Y32843D01*
X87301Y32442D01*
X86081Y31790D01*
X85012Y30913D01*
X84135Y29844D01*
X83483Y28624D01*
X83082Y27301D01*
X82946Y25925D01*
X83082Y24549D01*
X83483Y23226D01*
X84135Y22006D01*
X85012Y20937D01*
X86081Y20060D01*
X87301Y19409D01*
X88624Y19007D01*
X90000Y18871D01*
X91376Y19007D01*
X92699Y19409D01*
X93919Y20060D01*
X94988Y20937D01*
X95865Y22006D01*
X96517Y23226D01*
X96918Y24549D01*
X97054Y25925D01*
X96918Y27301D01*
X96517Y28624D01*
X95865Y29844D01*
X94988Y30913D01*
X93919Y31790D01*
X92699Y32442D01*
X91376Y32843D01*
X90000Y32979D01*
D02*
G37*
G36*
X155241Y22000D02*
X151720D01*
Y18480D01*
X152278Y18553D01*
X153263Y18961D01*
X154110Y19611D01*
X154759Y20457D01*
X155167Y21442D01*
X155241Y22000D01*
D02*
G37*
G36*
X150720D02*
X147200D01*
X147274Y21442D01*
X147682Y20457D01*
X148331Y19611D01*
X149177Y18961D01*
X150163Y18553D01*
X150720Y18480D01*
Y22000D01*
D02*
G37*
G36*
X248921Y17000D02*
X245500D01*
Y13579D01*
X246032Y13649D01*
X246993Y14047D01*
X247819Y14681D01*
X248453Y15507D01*
X248851Y16468D01*
X248921Y17000D01*
D02*
G37*
G36*
X244500D02*
X241079D01*
X241149Y16468D01*
X241547Y15507D01*
X242181Y14681D01*
X243007Y14047D01*
X243968Y13649D01*
X244500Y13579D01*
Y17000D01*
D02*
G37*
%LPD*%
D13*
X182500Y152500D02*
X187500Y157500D01*
X140000Y152500D02*
X182500D01*
X135000Y157500D02*
X140000Y152500D01*
X212437Y214000D02*
X222510D01*
X258780Y224563D02*
X258780Y224563D01*
X222510Y214000D02*
X233073Y224563D01*
X258780D01*
X258780Y224563D02*
X277500D01*
X113985Y203441D02*
X123044Y212500D01*
X210937D01*
X212437Y214000D01*
X18047Y173574D02*
X18926Y174453D01*
X34931D02*
X44230Y165154D01*
X18047Y128156D02*
Y173574D01*
X18926Y174453D02*
X34931D01*
X21750Y120750D02*
Y124453D01*
Y120750D02*
X22500Y120000D01*
X18047Y128156D02*
X21750Y124453D01*
X52500Y100000D02*
Y100000D01*
X23250Y135547D02*
Y139250D01*
X35425Y110221D02*
Y117075D01*
X23250Y135547D02*
X37425Y121372D01*
X35425Y110221D02*
X50493Y95153D01*
X22500Y140000D02*
X23250Y139250D01*
X37425Y115075D02*
X52500Y100000D01*
X22500Y130000D02*
X35425Y117075D01*
X37425Y115075D02*
Y121372D01*
X22500Y170000D02*
X52500Y140000D01*
X22500Y160000D02*
X47346Y135153D01*
X57346D01*
X35000Y97500D02*
X52500Y80000D01*
X22500Y97500D02*
X35000D01*
X34846Y75153D02*
X54507D01*
X22500Y87500D02*
X34846Y75153D01*
X22500Y150000D02*
X37425Y135075D01*
Y125075D02*
Y135075D01*
X312500Y57500D02*
X325000D01*
X335000Y67500D01*
X220000Y55000D02*
X220765Y55765D01*
Y58265D02*
X230000Y67500D01*
X220765Y55765D02*
Y58265D01*
X238703Y67500D02*
X240000D01*
X220000Y48797D02*
X238703Y67500D01*
X220000Y45000D02*
Y48797D01*
X188780Y22500D02*
X189161Y22882D01*
X188780Y22500D02*
Y34764D01*
X189161Y22882D02*
X278926D01*
X280001Y23957D01*
X240547Y45656D02*
Y50666D01*
X244587Y54705D01*
Y55001D01*
X240547Y45656D02*
X243156Y43047D01*
X250547D01*
X304507Y55154D02*
X321307Y71953D01*
X339453Y75656D02*
Y79344D01*
X297654Y55154D02*
X304507D01*
X335750Y83047D02*
Y86750D01*
X335000Y87500D02*
X335750Y86750D01*
Y83047D02*
X339453Y79344D01*
X335750Y71953D02*
X339453Y75656D01*
X321307Y71953D02*
X335750D01*
X292500Y50000D02*
X297654Y55154D01*
X318256Y77500D02*
X335000D01*
X315909Y75153D02*
X318256Y77500D01*
X297346Y75153D02*
X315909D01*
X292500Y80000D02*
X297346Y75153D01*
X22500Y47500D02*
Y57500D01*
X57653Y165154D02*
X62500Y170000D01*
X44230Y165154D02*
X57653D01*
X22500Y47500D02*
X42500D01*
X315000Y97500D02*
X335000D01*
X302500Y110000D02*
X315000Y97500D01*
X325000Y107500D02*
X335000D01*
X302500Y130000D02*
X325000Y107500D01*
X312500Y140000D02*
X335000Y117500D01*
X277500Y224563D02*
X277563Y224500D01*
X296814D01*
X312500Y208814D01*
Y140000D02*
Y208814D01*
X287500Y205000D02*
X294354D01*
X297654Y201700D01*
Y187993D02*
Y201700D01*
X285941Y203441D02*
X287500Y205000D01*
X171756Y203441D02*
X285941D01*
X264350Y222500D02*
X290000D01*
X258642Y216791D02*
X264350Y222500D01*
X290000D02*
X302500Y210000D01*
X82897Y203441D02*
X113985D01*
X69456Y190000D02*
X82897Y203441D01*
X62500Y190000D02*
X69456D01*
X304507Y184846D02*
X310000Y179354D01*
Y132500D02*
Y179354D01*
X22500Y67500D02*
X37994D01*
X40341Y65153D01*
X57653D01*
X62500Y70000D01*
X87719Y71953D02*
X92172Y67500D01*
X115000D01*
X30000Y70000D02*
X52500D01*
X22500Y77500D02*
X30000Y70000D01*
X81510Y75000D02*
X84010Y77500D01*
X60000Y75000D02*
X81510D01*
X56089Y71089D02*
X60000Y75000D01*
X53589Y71089D02*
X56089D01*
X52500Y70000D02*
X53589Y71089D01*
X54507Y75153D02*
X58265Y78911D01*
X61411D01*
X62500Y80000D01*
X37425Y125075D02*
X52500Y110000D01*
X50493Y95153D02*
X57346D01*
X62500Y90000D01*
X57346Y135153D02*
X62500Y130000D01*
X66799Y182865D02*
X70008Y179656D01*
X74054D01*
X62500Y190000D02*
X66799Y185701D01*
Y182865D02*
Y185701D01*
X74054Y179656D02*
X85000Y168710D01*
Y157500D02*
Y168710D01*
Y157500D02*
X90000Y152500D01*
X71425Y162827D02*
X72500Y161752D01*
X69673Y162827D02*
X71425D01*
X62500Y170000D02*
X69673Y162827D01*
X183047Y133047D02*
X187500Y137500D01*
X139453Y113047D02*
X183047D01*
X139453Y103047D02*
X183047D01*
Y123047D02*
X187500Y127500D01*
X135000D02*
X139453Y123047D01*
Y133047D02*
X183047D01*
X139453Y123047D02*
X183047D01*
X135000Y107500D02*
X139453Y103047D01*
X183047D02*
X187500Y107500D01*
X135000Y117500D02*
X139453Y113047D01*
X183047D02*
X187500Y117500D01*
X135000Y137500D02*
X139453Y133047D01*
X187500Y117500D02*
X191953Y113047D01*
X91953Y73047D02*
X121188D01*
X85000Y77500D02*
X85899Y76601D01*
X88399D01*
X91953Y73047D01*
X84010Y77500D02*
X85000D01*
X121188Y73047D02*
X125640Y77500D01*
X135000D01*
X62500Y80000D02*
X72500D01*
X80000Y87500D02*
X85000D01*
X72500Y80000D02*
X80000Y87500D01*
X67346Y84846D02*
X80000Y97500D01*
X57346Y84846D02*
X67346D01*
X80000Y97500D02*
X85000D01*
X62500Y90000D02*
X80000Y107500D01*
X85000D01*
X67500Y105000D02*
X80000Y117500D01*
X85000D01*
X57500Y105000D02*
X67500D01*
X57654Y115154D02*
X67654D01*
X80000Y127500D02*
X85000D01*
X67654Y115154D02*
X80000Y127500D01*
X70000Y137500D02*
X85000D01*
X62500Y130000D02*
X70000Y137500D01*
X84425Y146925D02*
X85000Y147500D01*
X66279Y146925D02*
X84425D01*
X64200Y144846D02*
X66279Y146925D01*
X187500Y77500D02*
X191953Y73047D01*
X224938D02*
X229390Y77500D01*
X191953Y73047D02*
X224938D01*
X229390Y77500D02*
X240000D01*
X232500Y177500D02*
X250000Y160000D01*
X135000Y222500D02*
X140000Y217500D01*
X60000Y222500D02*
X135000D01*
X197303Y177500D02*
X204456D01*
X209456Y182500D01*
X217500D01*
X250000Y115000D02*
Y160000D01*
X85000Y87500D02*
X89453Y83047D01*
X139453D02*
X183047D01*
X135000Y87500D02*
X139453Y83047D01*
X187500Y87500D02*
X191953Y83047D01*
X85000Y107500D02*
X89453Y103047D01*
X130547D01*
Y93047D02*
X135000Y97500D01*
X183047Y93047D02*
X187500Y97500D01*
X139453Y93047D02*
X183047D01*
X187500Y107500D02*
X191953Y103047D01*
X235547Y93047D02*
X240000Y97500D01*
X191953Y93047D02*
X235547D01*
X130547Y113047D02*
X135000Y117500D01*
X89453Y113047D02*
X130547D01*
X235547D02*
X240000Y117500D01*
X191953Y113047D02*
X235547D01*
X85000Y127500D02*
X89453Y123047D01*
X187500Y127500D02*
X191953Y123047D01*
X130547Y133047D02*
X135000Y137500D01*
X89453Y133047D02*
X130547D01*
X235547D02*
X240000Y137500D01*
X191953Y133047D02*
X235547D01*
X57346Y144846D02*
X64200D01*
X52500Y140000D02*
X57346Y144846D01*
X85000Y147500D02*
X89453Y143047D01*
X130547D01*
X183047D02*
X187500Y147500D01*
X191953Y143047D01*
X167697Y207500D02*
X171756Y203441D01*
X297654Y187993D02*
X300800Y184846D01*
X304507D01*
X182500Y182500D02*
X182582Y182582D01*
Y187582D01*
X187500Y192500D01*
Y157500D02*
X192500Y152500D01*
X234149Y157500D02*
X240000D01*
X229149Y152500D02*
X234149Y157500D01*
X192500Y152500D02*
X229149D01*
X90000D02*
X130000D01*
X135000Y157500D01*
X76419Y71953D02*
X87719D01*
X258642Y215413D02*
Y216791D01*
X188543Y35000D02*
X188780Y34764D01*
X225000Y47500D02*
X232500Y55000D01*
X135000Y147500D02*
X139453Y143047D01*
X191953D02*
X235547D01*
X85000Y137500D02*
X89453Y133047D01*
X52500Y110000D02*
X57654Y115154D01*
X130547Y123047D02*
X135000Y127500D01*
X235547Y123047D02*
X240000Y127500D01*
X130547Y103047D02*
X135000Y107500D01*
X191953Y103047D02*
X235547D01*
X240000Y107500D01*
X52500Y80000D02*
X57346Y84846D01*
X89453Y93047D02*
X130547D01*
X135000Y97500D02*
X139453Y93047D01*
X187500Y97500D02*
X191953Y93047D01*
X89453Y83047D02*
X130547D01*
X135000Y87500D01*
X191953Y83047D02*
X235547D01*
X240000Y87500D01*
X273041Y47436D02*
Y47486D01*
X277509Y42969D02*
X282491D01*
X286951Y47428D01*
Y73204D01*
X292500Y78753D02*
Y80000D01*
X62500Y70000D02*
X74466D01*
X76419Y71953D01*
X243543Y38957D02*
X280001D01*
X235000Y47500D02*
X243543Y38957D01*
X280000Y31043D02*
X280001Y38957D01*
X232500Y55000D02*
X237500D01*
X130547Y143047D02*
X135000Y147500D01*
X139453Y143047D02*
X183047D01*
X235547D02*
X240000Y147500D01*
X187500Y137500D02*
X191953Y133047D01*
X89453Y123047D02*
X130547D01*
X191953D02*
X235547D01*
X135000Y77500D02*
X139453Y73047D01*
X172438D01*
X176890Y77500D01*
X187500D01*
X52500Y100000D02*
X57500Y105000D01*
X85000Y117500D02*
X89453Y113047D01*
X85000Y97500D02*
X89453Y93047D01*
X183047Y83047D02*
X187500Y87500D01*
X250547Y43047D02*
X255000Y47500D01*
X259453Y51953D01*
X268574D01*
X273041Y47486D01*
Y47436D02*
X277509Y42969D01*
X286951Y73204D02*
X292500Y78753D01*
X20499Y110999D02*
X19999Y111499D01*
X19000D01*
X18500Y110999D01*
Y109000D01*
X19000Y108500D01*
X19999D01*
X20499Y109000D01*
Y110000D01*
X19500D01*
X21499Y108500D02*
Y111499D01*
X23498Y108500D01*
Y111499D01*
X24498D02*
Y108500D01*
X25998D01*
X26497Y109000D01*
Y110999D01*
X25998Y111499D01*
X24498D01*
X17999Y36000D02*
X16000D01*
X17999Y37999D01*
Y38499D01*
X17500Y38999D01*
X16500D01*
X16000Y38499D01*
X18999Y37999D02*
X20998Y36000D01*
X19999Y37000D01*
X20998Y37999D01*
X18999Y36000D01*
X23997Y38499D02*
X23498Y38999D01*
X22498D01*
X21998Y38499D01*
Y36500D01*
X22498Y36000D01*
X23498D01*
X23997Y36500D01*
Y37499D01*
X22998D01*
X24997Y36000D02*
Y38999D01*
X26996Y36000D01*
Y38999D01*
X27996D02*
Y36000D01*
X29496D01*
X29996Y36500D01*
Y38499D01*
X29496Y38999D01*
X27996D01*
X335499Y58499D02*
X334999Y58999D01*
X334000D01*
X333500Y58499D01*
Y56500D01*
X334000Y56000D01*
X334999D01*
X335499Y56500D01*
Y57499D01*
X334500D01*
X336499Y56000D02*
Y58999D01*
X338498Y56000D01*
Y58999D01*
X339498D02*
Y56000D01*
X340998D01*
X341497Y56500D01*
Y58499D01*
X340998Y58999D01*
X339498D01*
X6000Y168500D02*
Y170499D01*
X7000Y171499D01*
X7999Y170499D01*
Y168500D01*
Y170000D01*
X6000D01*
Y161499D02*
Y158500D01*
X7500D01*
X7999Y159000D01*
Y159500D01*
X7500Y160000D01*
X6000D01*
X7500D01*
X7999Y160499D01*
Y160999D01*
X7500Y161499D01*
X6000D01*
X7999Y150999D02*
X7500Y151499D01*
X6500D01*
X6000Y150999D01*
Y149000D01*
X6500Y148500D01*
X7500D01*
X7999Y149000D01*
X6000Y141499D02*
Y138500D01*
X7500D01*
X7999Y139000D01*
Y140999D01*
X7500Y141499D01*
X6000D01*
X7999Y131499D02*
X6000D01*
Y128500D01*
X7999D01*
X6000Y129999D02*
X7000D01*
X7500Y66000D02*
Y68999D01*
X6000Y67500D01*
X7999D01*
X6000Y76000D02*
Y78999D01*
X7500D01*
X7999Y78499D01*
Y77500D01*
X7500Y77000D01*
X6000D01*
X7999Y88499D02*
X7500Y88999D01*
X6500D01*
X6000Y88499D01*
Y86500D01*
X6500Y86000D01*
X7500D01*
X7999Y86500D01*
Y87499D01*
X7000D01*
X7999Y98999D02*
X6000D01*
Y97500D01*
X7000D01*
X6000D01*
Y96000D01*
X348000Y73500D02*
Y74999D01*
X347500Y75499D01*
X347001Y74999D01*
Y74000D01*
X346501Y73500D01*
X346001Y74000D01*
Y75499D01*
X348000Y76499D02*
Y77499D01*
Y76999D01*
X346001D01*
Y76499D01*
X349000Y79998D02*
Y80498D01*
X348500Y80998D01*
X346001D01*
Y79498D01*
X346501Y78998D01*
X347500D01*
X348000Y79498D01*
Y80998D01*
X346501Y86000D02*
X346001Y86500D01*
Y87499D01*
X346501Y87999D01*
X347001D01*
X347500Y87499D01*
Y87000D01*
Y87499D01*
X348000Y87999D01*
X348500D01*
X349000Y87499D01*
Y86500D01*
X348500Y86000D01*
X349000Y97999D02*
Y96000D01*
X347001Y97999D01*
X346501D01*
X346001Y97500D01*
Y96500D01*
X346501Y96000D01*
X349000Y106000D02*
Y107000D01*
Y106500D01*
X346001D01*
X346501Y106000D01*
X346001Y114999D02*
Y114000D01*
X346501Y113500D01*
X348500D01*
X349000Y114000D01*
Y114999D01*
X348500Y115499D01*
X346501D01*
X346001Y114999D01*
Y118498D02*
Y116499D01*
X349000D01*
Y118498D01*
X347500Y116499D02*
Y117499D01*
X331502Y135000D02*
X337500D01*
Y137999D01*
X336500Y138999D01*
X335501D01*
X334501Y137999D01*
Y135000D01*
Y137999D01*
X333501Y138999D01*
X332502D01*
X331502Y137999D01*
Y135000D01*
X333501Y141998D02*
Y143997D01*
X334501Y144997D01*
X337500D01*
Y141998D01*
X336500Y140998D01*
X335501Y141998D01*
Y144997D01*
X337500Y146996D02*
X333501D01*
Y149995D01*
X334501Y150995D01*
X337500D01*
X333501Y152994D02*
X336500D01*
X337500Y153994D01*
Y156993D01*
X338500D01*
X339499Y155993D01*
Y154993D01*
X337500Y156993D02*
X333501D01*
X337500Y158992D02*
Y160992D01*
Y159992D01*
X333501D01*
Y158992D01*
X337500Y169989D02*
X331502D01*
X333501Y171988D01*
X331502Y173987D01*
X337500D01*
X333501Y176986D02*
Y178986D01*
X334501Y179985D01*
X337500D01*
Y176986D01*
X336500Y175987D01*
X335501Y176986D01*
Y179985D01*
X332502Y182984D02*
X333501D01*
Y181985D01*
Y183984D01*
Y182984D01*
X336500D01*
X337500Y183984D01*
Y189982D02*
Y187983D01*
X336500Y186983D01*
X334501D01*
X333501Y187983D01*
Y189982D01*
X334501Y190982D01*
X335501D01*
Y186983D01*
D33*
X72500Y168248D02*
D03*
D34*
Y161752D02*
D03*
D35*
Y175644D02*
D03*
X72499Y182731D02*
D03*
X280000Y46043D02*
D03*
X280001Y38957D02*
D03*
X280000Y31043D02*
D03*
X280001Y23957D02*
D03*
D36*
X250351Y171277D02*
D03*
Y179151D02*
D03*
X227500Y157500D02*
D03*
Y165374D02*
D03*
X175000Y158563D02*
D03*
Y166437D02*
D03*
X125000Y158563D02*
D03*
Y166437D02*
D03*
D37*
X258642Y179587D02*
D03*
Y215413D02*
D03*
X276358D02*
D03*
Y179587D02*
D03*
D38*
X146063Y45000D02*
D03*
X153937D02*
D03*
D39*
X188543Y35000D02*
D03*
X181457Y34999D02*
D03*
X146457Y35000D02*
D03*
X153543Y35001D02*
D03*
X237500Y55000D02*
D03*
X244587Y55001D02*
D03*
D40*
X250942Y171277D02*
X264066Y158152D01*
X269348D01*
X285000Y167500D02*
Y197500D01*
X230000D02*
X239803D01*
X285000D01*
X269929Y55819D02*
Y60071D01*
X115000Y173396D02*
X120174Y178570D01*
X125197Y197500D02*
X154803D01*
X120000D02*
X120174Y197326D01*
Y178570D02*
Y197326D01*
X162888Y175013D02*
Y197112D01*
X72500Y168248D02*
Y175644D01*
X72499Y182731D02*
X72500Y182732D01*
Y187303D01*
X82697Y197500D01*
X230000Y185000D02*
Y197500D01*
X210197D02*
X230000D01*
X217500Y172500D02*
X230000Y185000D01*
X217500Y157500D02*
Y172500D01*
X162500Y197500D02*
X167697D01*
X154803D02*
X162500D01*
X162888Y197112D01*
X120000Y197500D02*
X125197D01*
X112303D02*
X120000D01*
X82697D02*
X112303D01*
X167697D02*
X197303D01*
X210197D01*
X123688Y40919D02*
X123688Y40919D01*
X138102Y45000D02*
X146063D01*
X123688Y40919D02*
X134022D01*
X138102Y45000D01*
X115006Y40919D02*
X123688D01*
X110000Y45925D02*
X115006Y40919D01*
X153543Y35001D02*
X153544Y35000D01*
X153543Y35296D02*
X153937Y35690D01*
X124469Y158032D02*
X125000Y158563D01*
X217500Y157500D02*
X227500D01*
X162888Y175013D02*
X165000Y172901D01*
X280000Y167500D02*
X285000D01*
Y137500D02*
Y167500D01*
Y75142D02*
Y122500D01*
X269929Y55819D02*
X279705Y46043D01*
X245000Y47500D02*
X254248Y56748D01*
X153544Y35000D02*
X181457Y34999D01*
X153543Y35001D02*
Y35296D01*
X153937Y35690D02*
Y45000D01*
X115000Y157500D02*
X115532Y158032D01*
X124469D01*
X115000Y157500D02*
Y173396D01*
X165000Y157500D02*
Y172901D01*
X270000Y157500D02*
X280000Y167500D01*
X285000Y137500D02*
X292500Y130000D01*
X269348Y158152D02*
X270000Y157500D01*
X250351Y171277D02*
X250942D01*
X285000Y122500D02*
X292500Y130000D01*
X269929Y60071D02*
X285000Y75142D01*
X254248Y56748D02*
X269000D01*
X279705Y46043D02*
X280000D01*
X269000Y56748D02*
X269929Y55819D01*
D41*
X165000Y157500D02*
X170000D01*
X171063Y158563D02*
X175000D01*
X170000Y157500D02*
X171063Y158563D01*
D42*
X22500Y140000D02*
D03*
Y150000D02*
D03*
Y160000D02*
D03*
Y130000D02*
D03*
Y120000D02*
D03*
Y67500D02*
D03*
Y77500D02*
D03*
Y87500D02*
D03*
Y57500D02*
D03*
Y47500D02*
D03*
X335000Y87500D02*
D03*
Y97500D02*
D03*
Y107500D02*
D03*
Y77500D02*
D03*
Y67500D02*
D03*
X165000D02*
D03*
Y77500D02*
D03*
Y87500D02*
D03*
Y97500D02*
D03*
Y107500D02*
D03*
Y117500D02*
D03*
Y127500D02*
D03*
Y137500D02*
D03*
Y147500D02*
D03*
Y157500D02*
D03*
X135000Y67500D02*
D03*
Y77500D02*
D03*
Y87500D02*
D03*
Y97500D02*
D03*
Y107500D02*
D03*
Y117500D02*
D03*
Y127500D02*
D03*
Y137500D02*
D03*
Y147500D02*
D03*
X187500D02*
D03*
Y137500D02*
D03*
Y127500D02*
D03*
Y117500D02*
D03*
Y107500D02*
D03*
Y97500D02*
D03*
Y87500D02*
D03*
Y77500D02*
D03*
Y67500D02*
D03*
X217500Y157500D02*
D03*
Y147500D02*
D03*
Y137500D02*
D03*
Y127500D02*
D03*
Y117500D02*
D03*
Y107500D02*
D03*
Y97500D02*
D03*
Y87500D02*
D03*
Y77500D02*
D03*
Y67500D02*
D03*
X240000Y147500D02*
D03*
Y137500D02*
D03*
Y127500D02*
D03*
Y117500D02*
D03*
Y107500D02*
D03*
Y97500D02*
D03*
Y87500D02*
D03*
Y77500D02*
D03*
Y67500D02*
D03*
X270000Y157500D02*
D03*
Y147500D02*
D03*
Y137500D02*
D03*
Y127500D02*
D03*
Y117500D02*
D03*
Y107500D02*
D03*
Y97500D02*
D03*
Y87500D02*
D03*
Y77500D02*
D03*
Y67500D02*
D03*
X85000Y147500D02*
D03*
Y137500D02*
D03*
Y127500D02*
D03*
Y117500D02*
D03*
Y107500D02*
D03*
Y97500D02*
D03*
Y87500D02*
D03*
Y77500D02*
D03*
Y67500D02*
D03*
X115000Y157500D02*
D03*
Y147500D02*
D03*
Y137500D02*
D03*
Y127500D02*
D03*
Y117500D02*
D03*
Y107500D02*
D03*
Y97500D02*
D03*
Y87500D02*
D03*
Y77500D02*
D03*
Y67500D02*
D03*
X205000Y17500D02*
D03*
X215000D02*
D03*
X225000D02*
D03*
X235000D02*
D03*
X245000D02*
D03*
X255000D02*
D03*
X265000D02*
D03*
X205000Y47500D02*
D03*
X215000D02*
D03*
X225000D02*
D03*
X235000D02*
D03*
X245000D02*
D03*
X255000D02*
D03*
D43*
X22500Y170000D02*
D03*
Y97500D02*
D03*
X335000Y117500D02*
D03*
X265000Y47500D02*
D03*
D44*
X151220Y22500D02*
D03*
X188780D02*
D03*
D45*
X135000Y157500D02*
D03*
X187500D02*
D03*
X240000D02*
D03*
X85000D02*
D03*
D46*
X197303Y217500D02*
D03*
Y207500D02*
D03*
Y197500D02*
D03*
Y187500D02*
D03*
Y177500D02*
D03*
X167697D02*
D03*
Y187500D02*
D03*
Y197500D02*
D03*
Y207500D02*
D03*
Y217500D02*
D03*
X239803D02*
D03*
Y207500D02*
D03*
Y197500D02*
D03*
Y187500D02*
D03*
Y177500D02*
D03*
X210197D02*
D03*
Y187500D02*
D03*
Y197500D02*
D03*
Y207500D02*
D03*
Y217500D02*
D03*
X154803D02*
D03*
Y207500D02*
D03*
Y197500D02*
D03*
Y187500D02*
D03*
Y177500D02*
D03*
X125197D02*
D03*
Y187500D02*
D03*
Y197500D02*
D03*
Y207500D02*
D03*
Y217500D02*
D03*
X112303D02*
D03*
Y207500D02*
D03*
Y197500D02*
D03*
Y187500D02*
D03*
Y177500D02*
D03*
X82697D02*
D03*
Y187500D02*
D03*
Y197500D02*
D03*
Y207500D02*
D03*
Y217500D02*
D03*
D47*
X110000Y45925D02*
D03*
D48*
X120000D02*
D03*
D49*
X90000Y25925D02*
D03*
X130000D02*
D03*
D50*
X62500Y20000D02*
D03*
X52500D02*
D03*
X292500D02*
D03*
X302500D02*
D03*
X52500Y210000D02*
D03*
X62500Y200000D02*
D03*
X52500D02*
D03*
X62500Y190000D02*
D03*
X52500D02*
D03*
X62500Y180000D02*
D03*
X52500D02*
D03*
X62500Y170000D02*
D03*
X52500D02*
D03*
X62500Y160000D02*
D03*
X52500D02*
D03*
X62500Y150000D02*
D03*
X52500D02*
D03*
X62500Y140000D02*
D03*
X52500D02*
D03*
X62500Y130000D02*
D03*
X52500D02*
D03*
X62500Y120000D02*
D03*
X52500D02*
D03*
X62500Y110000D02*
D03*
X52500D02*
D03*
X62500Y100000D02*
D03*
X52500D02*
D03*
X62500Y90000D02*
D03*
X52500D02*
D03*
X62500Y80000D02*
D03*
X52500D02*
D03*
X62500Y70000D02*
D03*
X52500D02*
D03*
X62500Y60000D02*
D03*
X52500D02*
D03*
X62500Y50000D02*
D03*
X52500D02*
D03*
X62500Y40000D02*
D03*
X52500D02*
D03*
X62500Y30000D02*
D03*
X52500D02*
D03*
X292500Y210000D02*
D03*
X302500Y200000D02*
D03*
X292500D02*
D03*
X302500Y190000D02*
D03*
X292500D02*
D03*
X302500Y180000D02*
D03*
X292500D02*
D03*
X302500Y170000D02*
D03*
X292500D02*
D03*
X302500Y160000D02*
D03*
X292500D02*
D03*
X302500Y150000D02*
D03*
X292500D02*
D03*
X302500Y140000D02*
D03*
X292500D02*
D03*
X302500Y130000D02*
D03*
X292500D02*
D03*
X302500Y120000D02*
D03*
X292500D02*
D03*
X302500Y110000D02*
D03*
X292500D02*
D03*
X302500Y100000D02*
D03*
X292500D02*
D03*
X302500Y90000D02*
D03*
X292500D02*
D03*
X302500Y80000D02*
D03*
X292500D02*
D03*
X302500Y70000D02*
D03*
X292500D02*
D03*
X302500Y60000D02*
D03*
X292500D02*
D03*
X302500Y50000D02*
D03*
X292500D02*
D03*
X302500Y40000D02*
D03*
X292500D02*
D03*
X302500Y30000D02*
D03*
X292500D02*
D03*
D51*
X62500Y210000D02*
D03*
X302500D02*
D03*
D52*
X20000D02*
D03*
X335000D02*
D03*
Y20000D02*
D03*
X20000D02*
D03*
D53*
X77500Y40000D02*
D03*
X42500Y205000D02*
D03*
X175000Y190000D02*
D03*
X140000Y185000D02*
D03*
X230000Y67500D02*
D03*
X267500Y190000D02*
D03*
Y210000D02*
D03*
X250000Y190000D02*
D03*
X310000Y132500D02*
D03*
X227500Y167500D02*
D03*
X232500Y177500D02*
D03*
X222500Y190000D02*
D03*
X262500Y152500D02*
D03*
X267500Y165000D02*
D03*
X222500Y210000D02*
D03*
X60000Y222500D02*
D03*
X217500Y182500D02*
D03*
X250000Y115000D02*
D03*
X220000Y55000D02*
D03*
X182500Y182500D02*
D03*
X187500Y192500D02*
D03*
X140000Y217500D02*
D03*
M02*
