G04*
G04 #@! TF.GenerationSoftware,Altium Limited,Altium Designer,20.0.13 (296)*
G04*
G04 Layer_Color=32896*
%FSLAX25Y25*%
%MOIN*%
G70*
G01*
G75*
%ADD12C,0.00787*%
%ADD13C,0.01000*%
D12*
X226220Y24449D02*
X235866D01*
X226220Y30551D02*
X235866D01*
Y24449D02*
X237343D01*
Y30551D01*
X235866D02*
X237343D01*
X224744Y24449D02*
X226220D01*
X224744D02*
Y30551D01*
X226220D01*
X245177Y40551D02*
X254823D01*
X245177Y34449D02*
X254823D01*
X243701Y40551D02*
X245177D01*
X243701Y34449D02*
Y40551D01*
Y34449D02*
X245177D01*
X254823Y40551D02*
X256299D01*
Y34449D02*
Y40551D01*
X254823Y34449D02*
X256299D01*
X226220Y40551D02*
X235866D01*
X226220Y34448D02*
X235866D01*
X224744Y40551D02*
X226220D01*
X224744Y34448D02*
Y40551D01*
Y34448D02*
X226220D01*
X235866Y40551D02*
X237343D01*
Y34448D02*
Y40551D01*
X235866Y34448D02*
X237343D01*
X108051Y76220D02*
Y85866D01*
X101949Y76220D02*
Y85866D01*
X108051D02*
Y87343D01*
X101949D02*
X108051D01*
X101949Y85866D02*
Y87343D01*
X108051Y74744D02*
Y76220D01*
X101949Y74744D02*
X108051D01*
X101949D02*
Y76220D01*
X128051Y85177D02*
Y94823D01*
X121949Y85177D02*
Y94823D01*
X128051D02*
Y96299D01*
X121949D02*
X128051D01*
X121949Y94823D02*
Y96299D01*
X128051Y83701D02*
Y85177D01*
X121949Y83701D02*
X128051D01*
X121949D02*
Y85177D01*
X108051Y95177D02*
Y104823D01*
X101949Y95177D02*
Y104823D01*
X108051D02*
Y106299D01*
X101949D02*
X108051D01*
X101949Y104823D02*
Y106299D01*
X108051Y93701D02*
Y95177D01*
X101949Y93701D02*
X108051D01*
X101949D02*
Y95177D01*
X128051Y105177D02*
Y114823D01*
X121949Y105177D02*
Y114823D01*
X128051D02*
Y116299D01*
X121949D02*
X128051D01*
X121949Y114823D02*
Y116299D01*
X128051Y103701D02*
Y105177D01*
X121949Y103701D02*
X128051D01*
X121949D02*
Y105177D01*
X108051Y115177D02*
Y124823D01*
X101949Y115177D02*
Y124823D01*
X108051D02*
Y126299D01*
X101949D02*
X108051D01*
X101949Y124823D02*
Y126299D01*
X108051Y113701D02*
Y115177D01*
X101949Y113701D02*
X108051D01*
X101949D02*
Y115177D01*
X128051Y125177D02*
Y134823D01*
X121949Y125177D02*
Y134823D01*
X128051D02*
Y136299D01*
X121949D02*
X128051D01*
X121949Y134823D02*
Y136299D01*
X128051Y123701D02*
Y125177D01*
X121949Y123701D02*
X128051D01*
X121949D02*
Y125177D01*
X108051Y133720D02*
Y143366D01*
X101949Y133720D02*
Y143366D01*
X108051D02*
Y144843D01*
X101949D02*
X108051D01*
X101949Y143366D02*
Y144843D01*
X108051Y132244D02*
Y133720D01*
X101949Y132244D02*
X108051D01*
X101949D02*
Y133720D01*
X128051Y145177D02*
Y154823D01*
X121949Y145177D02*
Y154823D01*
X128051D02*
Y156299D01*
X121949D02*
X128051D01*
X121949Y154823D02*
Y156299D01*
X128051Y143701D02*
Y145177D01*
X121949Y143701D02*
X128051D01*
X121949D02*
Y145177D01*
X210551Y76634D02*
Y86280D01*
X204448Y76634D02*
Y86280D01*
X210551D02*
Y87756D01*
X204448D02*
X210551D01*
X204448Y86280D02*
Y87756D01*
X210551Y75157D02*
Y76634D01*
X204448Y75157D02*
X210551D01*
X204448D02*
Y76634D01*
X230551Y86634D02*
Y96280D01*
X224448Y86634D02*
Y96280D01*
X230551D02*
Y97756D01*
X224448D02*
X230551D01*
X224448Y96280D02*
Y97756D01*
X230551Y85157D02*
Y86634D01*
X224448Y85157D02*
X230551D01*
X224448D02*
Y86634D01*
X210551Y97677D02*
Y107323D01*
X204449Y97677D02*
Y107323D01*
X210551D02*
Y108799D01*
X204449D02*
X210551D01*
X204449Y107323D02*
Y108799D01*
X210551Y96201D02*
Y97677D01*
X204449Y96201D02*
X210551D01*
X204449D02*
Y97677D01*
X230551Y107677D02*
Y117323D01*
X224449Y107677D02*
Y117323D01*
X230551D02*
Y118799D01*
X224449D02*
X230551D01*
X224449Y117323D02*
Y118799D01*
X230551Y106201D02*
Y107677D01*
X224449Y106201D02*
X230551D01*
X224449D02*
Y107677D01*
X210551Y116634D02*
Y126280D01*
X204448Y116634D02*
Y126280D01*
X210551D02*
Y127756D01*
X204448D02*
X210551D01*
X204448Y126280D02*
Y127756D01*
X210551Y115157D02*
Y116634D01*
X204448Y115157D02*
X210551D01*
X204448D02*
Y116634D01*
X230551Y126634D02*
Y136280D01*
X224448Y126634D02*
Y136280D01*
X230551D02*
Y137756D01*
X224448D02*
X230551D01*
X224448Y136280D02*
Y137756D01*
X230551Y125157D02*
Y126634D01*
X224448Y125157D02*
X230551D01*
X224448D02*
Y126634D01*
X210551Y137677D02*
Y147323D01*
X204449Y137677D02*
Y147323D01*
X210551D02*
Y148799D01*
X204449D02*
X210551D01*
X204449Y147323D02*
Y148799D01*
X210551Y136201D02*
Y137677D01*
X204449Y136201D02*
X210551D01*
X204449D02*
Y137677D01*
X230551Y146634D02*
Y156280D01*
X224448Y146634D02*
Y156280D01*
X230551D02*
Y157756D01*
X224448D02*
X230551D01*
X224448Y156280D02*
Y157756D01*
X230551Y145157D02*
Y146634D01*
X224448Y145157D02*
X230551D01*
X224448D02*
Y146634D01*
X158051Y77677D02*
Y87323D01*
X151949Y77677D02*
Y87323D01*
X158051D02*
Y88799D01*
X151949D02*
X158051D01*
X151949Y87323D02*
Y88799D01*
X158051Y76201D02*
Y77677D01*
X151949Y76201D02*
X158051D01*
X151949D02*
Y77677D01*
X178051Y86634D02*
Y96280D01*
X171948Y86634D02*
Y96280D01*
X178051D02*
Y97756D01*
X171948D02*
X178051D01*
X171948Y96280D02*
Y97756D01*
X178051Y85157D02*
Y86634D01*
X171948Y85157D02*
X178051D01*
X171948D02*
Y86634D01*
X158051Y95177D02*
Y104823D01*
X151949Y95177D02*
Y104823D01*
X158051D02*
Y106299D01*
X151949D02*
X158051D01*
X151949Y104823D02*
Y106299D01*
X158051Y93701D02*
Y95177D01*
X151949Y93701D02*
X158051D01*
X151949D02*
Y95177D01*
X178051Y107677D02*
Y117323D01*
X171949Y107677D02*
Y117323D01*
X178051D02*
Y118799D01*
X171949D02*
X178051D01*
X171949Y117323D02*
Y118799D01*
X178051Y106201D02*
Y107677D01*
X171949Y106201D02*
X178051D01*
X171949D02*
Y107677D01*
X158051Y116634D02*
Y126280D01*
X151948Y116634D02*
Y126280D01*
X158051D02*
Y127756D01*
X151948D02*
X158051D01*
X151948Y126280D02*
Y127756D01*
X158051Y115157D02*
Y116634D01*
X151948Y115157D02*
X158051D01*
X151948D02*
Y116634D01*
X178051Y127677D02*
Y137323D01*
X171949Y127677D02*
Y137323D01*
X178051D02*
Y138799D01*
X171949D02*
X178051D01*
X171949Y137323D02*
Y138799D01*
X178051Y126201D02*
Y127677D01*
X171949Y126201D02*
X178051D01*
X171949D02*
Y127677D01*
X158051Y135177D02*
Y144823D01*
X151949Y135177D02*
Y144823D01*
X158051D02*
Y146299D01*
X151949D02*
X158051D01*
X151949Y144823D02*
Y146299D01*
X158051Y133701D02*
Y135177D01*
X151949Y133701D02*
X158051D01*
X151949D02*
Y135177D01*
X178051Y145177D02*
Y154823D01*
X171949Y145177D02*
Y154823D01*
X178051D02*
Y156299D01*
X171949D02*
X178051D01*
X171949Y154823D02*
Y156299D01*
X178051Y143701D02*
Y145177D01*
X171949Y143701D02*
X178051D01*
X171949D02*
Y145177D01*
X263051Y76220D02*
Y85866D01*
X256949Y76220D02*
Y85866D01*
X263051D02*
Y87343D01*
X256949D02*
X263051D01*
X256949Y85866D02*
Y87343D01*
X263051Y74744D02*
Y76220D01*
X256949Y74744D02*
X263051D01*
X256949D02*
Y76220D01*
X283051Y86220D02*
Y95866D01*
X276949Y86220D02*
Y95866D01*
X283051D02*
Y97343D01*
X276949D02*
X283051D01*
X276949Y95866D02*
Y97343D01*
X283051Y84744D02*
Y86220D01*
X276949Y84744D02*
X283051D01*
X276949D02*
Y86220D01*
X263051Y96220D02*
Y105866D01*
X256949Y96220D02*
Y105866D01*
X263051D02*
Y107343D01*
X256949D02*
X263051D01*
X256949Y105866D02*
Y107343D01*
X263051Y94744D02*
Y96220D01*
X256949Y94744D02*
X263051D01*
X256949D02*
Y96220D01*
X283051Y106220D02*
Y115866D01*
X276949Y106220D02*
Y115866D01*
X283051D02*
Y117343D01*
X276949D02*
X283051D01*
X276949Y115866D02*
Y117343D01*
X283051Y104744D02*
Y106220D01*
X276949Y104744D02*
X283051D01*
X276949D02*
Y106220D01*
X263051Y115177D02*
Y124823D01*
X256949Y115177D02*
Y124823D01*
X263051D02*
Y126299D01*
X256949D02*
X263051D01*
X256949Y124823D02*
Y126299D01*
X263051Y113701D02*
Y115177D01*
X256949Y113701D02*
X263051D01*
X256949D02*
Y115177D01*
X283051Y126634D02*
Y136280D01*
X276948Y126634D02*
Y136280D01*
X283051D02*
Y137756D01*
X276948D02*
X283051D01*
X276948Y136280D02*
Y137756D01*
X283051Y125157D02*
Y126634D01*
X276948Y125157D02*
X283051D01*
X276948D02*
Y126634D01*
X263215Y135590D02*
Y145236D01*
X257112Y135590D02*
Y145236D01*
X263215D02*
Y146712D01*
X257112D02*
X263215D01*
X257112Y145236D02*
Y146712D01*
X263215Y134114D02*
Y135590D01*
X257112Y134114D02*
X263215D01*
X257112D02*
Y135590D01*
X283051Y146634D02*
Y156280D01*
X276948Y146634D02*
Y156280D01*
X283051D02*
Y157756D01*
X276948D02*
X283051D01*
X276948Y156280D02*
Y157756D01*
X283051Y145157D02*
Y146634D01*
X276948Y145157D02*
X283051D01*
X276948D02*
Y146634D01*
X242913Y23760D02*
X257087D01*
Y31240D01*
X242913Y23760D02*
Y31240D01*
X257087D01*
X47500Y15118D02*
X67500D01*
X47500Y215000D02*
X67500D01*
X47500Y15118D02*
Y215000D01*
X67500Y15118D02*
Y215000D01*
X287500Y15118D02*
X307500D01*
X287500Y215000D02*
X307500D01*
X287500Y15118D02*
Y215000D01*
X307500Y15118D02*
Y215000D01*
D13*
X315492Y10295D02*
Y340906D01*
X39803Y10295D02*
X315492D01*
X39803D02*
Y340906D01*
X315492D01*
X63501Y221998D02*
X64501Y222998D01*
X66500D01*
X67500Y221998D01*
Y218000D01*
X66500Y217000D01*
X64501D01*
X63501Y218000D01*
X61502Y217000D02*
Y222998D01*
X57503Y217000D01*
Y222998D01*
X55504Y217000D02*
X53505D01*
X54504D01*
Y222998D01*
X55504Y221998D01*
X50506D02*
X49506Y222998D01*
X47506D01*
X46507Y221998D01*
Y218000D01*
X47506Y217000D01*
X49506D01*
X50506Y218000D01*
Y221998D01*
X303501D02*
X304501Y222998D01*
X306500D01*
X307500Y221998D01*
Y218000D01*
X306500Y217000D01*
X304501D01*
X303501Y218000D01*
X301502Y217000D02*
Y222998D01*
X297503Y217000D01*
Y222998D01*
X295504D02*
X291505D01*
Y221998D01*
X295504Y218000D01*
Y217000D01*
X240700Y14000D02*
X246698D01*
Y16999D01*
X245698Y17999D01*
X243699D01*
X242699Y16999D01*
Y14000D01*
Y15999D02*
X240700Y17999D01*
Y22997D02*
X246698D01*
X243699Y19998D01*
Y23997D01*
X245698Y25996D02*
X246698Y26996D01*
Y28995D01*
X245698Y29995D01*
X241700D01*
X240700Y28995D01*
Y26996D01*
X241700Y25996D01*
X245698D01*
X255700Y43900D02*
Y49898D01*
X252701D01*
X251701Y48898D01*
Y46899D01*
X252701Y45899D01*
X255700D01*
X253701D02*
X251701Y43900D01*
X249702Y48898D02*
X248702Y49898D01*
X246703D01*
X245703Y48898D01*
Y47899D01*
X246703Y46899D01*
X247703D01*
X246703D01*
X245703Y45899D01*
Y44900D01*
X246703Y43900D01*
X248702D01*
X249702Y44900D01*
X239705Y49898D02*
X243704D01*
Y46899D01*
X241705Y47899D01*
X240705D01*
X239705Y46899D01*
Y44900D01*
X240705Y43900D01*
X242704D01*
X243704Y44900D01*
X236700Y43900D02*
Y49898D01*
X233701D01*
X232701Y48898D01*
Y46899D01*
X233701Y45899D01*
X236700D01*
X234701D02*
X232701Y43900D01*
X230702Y48898D02*
X229702Y49898D01*
X227703D01*
X226703Y48898D01*
Y47899D01*
X227703Y46899D01*
X228703D01*
X227703D01*
X226703Y45899D01*
Y44900D01*
X227703Y43900D01*
X229702D01*
X230702Y44900D01*
X221705Y43900D02*
Y49898D01*
X224704Y46899D01*
X220705D01*
X118500Y90743D02*
Y96741D01*
X115501D01*
X114501Y95742D01*
Y93742D01*
X115501Y92743D01*
X118500D01*
X116501D02*
X114501Y90743D01*
X112502Y95742D02*
X111502Y96741D01*
X109503D01*
X108503Y95742D01*
Y94742D01*
X109503Y93742D01*
X110503D01*
X109503D01*
X108503Y92743D01*
Y91743D01*
X109503Y90743D01*
X111502D01*
X112502Y91743D01*
X102505Y90743D02*
X106504D01*
X102505Y94742D01*
Y95742D01*
X103505Y96741D01*
X105504D01*
X106504Y95742D01*
X136600Y99700D02*
Y105698D01*
X133601D01*
X132601Y104698D01*
Y102699D01*
X133601Y101699D01*
X136600D01*
X134601D02*
X132601Y99700D01*
X130602Y104698D02*
X129602Y105698D01*
X127603D01*
X126603Y104698D01*
Y103699D01*
X127603Y102699D01*
X128603D01*
X127603D01*
X126603Y101699D01*
Y100700D01*
X127603Y99700D01*
X129602D01*
X130602Y100700D01*
X124604Y99700D02*
X122605D01*
X123604D01*
Y105698D01*
X124604Y104698D01*
X118500Y109700D02*
Y115698D01*
X115501D01*
X114501Y114698D01*
Y112699D01*
X115501Y111699D01*
X118500D01*
X116501D02*
X114501Y109700D01*
X112502Y114698D02*
X111502Y115698D01*
X109503D01*
X108503Y114698D01*
Y113699D01*
X109503Y112699D01*
X110503D01*
X109503D01*
X108503Y111699D01*
Y110700D01*
X109503Y109700D01*
X111502D01*
X112502Y110700D01*
X106504Y114698D02*
X105504Y115698D01*
X103505D01*
X102505Y114698D01*
Y110700D01*
X103505Y109700D01*
X105504D01*
X106504Y110700D01*
Y114698D01*
X138500Y119700D02*
Y125698D01*
X135501D01*
X134501Y124698D01*
Y122699D01*
X135501Y121699D01*
X138500D01*
X136501D02*
X134501Y119700D01*
X128503D02*
X132502D01*
X128503Y123699D01*
Y124698D01*
X129503Y125698D01*
X131502D01*
X132502Y124698D01*
X126504Y120700D02*
X125504Y119700D01*
X123505D01*
X122505Y120700D01*
Y124698D01*
X123505Y125698D01*
X125504D01*
X126504Y124698D01*
Y123699D01*
X125504Y122699D01*
X122505D01*
X118500Y129700D02*
Y135698D01*
X115501D01*
X114501Y134698D01*
Y132699D01*
X115501Y131699D01*
X118500D01*
X116501D02*
X114501Y129700D01*
X108503D02*
X112502D01*
X108503Y133699D01*
Y134698D01*
X109503Y135698D01*
X111502D01*
X112502Y134698D01*
X106504D02*
X105504Y135698D01*
X103505D01*
X102505Y134698D01*
Y133699D01*
X103505Y132699D01*
X102505Y131699D01*
Y130700D01*
X103505Y129700D01*
X105504D01*
X106504Y130700D01*
Y131699D01*
X105504Y132699D01*
X106504Y133699D01*
Y134698D01*
X105504Y132699D02*
X103505D01*
X138500Y139700D02*
Y145698D01*
X135501D01*
X134501Y144698D01*
Y142699D01*
X135501Y141699D01*
X138500D01*
X136501D02*
X134501Y139700D01*
X128503D02*
X132502D01*
X128503Y143699D01*
Y144698D01*
X129503Y145698D01*
X131502D01*
X132502Y144698D01*
X126504Y145698D02*
X122505D01*
Y144698D01*
X126504Y140700D01*
Y139700D01*
X118500Y148243D02*
Y154241D01*
X115501D01*
X114501Y153242D01*
Y151242D01*
X115501Y150243D01*
X118500D01*
X116501D02*
X114501Y148243D01*
X108503D02*
X112502D01*
X108503Y152242D01*
Y153242D01*
X109503Y154241D01*
X111502D01*
X112502Y153242D01*
X102505Y154241D02*
X104505Y153242D01*
X106504Y151242D01*
Y149243D01*
X105504Y148243D01*
X103505D01*
X102505Y149243D01*
Y150243D01*
X103505Y151242D01*
X106504D01*
X138500Y159700D02*
Y165698D01*
X135501D01*
X134501Y164698D01*
Y162699D01*
X135501Y161699D01*
X138500D01*
X136501D02*
X134501Y159700D01*
X128503D02*
X132502D01*
X128503Y163699D01*
Y164698D01*
X129503Y165698D01*
X131502D01*
X132502Y164698D01*
X122505Y165698D02*
X126504D01*
Y162699D01*
X124504Y163699D01*
X123505D01*
X122505Y162699D01*
Y160700D01*
X123505Y159700D01*
X125504D01*
X126504Y160700D01*
X220999Y91164D02*
Y97162D01*
X218000D01*
X217001Y96162D01*
Y94163D01*
X218000Y93163D01*
X220999D01*
X219000D02*
X217001Y91164D01*
X211003D02*
X215001D01*
X211003Y95162D01*
Y96162D01*
X212002Y97162D01*
X214002D01*
X215001Y96162D01*
X206004Y91164D02*
Y97162D01*
X209003Y94163D01*
X205005D01*
X240999Y101164D02*
Y107162D01*
X238000D01*
X237001Y106162D01*
Y104163D01*
X238000Y103163D01*
X240999D01*
X239000D02*
X237001Y101164D01*
X231003D02*
X235001D01*
X231003Y105163D01*
Y106162D01*
X232002Y107162D01*
X234002D01*
X235001Y106162D01*
X229003D02*
X228004Y107162D01*
X226004D01*
X225005Y106162D01*
Y105163D01*
X226004Y104163D01*
X227004D01*
X226004D01*
X225005Y103163D01*
Y102164D01*
X226004Y101164D01*
X228004D01*
X229003Y102164D01*
X221000Y112207D02*
Y118205D01*
X218001D01*
X217001Y117206D01*
Y115206D01*
X218001Y114206D01*
X221000D01*
X219001D02*
X217001Y112207D01*
X211003D02*
X215002D01*
X211003Y116206D01*
Y117206D01*
X212003Y118205D01*
X214002D01*
X215002Y117206D01*
X205005Y112207D02*
X209004D01*
X205005Y116206D01*
Y117206D01*
X206005Y118205D01*
X208004D01*
X209004Y117206D01*
X239100Y122200D02*
Y128198D01*
X236101D01*
X235101Y127198D01*
Y125199D01*
X236101Y124199D01*
X239100D01*
X237101D02*
X235101Y122200D01*
X229103D02*
X233102D01*
X229103Y126199D01*
Y127198D01*
X230103Y128198D01*
X232102D01*
X233102Y127198D01*
X227104Y122200D02*
X225104D01*
X226104D01*
Y128198D01*
X227104Y127198D01*
X220999Y131164D02*
Y137162D01*
X218000D01*
X217001Y136162D01*
Y134163D01*
X218000Y133163D01*
X220999D01*
X219000D02*
X217001Y131164D01*
X211003D02*
X215001D01*
X211003Y135162D01*
Y136162D01*
X212002Y137162D01*
X214002D01*
X215001Y136162D01*
X209003D02*
X208003Y137162D01*
X206004D01*
X205005Y136162D01*
Y132164D01*
X206004Y131164D01*
X208003D01*
X209003Y132164D01*
Y136162D01*
X240099Y141164D02*
Y147162D01*
X237100D01*
X236101Y146162D01*
Y144163D01*
X237100Y143163D01*
X240099D01*
X238100D02*
X236101Y141164D01*
X234101D02*
X232102D01*
X233102D01*
Y147162D01*
X234101Y146162D01*
X229103Y142164D02*
X228103Y141164D01*
X226104D01*
X225104Y142164D01*
Y146162D01*
X226104Y147162D01*
X228103D01*
X229103Y146162D01*
Y145162D01*
X228103Y144163D01*
X225104D01*
X220100Y152207D02*
Y158205D01*
X217101D01*
X216101Y157205D01*
Y155206D01*
X217101Y154206D01*
X220100D01*
X218101D02*
X216101Y152207D01*
X214102D02*
X212103D01*
X213102D01*
Y158205D01*
X214102Y157205D01*
X209104D02*
X208104Y158205D01*
X206104D01*
X205105Y157205D01*
Y156206D01*
X206104Y155206D01*
X205105Y154206D01*
Y153207D01*
X206104Y152207D01*
X208104D01*
X209104Y153207D01*
Y154206D01*
X208104Y155206D01*
X209104Y156206D01*
Y157205D01*
X208104Y155206D02*
X206104D01*
X240099Y161164D02*
Y167162D01*
X237100D01*
X236101Y166162D01*
Y164163D01*
X237100Y163163D01*
X240099D01*
X238100D02*
X236101Y161164D01*
X234101D02*
X232102D01*
X233102D01*
Y167162D01*
X234101Y166162D01*
X229103Y167162D02*
X225104D01*
Y166162D01*
X229103Y162163D01*
Y161164D01*
X167600Y92200D02*
Y98198D01*
X164601D01*
X163601Y97198D01*
Y95199D01*
X164601Y94199D01*
X167600D01*
X165601D02*
X163601Y92200D01*
X161602D02*
X159603D01*
X160602D01*
Y98198D01*
X161602Y97198D01*
X152605Y98198D02*
X154604Y97198D01*
X156604Y95199D01*
Y93200D01*
X155604Y92200D01*
X153604D01*
X152605Y93200D01*
Y94199D01*
X153604Y95199D01*
X156604D01*
X187599Y101157D02*
Y107155D01*
X184600D01*
X183601Y106155D01*
Y104156D01*
X184600Y103156D01*
X187599D01*
X185600D02*
X183601Y101157D01*
X181601D02*
X179602D01*
X180602D01*
Y107155D01*
X181601Y106155D01*
X172604Y107155D02*
X176603D01*
Y104156D01*
X174603Y105155D01*
X173604D01*
X172604Y104156D01*
Y102156D01*
X173604Y101157D01*
X175603D01*
X176603Y102156D01*
X167600Y109700D02*
Y115698D01*
X164601D01*
X163601Y114698D01*
Y112699D01*
X164601Y111699D01*
X167600D01*
X165601D02*
X163601Y109700D01*
X161602D02*
X159603D01*
X160602D01*
Y115698D01*
X161602Y114698D01*
X153604Y109700D02*
Y115698D01*
X156604Y112699D01*
X152605D01*
X187600Y122200D02*
Y128198D01*
X184601D01*
X183601Y127198D01*
Y125199D01*
X184601Y124199D01*
X187600D01*
X185601D02*
X183601Y122200D01*
X181602D02*
X179603D01*
X180602D01*
Y128198D01*
X181602Y127198D01*
X176604D02*
X175604Y128198D01*
X173605D01*
X172605Y127198D01*
Y126199D01*
X173605Y125199D01*
X174604D01*
X173605D01*
X172605Y124199D01*
Y123200D01*
X173605Y122200D01*
X175604D01*
X176604Y123200D01*
X167599Y131157D02*
Y137155D01*
X164600D01*
X163601Y136155D01*
Y134156D01*
X164600Y133156D01*
X167599D01*
X165600D02*
X163601Y131157D01*
X161601D02*
X159602D01*
X160602D01*
Y137155D01*
X161601Y136155D01*
X152604Y131157D02*
X156603D01*
X152604Y135155D01*
Y136155D01*
X153604Y137155D01*
X155603D01*
X156603Y136155D01*
X185600Y142200D02*
Y148198D01*
X182601D01*
X181601Y147198D01*
Y145199D01*
X182601Y144199D01*
X185600D01*
X183601D02*
X181601Y142200D01*
X179602D02*
X177603D01*
X178602D01*
Y148198D01*
X179602Y147198D01*
X174604Y142200D02*
X172604D01*
X173604D01*
Y148198D01*
X174604Y147198D01*
X167600Y149700D02*
Y155698D01*
X164601D01*
X163601Y154698D01*
Y152699D01*
X164601Y151699D01*
X167600D01*
X165601D02*
X163601Y149700D01*
X161602D02*
X159603D01*
X160602D01*
Y155698D01*
X161602Y154698D01*
X156604D02*
X155604Y155698D01*
X153604D01*
X152605Y154698D01*
Y150700D01*
X153604Y149700D01*
X155604D01*
X156604Y150700D01*
Y154698D01*
X182600Y159700D02*
Y165698D01*
X179601D01*
X178601Y164698D01*
Y162699D01*
X179601Y161699D01*
X182600D01*
X180601D02*
X178601Y159700D01*
X176602Y160700D02*
X175602Y159700D01*
X173603D01*
X172603Y160700D01*
Y164698D01*
X173603Y165698D01*
X175602D01*
X176602Y164698D01*
Y163699D01*
X175602Y162699D01*
X172603D01*
X267600Y90743D02*
Y96741D01*
X264601D01*
X263601Y95742D01*
Y93742D01*
X264601Y92743D01*
X267600D01*
X265601D02*
X263601Y90743D01*
X261602Y95742D02*
X260602Y96741D01*
X258603D01*
X257603Y95742D01*
Y94742D01*
X258603Y93742D01*
X257603Y92743D01*
Y91743D01*
X258603Y90743D01*
X260602D01*
X261602Y91743D01*
Y92743D01*
X260602Y93742D01*
X261602Y94742D01*
Y95742D01*
X260602Y93742D02*
X258603D01*
X287600Y100700D02*
Y106698D01*
X284601D01*
X283601Y105698D01*
Y103699D01*
X284601Y102699D01*
X287600D01*
X285601D02*
X283601Y100700D01*
X281602Y106698D02*
X277603D01*
Y105698D01*
X281602Y101700D01*
Y100700D01*
X267600Y110700D02*
Y116698D01*
X264601D01*
X263601Y115698D01*
Y113699D01*
X264601Y112699D01*
X267600D01*
X265601D02*
X263601Y110700D01*
X257603Y116698D02*
X259603Y115698D01*
X261602Y113699D01*
Y111700D01*
X260602Y110700D01*
X258603D01*
X257603Y111700D01*
Y112699D01*
X258603Y113699D01*
X261602D01*
X287600Y120700D02*
Y126698D01*
X284601D01*
X283601Y125698D01*
Y123699D01*
X284601Y122699D01*
X287600D01*
X285601D02*
X283601Y120700D01*
X277603Y126698D02*
X281602D01*
Y123699D01*
X279603Y124699D01*
X278603D01*
X277603Y123699D01*
Y121700D01*
X278603Y120700D01*
X280602D01*
X281602Y121700D01*
X267600Y129700D02*
Y135698D01*
X264601D01*
X263601Y134698D01*
Y132699D01*
X264601Y131699D01*
X267600D01*
X265601D02*
X263601Y129700D01*
X258603D02*
Y135698D01*
X261602Y132699D01*
X257603D01*
X287600Y141100D02*
Y147098D01*
X284601D01*
X283601Y146098D01*
Y144099D01*
X284601Y143099D01*
X287600D01*
X285601D02*
X283601Y141100D01*
X281602Y146098D02*
X280602Y147098D01*
X278603D01*
X277603Y146098D01*
Y145099D01*
X278603Y144099D01*
X279603D01*
X278603D01*
X277603Y143099D01*
Y142100D01*
X278603Y141100D01*
X280602D01*
X281602Y142100D01*
X267763Y150113D02*
Y156111D01*
X264764D01*
X263765Y155112D01*
Y153112D01*
X264764Y152113D01*
X267763D01*
X265764D02*
X263765Y150113D01*
X257767D02*
X261765D01*
X257767Y154112D01*
Y155112D01*
X258766Y156111D01*
X260766D01*
X261765Y155112D01*
X285600Y161100D02*
Y167098D01*
X282601D01*
X281601Y166098D01*
Y164099D01*
X282601Y163099D01*
X285600D01*
X283601D02*
X281601Y161100D01*
X279602D02*
X277603D01*
X278602D01*
Y167098D01*
X279602Y166098D01*
X252501Y39598D02*
X253501Y40598D01*
X255500D01*
X256500Y39598D01*
Y35600D01*
X255500Y34600D01*
X253501D01*
X252501Y35600D01*
X250502Y34600D02*
X248503D01*
X249502D01*
Y40598D01*
X250502Y39598D01*
X315000Y350398D02*
Y345400D01*
X314000Y344400D01*
X312001D01*
X311001Y345400D01*
Y350398D01*
X309002Y344400D02*
X307003D01*
X308002D01*
Y350398D01*
X309002Y349398D01*
M02*
